<?xml version="1.0" encoding="UTF-8" standalone="no"?>
<!DOCTYPE svg PUBLIC "-//W3C//DTD SVG 1.1//EN"
 "http://www.w3.org/Graphics/SVG/1.1/DTD/svg11.dtd">
<!-- Generated by graphviz version 2.30.0 (20130114.0426)
 -->
<!-- Title: PROV Pages: 1 -->
<svg width="1152pt" height="72pt"
 viewBox="0.00 0.00 1152.00 72.49" xmlns="http://www.w3.org/2000/svg" xmlns:xlink="http://www.w3.org/1999/xlink">
<g id="graph0" class="graph" transform="scale(0.132277 0.132277) rotate(0) translate(4 544)">
<title>PROV</title>
<polygon fill="white" stroke="white" points="-4,5 -4,-544 8706,-544 8706,5 -4,5"/>
<!-- nmatlabbatch -->
<g id="node1" class="node"><title>nmatlabbatch</title>
<ellipse fill="#fffc87" stroke="#808080" cx="4798" cy="-18" rx="58.4555" ry="18"/>
<text text-anchor="middle" x="4798" y="-12.4" font-family="Times,serif" font-size="14.00">matlabbatch</text>
</g>
<!-- nmatlabbatch1 -->
<g id="node2" class="node"><title>nmatlabbatch1</title>
<ellipse fill="#fffc87" stroke="#808080" cx="4798" cy="-90" rx="63.1116" ry="18"/>
<text text-anchor="middle" x="4798" y="-84.4" font-family="Times,serif" font-size="14.00">matlabbatch1</text>
</g>
<!-- nmatlabbatch&#45;&gt;nmatlabbatch1 -->
<g id="edge23" class="edge"><title>nmatlabbatch&#45;&gt;nmatlabbatch1</title>
<path fill="none" stroke="black" d="M4798,-36.3034C4798,-44.0173 4798,-53.2875 4798,-61.8876"/>
<polygon fill="black" stroke="black" points="4794.5,-61.8956 4798,-71.8957 4801.5,-61.8957 4794.5,-61.8956"/>
<text text-anchor="middle" x="4810.99" y="-40.6034" font-family="Times,serif" font-size="8.00">use</text>
</g>
<!-- nmatlabbatch1_spm -->
<g id="node3" class="node"><title>nmatlabbatch1_spm</title>
<ellipse fill="#fffc87" stroke="#808080" cx="4868" cy="-162" rx="81.6361" ry="18"/>
<text text-anchor="middle" x="4868" y="-156.4" font-family="Times,serif" font-size="14.00">matlabbatch1.spm</text>
</g>
<!-- nmatlabbatch1&#45;&gt;nmatlabbatch1_spm -->
<g id="edge24" class="edge"><title>nmatlabbatch1&#45;&gt;nmatlabbatch1_spm</title>
<path fill="none" stroke="black" d="M4814.59,-107.589C4823.35,-116.352 4834.27,-127.268 4843.94,-136.943"/>
<polygon fill="black" stroke="black" points="4841.5,-139.448 4851.04,-144.044 4846.45,-134.498 4841.5,-139.448"/>
<text text-anchor="middle" x="4829.08" y="-100.507" font-family="Times,serif" font-size="8.00">use</text>
</g>
<!-- nmatlabbatch1_spm_spatial -->
<g id="node5" class="node"><title>nmatlabbatch1_spm_spatial</title>
<ellipse fill="#fffc87" stroke="#808080" cx="4952" cy="-234" rx="109.381" ry="18"/>
<text text-anchor="middle" x="4952" y="-228.4" font-family="Times,serif" font-size="14.00">matlabbatch1.spm.spatial</text>
</g>
<!-- nmatlabbatch1_spm&#45;&gt;nmatlabbatch1_spm_spatial -->
<g id="edge25" class="edge"><title>nmatlabbatch1_spm&#45;&gt;nmatlabbatch1_spm_spatial</title>
<path fill="none" stroke="black" d="M4887.91,-179.589C4898.71,-188.59 4912.23,-199.861 4924.07,-209.727"/>
<polygon fill="black" stroke="black" points="4922.02,-212.574 4931.94,-216.287 4926.5,-207.197 4922.02,-212.574"/>
<text text-anchor="middle" x="4901.98" y="-171.211" font-family="Times,serif" font-size="8.00">use</text>
</g>
<!-- nann0 -->
<g id="node4" class="node"><title>nann0</title>
<polygon fill="none" stroke="gray" points="4991,-108 4879,-108 4879,-72 4997,-72 4997,-102 4991,-108"/>
<polyline fill="none" stroke="gray" points="4991,-108 4991,-102 "/>
<polyline fill="none" stroke="gray" points="4997,-102 4991,-102 "/>
<text text-anchor="start" x="4889" y="-91.5" font-family="Times,serif" font-size="10.00">type:</text>
<text text-anchor="start" x="4934" y="-91.5" font-family="Times,serif" font-size="10.00">bundle</text>
<text text-anchor="start" x="4889" y="-79" font-family="Times,serif" font-size="10.00">structpath:</text>
<text text-anchor="start" x="4934" y="-79" font-family="Times,serif" font-size="10.00">matlabbatch1</text>
</g>
<!-- nann0&#45;&gt;nmatlabbatch1_spm -->
<g id="edge1" class="edge"><title>nann0&#45;&gt;nmatlabbatch1_spm</title>
<path fill="none" stroke="gray" stroke-dasharray="5,2" d="M4920.7,-108.303C4909.68,-119.316 4895.5,-133.5 4884.62,-144.378"/>
</g>
<!-- nmatlabbatch1_spm_spatial_normalise -->
<g id="node7" class="node"><title>nmatlabbatch1_spm_spatial_normalise</title>
<ellipse fill="#fffc87" stroke="#808080" cx="5057" cy="-306" rx="149.871" ry="18"/>
<text text-anchor="middle" x="5057" y="-300.4" font-family="Times,serif" font-size="14.00">matlabbatch1.spm.spatial.normalise</text>
</g>
<!-- nmatlabbatch1_spm_spatial&#45;&gt;nmatlabbatch1_spm_spatial_normalise -->
<g id="edge26" class="edge"><title>nmatlabbatch1_spm_spatial&#45;&gt;nmatlabbatch1_spm_spatial_normalise</title>
<path fill="none" stroke="black" d="M4976.88,-251.589C4990.67,-260.782 5008.01,-272.343 5023.03,-282.357"/>
<polygon fill="black" stroke="black" points="5021.3,-285.409 5031.57,-288.044 5025.19,-279.585 5021.3,-285.409"/>
<text text-anchor="middle" x="4990.33" y="-241.741" font-family="Times,serif" font-size="8.00">use</text>
</g>
<!-- nann1 -->
<g id="node6" class="node"><title>nann1</title>
<polygon fill="none" stroke="gray" points="5100,-180 4968,-180 4968,-144 5106,-144 5106,-174 5100,-180"/>
<polyline fill="none" stroke="gray" points="5100,-180 5100,-174 "/>
<polyline fill="none" stroke="gray" points="5106,-174 5100,-174 "/>
<text text-anchor="start" x="4978" y="-163.5" font-family="Times,serif" font-size="10.00">type:</text>
<text text-anchor="start" x="5023" y="-163.5" font-family="Times,serif" font-size="10.00">bundle</text>
<text text-anchor="start" x="4978" y="-151" font-family="Times,serif" font-size="10.00">structpath:</text>
<text text-anchor="start" x="5023" y="-151" font-family="Times,serif" font-size="10.00">matlabbatch1.spm</text>
</g>
<!-- nann1&#45;&gt;nmatlabbatch1_spm_spatial -->
<g id="edge2" class="edge"><title>nann1&#45;&gt;nmatlabbatch1_spm_spatial</title>
<path fill="none" stroke="gray" stroke-dasharray="5,2" d="M5015.99,-180.303C5002.72,-191.235 4985.65,-205.291 4972.48,-216.137"/>
</g>
<!-- nmatlabbatch1_spm_spatial_normalise_write -->
<g id="node9" class="node"><title>nmatlabbatch1_spm_spatial_normalise_write</title>
<ellipse fill="#fffc87" stroke="#808080" cx="5193" cy="-378" rx="171.883" ry="18"/>
<text text-anchor="middle" x="5193" y="-372.4" font-family="Times,serif" font-size="14.00">matlabbatch1.spm.spatial.normalise.write</text>
</g>
<!-- nmatlabbatch1_spm_spatial_normalise&#45;&gt;nmatlabbatch1_spm_spatial_normalise_write -->
<g id="edge27" class="edge"><title>nmatlabbatch1_spm_spatial_normalise&#45;&gt;nmatlabbatch1_spm_spatial_normalise_write</title>
<path fill="none" stroke="black" d="M5089.23,-323.589C5107.89,-333.195 5131.58,-345.389 5151.62,-355.699"/>
<polygon fill="black" stroke="black" points="5150.04,-358.823 5160.53,-360.287 5153.24,-352.599 5150.04,-358.823"/>
<text text-anchor="middle" x="5101.84" y="-312.271" font-family="Times,serif" font-size="8.00">use</text>
</g>
<!-- nann2 -->
<g id="node8" class="node"><title>nann2</title>
<polygon fill="none" stroke="gray" points="5239,-252 5079,-252 5079,-216 5245,-216 5245,-246 5239,-252"/>
<polyline fill="none" stroke="gray" points="5239,-252 5239,-246 "/>
<polyline fill="none" stroke="gray" points="5245,-246 5239,-246 "/>
<text text-anchor="start" x="5089" y="-235.5" font-family="Times,serif" font-size="10.00">type:</text>
<text text-anchor="start" x="5134" y="-235.5" font-family="Times,serif" font-size="10.00">bundle</text>
<text text-anchor="start" x="5089" y="-223" font-family="Times,serif" font-size="10.00">structpath:</text>
<text text-anchor="start" x="5134" y="-223" font-family="Times,serif" font-size="10.00">matlabbatch1.spm.spatial</text>
</g>
<!-- nann2&#45;&gt;nmatlabbatch1_spm_spatial_normalise -->
<g id="edge3" class="edge"><title>nann2&#45;&gt;nmatlabbatch1_spm_spatial_normalise</title>
<path fill="none" stroke="gray" stroke-dasharray="5,2" d="M5136.31,-252.124C5119.92,-263.052 5098.76,-277.159 5082.42,-288.053"/>
</g>
<!-- nmatlabbatch1_spm_spatial_normalise_write_subj -->
<g id="node11" class="node"><title>nmatlabbatch1_spm_spatial_normalise_write_subj</title>
<ellipse fill="#fffc87" stroke="#808080" cx="5826" cy="-450" rx="190.408" ry="18"/>
<text text-anchor="middle" x="5826" y="-444.4" font-family="Times,serif" font-size="14.00">matlabbatch1.spm.spatial.normalise.write.subj</text>
</g>
<!-- nmatlabbatch1_spm_spatial_normalise_write&#45;&gt;nmatlabbatch1_spm_spatial_normalise_write_subj -->
<g id="edge28" class="edge"><title>nmatlabbatch1_spm_spatial_normalise_write&#45;&gt;nmatlabbatch1_spm_spatial_normalise_write_subj</title>
<path fill="none" stroke="black" d="M5306.53,-391.555C5416.36,-403.7 5582.57,-422.081 5697.27,-434.764"/>
<polygon fill="black" stroke="black" points="5697.18,-438.276 5707.51,-435.897 5697.95,-431.319 5697.18,-438.276"/>
<text text-anchor="middle" x="5315.42" y="-376.268" font-family="Times,serif" font-size="8.00">use</text>
</g>
<!-- nmatlabbatch1_spm_spatial_normalise_write_roptions -->
<g id="node17" class="node"><title>nmatlabbatch1_spm_spatial_normalise_write_roptions</title>
<ellipse fill="#fffc87" stroke="#808080" cx="4560" cy="-450" rx="206.019" ry="18"/>
<text text-anchor="middle" x="4560" y="-444.4" font-family="Times,serif" font-size="14.00">matlabbatch1.spm.spatial.normalise.write.roptions</text>
</g>
<!-- nmatlabbatch1_spm_spatial_normalise_write&#45;&gt;nmatlabbatch1_spm_spatial_normalise_write_roptions -->
<g id="edge31" class="edge"><title>nmatlabbatch1_spm_spatial_normalise_write&#45;&gt;nmatlabbatch1_spm_spatial_normalise_write_roptions</title>
<path fill="none" stroke="black" d="M5079.47,-391.555C4970.85,-403.566 4807.08,-421.677 4692.54,-434.343"/>
<polygon fill="black" stroke="black" points="4691.86,-430.897 4682.31,-435.475 4692.63,-437.854 4691.86,-430.897"/>
<text text-anchor="middle" x="5073.44" y="-402.091" font-family="Times,serif" font-size="8.00">use</text>
</g>
<!-- nann3 -->
<g id="node10" class="node"><title>nann3</title>
<polygon fill="none" stroke="gray" points="5427,-324 5225,-324 5225,-288 5433,-288 5433,-318 5427,-324"/>
<polyline fill="none" stroke="gray" points="5427,-324 5427,-318 "/>
<polyline fill="none" stroke="gray" points="5433,-318 5427,-318 "/>
<text text-anchor="start" x="5235" y="-307.5" font-family="Times,serif" font-size="10.00">type:</text>
<text text-anchor="start" x="5280" y="-307.5" font-family="Times,serif" font-size="10.00">bundle</text>
<text text-anchor="start" x="5235" y="-295" font-family="Times,serif" font-size="10.00">structpath:</text>
<text text-anchor="start" x="5280" y="-295" font-family="Times,serif" font-size="10.00">matlabbatch1.spm.spatial.normalise</text>
</g>
<!-- nann3&#45;&gt;nmatlabbatch1_spm_spatial_normalise_write -->
<g id="edge4" class="edge"><title>nann3&#45;&gt;nmatlabbatch1_spm_spatial_normalise_write</title>
<path fill="none" stroke="gray" stroke-dasharray="5,2" d="M5295.73,-324.124C5274.34,-335.133 5246.68,-349.368 5225.46,-360.294"/>
</g>
<!-- nmatlabbatch1_spm_spatial_normalise_write_subj_matname -->
<g id="node13" class="node"><title>nmatlabbatch1_spm_spatial_normalise_write_subj_matname</title>
<ellipse fill="#fffc87" stroke="#808080" cx="646" cy="-522" rx="228.023" ry="18"/>
<text text-anchor="middle" x="646" y="-516.4" font-family="Times,serif" font-size="14.00">matlabbatch1.spm.spatial.normalise.write.subj.matname</text>
</g>
<!-- nmatlabbatch1_spm_spatial_normalise_write_subj&#45;&gt;nmatlabbatch1_spm_spatial_normalise_write_subj_matname -->
<g id="edge29" class="edge"><title>nmatlabbatch1_spm_spatial_normalise_write_subj&#45;&gt;nmatlabbatch1_spm_spatial_normalise_write_subj_matname</title>
<path fill="none" stroke="black" d="M5698.17,-463.339C5674.53,-465.217 5650.03,-466.895 5627,-468 5567.02,-470.877 1859.31,-508.681 880.696,-518.62"/>
<polygon fill="black" stroke="black" points="880.334,-515.123 870.37,-518.725 880.405,-522.123 880.334,-515.123"/>
<text text-anchor="middle" x="5691.71" y="-473.675" font-family="Times,serif" font-size="8.00">use</text>
</g>
<!-- nmatlabbatch1_spm_spatial_normalise_write_subj_resample -->
<g id="node15" class="node"><title>nmatlabbatch1_spm_spatial_normalise_write_subj_resample</title>
<ellipse fill="#fffc87" stroke="#808080" cx="6951" cy="-522" rx="227.947" ry="18"/>
<text text-anchor="middle" x="6951" y="-516.4" font-family="Times,serif" font-size="14.00">matlabbatch1.spm.spatial.normalise.write.subj.resample</text>
</g>
<!-- nmatlabbatch1_spm_spatial_normalise_write_subj&#45;&gt;nmatlabbatch1_spm_spatial_normalise_write_subj_resample -->
<g id="edge30" class="edge"><title>nmatlabbatch1_spm_spatial_normalise_write_subj&#45;&gt;nmatlabbatch1_spm_spatial_normalise_write_subj_resample</title>
<path fill="none" stroke="black" d="M5958.96,-462.879C5981.01,-464.699 6003.64,-466.477 6025,-468 6275.97,-485.898 6565.54,-501.692 6753.1,-511.283"/>
<polygon fill="black" stroke="black" points="6753.18,-514.791 6763.35,-511.806 6753.54,-507.801 6753.18,-514.791"/>
<text text-anchor="middle" x="5967.5" y="-447.346" font-family="Times,serif" font-size="8.00">use</text>
</g>
<!-- nann4 -->
<g id="node12" class="node"><title>nann4</title>
<polygon fill="none" stroke="gray" points="5935.5,-396 5710.5,-396 5710.5,-360 5941.5,-360 5941.5,-390 5935.5,-396"/>
<polyline fill="none" stroke="gray" points="5935.5,-396 5935.5,-390 "/>
<polyline fill="none" stroke="gray" points="5941.5,-390 5935.5,-390 "/>
<text text-anchor="start" x="5721" y="-379.5" font-family="Times,serif" font-size="10.00">type:</text>
<text text-anchor="start" x="5766" y="-379.5" font-family="Times,serif" font-size="10.00">bundle</text>
<text text-anchor="start" x="5721" y="-367" font-family="Times,serif" font-size="10.00">structpath:</text>
<text text-anchor="start" x="5766" y="-367" font-family="Times,serif" font-size="10.00">matlabbatch1.spm.spatial.normalise.write</text>
</g>
<!-- nann4&#45;&gt;nmatlabbatch1_spm_spatial_normalise_write_subj -->
<g id="edge5" class="edge"><title>nann4&#45;&gt;nmatlabbatch1_spm_spatial_normalise_write_subj</title>
<path fill="none" stroke="gray" stroke-dasharray="5,2" d="M5826,-396.303C5826,-407.154 5826,-421.083 5826,-431.896"/>
</g>
<!-- nann5 -->
<g id="node14" class="node"><title>nann5</title>
<polygon fill="none" stroke="gray" points="244,-468 0,-468 0,-432 250,-432 250,-462 244,-468"/>
<polyline fill="none" stroke="gray" points="244,-468 244,-462 "/>
<polyline fill="none" stroke="gray" points="250,-462 244,-462 "/>
<text text-anchor="start" x="10" y="-451.5" font-family="Times,serif" font-size="10.00">type:</text>
<text text-anchor="start" x="55" y="-451.5" font-family="Times,serif" font-size="10.00">bundle</text>
<text text-anchor="start" x="10" y="-439" font-family="Times,serif" font-size="10.00">structpath:</text>
<text text-anchor="start" x="55" y="-439" font-family="Times,serif" font-size="10.00">matlabbatch1.spm.spatial.normalise.write.subj</text>
</g>
<!-- nann5&#45;&gt;nmatlabbatch1_spm_spatial_normalise_write_subj_matname -->
<g id="edge6" class="edge"><title>nann5&#45;&gt;nmatlabbatch1_spm_spatial_normalise_write_subj_matname</title>
<path fill="none" stroke="gray" stroke-dasharray="5,2" d="M250.124,-467.811C337.133,-479.502 452.046,-494.941 535.641,-506.172"/>
</g>
<!-- nann6 -->
<g id="node16" class="node"><title>nann6</title>
<polygon fill="none" stroke="gray" points="7070,-468 6826,-468 6826,-432 7076,-432 7076,-462 7070,-468"/>
<polyline fill="none" stroke="gray" points="7070,-468 7070,-462 "/>
<polyline fill="none" stroke="gray" points="7076,-462 7070,-462 "/>
<text text-anchor="start" x="6836" y="-451.5" font-family="Times,serif" font-size="10.00">type:</text>
<text text-anchor="start" x="6881" y="-451.5" font-family="Times,serif" font-size="10.00">bundle</text>
<text text-anchor="start" x="6836" y="-439" font-family="Times,serif" font-size="10.00">structpath:</text>
<text text-anchor="start" x="6881" y="-439" font-family="Times,serif" font-size="10.00">matlabbatch1.spm.spatial.normalise.write.subj</text>
</g>
<!-- nann6&#45;&gt;nmatlabbatch1_spm_spatial_normalise_write_subj_resample -->
<g id="edge7" class="edge"><title>nann6&#45;&gt;nmatlabbatch1_spm_spatial_normalise_write_subj_resample</title>
<path fill="none" stroke="gray" stroke-dasharray="5,2" d="M6951,-468.303C6951,-479.154 6951,-493.083 6951,-503.896"/>
</g>
<!-- nmatlabbatch1_spm_spatial_normalise_write_roptions_preserve -->
<g id="node19" class="node"><title>nmatlabbatch1_spm_spatial_normalise_write_roptions_preserve</title>
<ellipse fill="#fffc87" stroke="#808080" cx="3759" cy="-522" rx="241.259" ry="18"/>
<text text-anchor="middle" x="3759" y="-516.4" font-family="Times,serif" font-size="14.00">matlabbatch1.spm.spatial.normalise.write.roptions.preserve</text>
</g>
<!-- nmatlabbatch1_spm_spatial_normalise_write_roptions&#45;&gt;nmatlabbatch1_spm_spatial_normalise_write_roptions_preserve -->
<g id="edge32" class="edge"><title>nmatlabbatch1_spm_spatial_normalise_write_roptions&#45;&gt;nmatlabbatch1_spm_spatial_normalise_write_roptions_preserve</title>
<path fill="none" stroke="black" d="M4420.02,-463.233C4280.18,-475.454 4065.47,-494.217 3918.97,-507.02"/>
<polygon fill="black" stroke="black" points="3918.64,-503.535 3908.99,-507.893 3919.25,-510.509 3918.64,-503.535"/>
<text text-anchor="middle" x="4413.68" y="-473.627" font-family="Times,serif" font-size="8.00">use</text>
</g>
<!-- nmatlabbatch1_spm_spatial_normalise_write_roptions_bb -->
<g id="node21" class="node"><title>nmatlabbatch1_spm_spatial_normalise_write_roptions_bb</title>
<ellipse fill="#fffc87" stroke="#808080" cx="4236" cy="-522" rx="218.162" ry="18"/>
<text text-anchor="middle" x="4236" y="-516.4" font-family="Times,serif" font-size="14.00">matlabbatch1.spm.spatial.normalise.write.roptions.bb</text>
</g>
<!-- nmatlabbatch1_spm_spatial_normalise_write_roptions&#45;&gt;nmatlabbatch1_spm_spatial_normalise_write_roptions_bb -->
<g id="edge33" class="edge"><title>nmatlabbatch1_spm_spatial_normalise_write_roptions&#45;&gt;nmatlabbatch1_spm_spatial_normalise_write_roptions_bb</title>
<path fill="none" stroke="black" d="M4486.48,-466.884C4436.84,-477.608 4371.21,-491.787 4319.59,-502.941"/>
<polygon fill="black" stroke="black" points="4318.83,-499.525 4309.79,-505.058 4320.3,-506.367 4318.83,-499.525"/>
<text text-anchor="middle" x="4481.89" y="-477.965" font-family="Times,serif" font-size="8.00">use</text>
</g>
<!-- nmatlabbatch1_spm_spatial_normalise_write_roptions_vox -->
<g id="node23" class="node"><title>nmatlabbatch1_spm_spatial_normalise_write_roptions_vox</title>
<ellipse fill="#fffc87" stroke="#808080" cx="4695" cy="-522" rx="222.819" ry="18"/>
<text text-anchor="middle" x="4695" y="-516.4" font-family="Times,serif" font-size="14.00">matlabbatch1.spm.spatial.normalise.write.roptions.vox</text>
</g>
<!-- nmatlabbatch1_spm_spatial_normalise_write_roptions&#45;&gt;nmatlabbatch1_spm_spatial_normalise_write_roptions_vox -->
<g id="edge34" class="edge"><title>nmatlabbatch1_spm_spatial_normalise_write_roptions&#45;&gt;nmatlabbatch1_spm_spatial_normalise_write_roptions_vox</title>
<path fill="none" stroke="black" d="M4592.68,-467.945C4610.87,-477.376 4633.7,-489.216 4653.18,-499.317"/>
<polygon fill="black" stroke="black" points="4651.66,-502.472 4662.15,-503.968 4654.89,-496.258 4651.66,-502.472"/>
<text text-anchor="middle" x="4605.32" y="-456.665" font-family="Times,serif" font-size="8.00">use</text>
</g>
<!-- nmatlabbatch1_spm_spatial_normalise_write_roptions_interp -->
<g id="node25" class="node"><title>nmatlabbatch1_spm_spatial_normalise_write_roptions_interp</title>
<ellipse fill="#fffc87" stroke="#808080" cx="5167" cy="-522" rx="230.898" ry="18"/>
<text text-anchor="middle" x="5167" y="-516.4" font-family="Times,serif" font-size="14.00">matlabbatch1.spm.spatial.normalise.write.roptions.interp</text>
</g>
<!-- nmatlabbatch1_spm_spatial_normalise_write_roptions&#45;&gt;nmatlabbatch1_spm_spatial_normalise_write_roptions_interp -->
<g id="edge35" class="edge"><title>nmatlabbatch1_spm_spatial_normalise_write_roptions&#45;&gt;nmatlabbatch1_spm_spatial_normalise_write_roptions_interp</title>
<path fill="none" stroke="black" d="M4678.84,-464.705C4780.82,-476.465 4927.67,-493.4 5033.64,-505.62"/>
<polygon fill="black" stroke="black" points="5033.43,-509.119 5043.76,-506.788 5034.23,-502.165 5033.43,-509.119"/>
<text text-anchor="middle" x="4687.78" y="-449.459" font-family="Times,serif" font-size="8.00">use</text>
</g>
<!-- nmatlabbatch1_spm_spatial_normalise_write_roptions_wrap -->
<g id="node27" class="node"><title>nmatlabbatch1_spm_spatial_normalise_write_roptions_wrap</title>
<ellipse fill="#fffc87" stroke="#808080" cx="5644" cy="-522" rx="227.957" ry="18"/>
<text text-anchor="middle" x="5644" y="-516.4" font-family="Times,serif" font-size="14.00">matlabbatch1.spm.spatial.normalise.write.roptions.wrap</text>
</g>
<!-- nmatlabbatch1_spm_spatial_normalise_write_roptions&#45;&gt;nmatlabbatch1_spm_spatial_normalise_write_roptions_wrap -->
<g id="edge36" class="edge"><title>nmatlabbatch1_spm_spatial_normalise_write_roptions&#45;&gt;nmatlabbatch1_spm_spatial_normalise_write_roptions_wrap</title>
<path fill="none" stroke="black" d="M4704.53,-462.865C4728.08,-464.672 4752.21,-466.449 4775,-468 5055.25,-487.072 5125.68,-485.993 5406,-504 5427.88,-505.405 5450.88,-506.956 5473.61,-508.532"/>
<polygon fill="black" stroke="black" points="5473.45,-512.03 5483.67,-509.233 5473.94,-505.047 5473.45,-512.03"/>
<text text-anchor="middle" x="4713" y="-447.284" font-family="Times,serif" font-size="8.00">use</text>
</g>
<!-- nmatlabbatch1_spm_spatial_normalise_write_roptions_prefix -->
<g id="node29" class="node"><title>nmatlabbatch1_spm_spatial_normalise_write_roptions_prefix</title>
<ellipse fill="#fffc87" stroke="#808080" cx="2556" cy="-522" rx="230.907" ry="18"/>
<text text-anchor="middle" x="2556" y="-516.4" font-family="Times,serif" font-size="14.00">matlabbatch1.spm.spatial.normalise.write.roptions.prefix</text>
</g>
<!-- nmatlabbatch1_spm_spatial_normalise_write_roptions&#45;&gt;nmatlabbatch1_spm_spatial_normalise_write_roptions_prefix -->
<g id="edge37" class="edge"><title>nmatlabbatch1_spm_spatial_normalise_write_roptions&#45;&gt;nmatlabbatch1_spm_spatial_normalise_write_roptions_prefix</title>
<path fill="none" stroke="black" d="M4418.97,-463.151C4394.33,-464.988 4368.93,-466.7 4345,-468 3788.13,-498.246 3132.74,-512.133 2790.7,-517.732"/>
<polygon fill="black" stroke="black" points="2790.61,-514.233 2780.67,-517.895 2790.73,-521.232 2790.61,-514.233"/>
<text text-anchor="middle" x="4412.45" y="-473.458" font-family="Times,serif" font-size="8.00">use</text>
</g>
<!-- nann7 -->
<g id="node18" class="node"><title>nann7</title>
<polygon fill="none" stroke="gray" points="4669.5,-396 4444.5,-396 4444.5,-360 4675.5,-360 4675.5,-390 4669.5,-396"/>
<polyline fill="none" stroke="gray" points="4669.5,-396 4669.5,-390 "/>
<polyline fill="none" stroke="gray" points="4675.5,-390 4669.5,-390 "/>
<text text-anchor="start" x="4455" y="-379.5" font-family="Times,serif" font-size="10.00">type:</text>
<text text-anchor="start" x="4500" y="-379.5" font-family="Times,serif" font-size="10.00">bundle</text>
<text text-anchor="start" x="4455" y="-367" font-family="Times,serif" font-size="10.00">structpath:</text>
<text text-anchor="start" x="4500" y="-367" font-family="Times,serif" font-size="10.00">matlabbatch1.spm.spatial.normalise.write</text>
</g>
<!-- nann7&#45;&gt;nmatlabbatch1_spm_spatial_normalise_write_roptions -->
<g id="edge8" class="edge"><title>nann7&#45;&gt;nmatlabbatch1_spm_spatial_normalise_write_roptions</title>
<path fill="none" stroke="gray" stroke-dasharray="5,2" d="M4560,-396.303C4560,-407.154 4560,-421.083 4560,-431.896"/>
</g>
<!-- nann8 -->
<g id="node20" class="node"><title>nann8</title>
<polygon fill="none" stroke="gray" points="4046,-468 3786,-468 3786,-432 4052,-432 4052,-462 4046,-468"/>
<polyline fill="none" stroke="gray" points="4046,-468 4046,-462 "/>
<polyline fill="none" stroke="gray" points="4052,-462 4046,-462 "/>
<text text-anchor="start" x="3796" y="-451.5" font-family="Times,serif" font-size="10.00">type:</text>
<text text-anchor="start" x="3841" y="-451.5" font-family="Times,serif" font-size="10.00">spm:parameter</text>
<text text-anchor="start" x="3796" y="-439" font-family="Times,serif" font-size="10.00">structpath:</text>
<text text-anchor="start" x="3841" y="-439" font-family="Times,serif" font-size="10.00">matlabbatch1.spm.spatial.normalise.write.roptions</text>
</g>
<!-- nann8&#45;&gt;nmatlabbatch1_spm_spatial_normalise_write_roptions_preserve -->
<g id="edge9" class="edge"><title>nann8&#45;&gt;nmatlabbatch1_spm_spatial_normalise_write_roptions_preserve</title>
<path fill="none" stroke="gray" stroke-dasharray="5,2" d="M3879.86,-468.124C3854.79,-479.093 3822.4,-493.264 3797.46,-504.174"/>
</g>
<!-- nann9 -->
<g id="node22" class="node"><title>nann9</title>
<polygon fill="none" stroke="gray" points="4330,-468 4070,-468 4070,-432 4336,-432 4336,-462 4330,-468"/>
<polyline fill="none" stroke="gray" points="4330,-468 4330,-462 "/>
<polyline fill="none" stroke="gray" points="4336,-462 4330,-462 "/>
<text text-anchor="start" x="4080" y="-451.5" font-family="Times,serif" font-size="10.00">type:</text>
<text text-anchor="start" x="4125" y="-451.5" font-family="Times,serif" font-size="10.00">spm:parameter</text>
<text text-anchor="start" x="4080" y="-439" font-family="Times,serif" font-size="10.00">structpath:</text>
<text text-anchor="start" x="4125" y="-439" font-family="Times,serif" font-size="10.00">matlabbatch1.spm.spatial.normalise.write.roptions</text>
</g>
<!-- nann9&#45;&gt;nmatlabbatch1_spm_spatial_normalise_write_roptions_bb -->
<g id="edge10" class="edge"><title>nann9&#45;&gt;nmatlabbatch1_spm_spatial_normalise_write_roptions_bb</title>
<path fill="none" stroke="gray" stroke-dasharray="5,2" d="M4211.16,-468.303C4216.27,-479.154 4222.84,-493.083 4227.94,-503.896"/>
</g>
<!-- nann10 -->
<g id="node24" class="node"><title>nann10</title>
<polygon fill="none" stroke="gray" points="5044,-468 4784,-468 4784,-432 5050,-432 5050,-462 5044,-468"/>
<polyline fill="none" stroke="gray" points="5044,-468 5044,-462 "/>
<polyline fill="none" stroke="gray" points="5050,-462 5044,-462 "/>
<text text-anchor="start" x="4794" y="-451.5" font-family="Times,serif" font-size="10.00">type:</text>
<text text-anchor="start" x="4839" y="-451.5" font-family="Times,serif" font-size="10.00">spm:parameter</text>
<text text-anchor="start" x="4794" y="-439" font-family="Times,serif" font-size="10.00">structpath:</text>
<text text-anchor="start" x="4839" y="-439" font-family="Times,serif" font-size="10.00">matlabbatch1.spm.spatial.normalise.write.roptions</text>
</g>
<!-- nann10&#45;&gt;nmatlabbatch1_spm_spatial_normalise_write_roptions_vox -->
<g id="edge11" class="edge"><title>nann10&#45;&gt;nmatlabbatch1_spm_spatial_normalise_write_roptions_vox</title>
<path fill="none" stroke="gray" stroke-dasharray="5,2" d="M4862.98,-468.034C4827.81,-479.123 4782.18,-493.512 4747.35,-504.494"/>
</g>
<!-- nann11 -->
<g id="node26" class="node"><title>nann11</title>
<polygon fill="none" stroke="gray" points="5328,-468 5068,-468 5068,-432 5334,-432 5334,-462 5328,-468"/>
<polyline fill="none" stroke="gray" points="5328,-468 5328,-462 "/>
<polyline fill="none" stroke="gray" points="5334,-462 5328,-462 "/>
<text text-anchor="start" x="5078" y="-451.5" font-family="Times,serif" font-size="10.00">type:</text>
<text text-anchor="start" x="5123" y="-451.5" font-family="Times,serif" font-size="10.00">spm:parameter</text>
<text text-anchor="start" x="5078" y="-439" font-family="Times,serif" font-size="10.00">structpath:</text>
<text text-anchor="start" x="5123" y="-439" font-family="Times,serif" font-size="10.00">matlabbatch1.spm.spatial.normalise.write.roptions</text>
</g>
<!-- nann11&#45;&gt;nmatlabbatch1_spm_spatial_normalise_write_roptions_interp -->
<g id="edge12" class="edge"><title>nann11&#45;&gt;nmatlabbatch1_spm_spatial_normalise_write_roptions_interp</title>
<path fill="none" stroke="gray" stroke-dasharray="5,2" d="M5192.6,-468.303C5187.33,-479.154 5180.56,-493.083 5175.31,-503.896"/>
</g>
<!-- nann12 -->
<g id="node28" class="node"><title>nann12</title>
<polygon fill="none" stroke="gray" points="5612,-468 5352,-468 5352,-432 5618,-432 5618,-462 5612,-468"/>
<polyline fill="none" stroke="gray" points="5612,-468 5612,-462 "/>
<polyline fill="none" stroke="gray" points="5618,-462 5612,-462 "/>
<text text-anchor="start" x="5362" y="-451.5" font-family="Times,serif" font-size="10.00">type:</text>
<text text-anchor="start" x="5407" y="-451.5" font-family="Times,serif" font-size="10.00">spm:parameter</text>
<text text-anchor="start" x="5362" y="-439" font-family="Times,serif" font-size="10.00">structpath:</text>
<text text-anchor="start" x="5407" y="-439" font-family="Times,serif" font-size="10.00">matlabbatch1.spm.spatial.normalise.write.roptions</text>
</g>
<!-- nann12&#45;&gt;nmatlabbatch1_spm_spatial_normalise_write_roptions_wrap -->
<g id="edge13" class="edge"><title>nann12&#45;&gt;nmatlabbatch1_spm_spatial_normalise_write_roptions_wrap</title>
<path fill="none" stroke="gray" stroke-dasharray="5,2" d="M5523.9,-468.124C5548.81,-479.093 5581,-493.264 5605.78,-504.174"/>
</g>
<!-- nann13 -->
<g id="node30" class="node"><title>nann13</title>
<polygon fill="none" stroke="gray" points="2956,-468 2696,-468 2696,-432 2962,-432 2962,-462 2956,-468"/>
<polyline fill="none" stroke="gray" points="2956,-468 2956,-462 "/>
<polyline fill="none" stroke="gray" points="2962,-462 2956,-462 "/>
<text text-anchor="start" x="2706" y="-451.5" font-family="Times,serif" font-size="10.00">type:</text>
<text text-anchor="start" x="2751" y="-451.5" font-family="Times,serif" font-size="10.00">spm:parameter</text>
<text text-anchor="start" x="2706" y="-439" font-family="Times,serif" font-size="10.00">structpath:</text>
<text text-anchor="start" x="2751" y="-439" font-family="Times,serif" font-size="10.00">matlabbatch1.spm.spatial.normalise.write.roptions</text>
</g>
<!-- nann13&#45;&gt;nmatlabbatch1_spm_spatial_normalise_write_roptions_prefix -->
<g id="edge14" class="edge"><title>nann13&#45;&gt;nmatlabbatch1_spm_spatial_normalise_write_roptions_prefix</title>
<path fill="none" stroke="gray" stroke-dasharray="5,2" d="M2762.57,-468.034C2719.16,-479.163 2662.79,-493.617 2619.91,-504.614"/>
</g>
<!-- n_share_data_studies_CogRes_Subjects_P00004218_S0001_T1_T1_P00004218_S0001_seg_sn_mat -->
<g id="node31" class="node"><title>n_share_data_studies_CogRes_Subjects_P00004218_S0001_T1_T1_P00004218_S0001_seg_sn_mat</title>
<ellipse fill="#fffc87" stroke="#808080" cx="646" cy="-450" rx="378.029" ry="18"/>
<text text-anchor="middle" x="646" y="-444.4" font-family="Times,serif" font-size="14.00">/share/data/studies/CogRes/Subjects/P00004218/S0001/T1/T1_P00004218_S0001_seg_sn.mat</text>
</g>
<!-- n_share_data_studies_CogRes_Subjects_P00004218_S0001_T1_T1_P00004218_S0001_seg_sn_mat&#45;&gt;nmatlabbatch1_spm_spatial_normalise_write_roptions_prefix -->
<g id="edge38" class="edge"><title>n_share_data_studies_CogRes_Subjects_P00004218_S0001_T1_T1_P00004218_S0001_seg_sn_mat&#45;&gt;nmatlabbatch1_spm_spatial_normalise_write_roptions_prefix</title>
<path fill="none" stroke="black" d="M909.849,-462.912C951.068,-464.68 993.184,-466.433 1033,-468 1497.08,-486.267 2040.83,-504.403 2336.77,-513.999"/>
<polygon fill="black" stroke="black" points="2337.09,-517.51 2347.2,-514.336 2337.32,-510.514 2337.09,-517.51"/>
<text text-anchor="middle" x="917.897" y="-447.054" font-family="Times,serif" font-size="8.00">der</text>
</g>
<!-- n_share_data_studies_CogRes_Subjects_P00004218_S0001_T1_T1_P00004218_S0001_seg_sn_mat&#45;&gt;nmatlabbatch1_spm_spatial_normalise_write_subj_matname -->
<g id="edge42" class="edge"><title>n_share_data_studies_CogRes_Subjects_P00004218_S0001_T1_T1_P00004218_S0001_seg_sn_mat&#45;&gt;nmatlabbatch1_spm_spatial_normalise_write_subj_matname</title>
<path fill="none" stroke="black" d="M646,-468.303C646,-476.017 646,-485.288 646,-493.888"/>
<polygon fill="black" stroke="black" points="642.5,-493.896 646,-503.896 649.5,-493.896 642.5,-493.896"/>
<text text-anchor="middle" x="658.99" y="-472.603" font-family="Times,serif" font-size="8.00">use</text>
</g>
<!-- nann14 -->
<g id="node32" class="node"><title>nann14</title>
<polygon fill="none" stroke="gray" points="940,-396 654,-396 654,-360 946,-360 946,-390 940,-396"/>
<polyline fill="none" stroke="gray" points="940,-396 940,-390 "/>
<polyline fill="none" stroke="gray" points="946,-390 940,-390 "/>
<text text-anchor="start" x="664" y="-379.5" font-family="Times,serif" font-size="10.00">type:</text>
<text text-anchor="start" x="709" y="-379.5" font-family="Times,serif" font-size="10.00">ImageIndex</text>
<text text-anchor="start" x="664" y="-367" font-family="Times,serif" font-size="10.00">structpath:</text>
<text text-anchor="start" x="709" y="-367" font-family="Times,serif" font-size="10.00">matlabbatch1.spm.spatial.normalise.write.roptions.prefix</text>
</g>
<!-- nann14&#45;&gt;n_share_data_studies_CogRes_Subjects_P00004218_S0001_T1_T1_P00004218_S0001_seg_sn_mat -->
<g id="edge15" class="edge"><title>nann14&#45;&gt;n_share_data_studies_CogRes_Subjects_P00004218_S0001_T1_T1_P00004218_S0001_seg_sn_mat</title>
<path fill="none" stroke="gray" stroke-dasharray="5,2" d="M762.327,-396.124C738.285,-407.052 707.25,-421.159 683.284,-432.053"/>
</g>
<!-- n_share_data_studies_CogRes_Subjects_P00004218_S0001_ECF_r1_waECF_r1_P00004218_S0001_nii -->
<g id="node33" class="node"><title>n_share_data_studies_CogRes_Subjects_P00004218_S0001_ECF_r1_waECF_r1_P00004218_S0001_nii</title>
<ellipse fill="#fffc87" stroke="#808080" cx="3374" cy="-450" rx="393.669" ry="18"/>
<text text-anchor="middle" x="3374" y="-444.4" font-family="Times,serif" font-size="14.00">/share/data/studies/CogRes/Subjects/P00004218/S0001/ECF_r1/waECF_r1_P00004218_S0001.nii</text>
</g>
<!-- n_share_data_studies_CogRes_Subjects_P00004218_S0001_ECF_r1_waECF_r1_P00004218_S0001_nii&#45;&gt;nmatlabbatch1_spm_spatial_normalise_write_roptions_prefix -->
<g id="edge39" class="edge"><title>n_share_data_studies_CogRes_Subjects_P00004218_S0001_ECF_r1_waECF_r1_P00004218_S0001_nii&#45;&gt;nmatlabbatch1_spm_spatial_normalise_write_roptions_prefix</title>
<path fill="none" stroke="black" d="M3197.51,-466.103C3054.21,-478.366 2853.88,-495.509 2715.39,-507.36"/>
<polygon fill="black" stroke="black" points="2714.77,-503.9 2705.11,-508.24 2715.37,-510.875 2714.77,-503.9"/>
<text text-anchor="middle" x="3191.15" y="-476.485" font-family="Times,serif" font-size="8.00">der</text>
</g>
<!-- nann15 -->
<g id="node34" class="node"><title>nann15</title>
<polygon fill="none" stroke="gray" points="3514,-396 3228,-396 3228,-360 3520,-360 3520,-390 3514,-396"/>
<polyline fill="none" stroke="gray" points="3514,-396 3514,-390 "/>
<polyline fill="none" stroke="gray" points="3520,-390 3514,-390 "/>
<text text-anchor="start" x="3238" y="-379.5" font-family="Times,serif" font-size="10.00">type:</text>
<text text-anchor="start" x="3283" y="-379.5" font-family="Times,serif" font-size="10.00">ImageIndex</text>
<text text-anchor="start" x="3238" y="-367" font-family="Times,serif" font-size="10.00">structpath:</text>
<text text-anchor="start" x="3283" y="-367" font-family="Times,serif" font-size="10.00">matlabbatch1.spm.spatial.normalise.write.roptions.prefix</text>
</g>
<!-- nann15&#45;&gt;n_share_data_studies_CogRes_Subjects_P00004218_S0001_ECF_r1_waECF_r1_P00004218_S0001_nii -->
<g id="edge16" class="edge"><title>nann15&#45;&gt;n_share_data_studies_CogRes_Subjects_P00004218_S0001_ECF_r1_waECF_r1_P00004218_S0001_nii</title>
<path fill="none" stroke="gray" stroke-dasharray="5,2" d="M3374,-396.303C3374,-407.154 3374,-421.083 3374,-431.896"/>
</g>
<!-- n_share_data_studies_CogRes_Subjects_P00004218_S0001_ECF_r1_wmeanaECF_r1_P00004218_S0001_nii -->
<g id="node35" class="node"><title>n_share_data_studies_CogRes_Subjects_P00004218_S0001_ECF_r1_wmeanaECF_r1_P00004218_S0001_nii</title>
<ellipse fill="#fffc87" stroke="#808080" cx="1457" cy="-450" rx="414.994" ry="18"/>
<text text-anchor="middle" x="1457" y="-444.4" font-family="Times,serif" font-size="14.00">/share/data/studies/CogRes/Subjects/P00004218/S0001/ECF_r1/wmeanaECF_r1_P00004218_S0001.nii</text>
</g>
<!-- n_share_data_studies_CogRes_Subjects_P00004218_S0001_ECF_r1_wmeanaECF_r1_P00004218_S0001_nii&#45;&gt;nmatlabbatch1_spm_spatial_normalise_write_roptions_prefix -->
<g id="edge40" class="edge"><title>n_share_data_studies_CogRes_Subjects_P00004218_S0001_ECF_r1_wmeanaECF_r1_P00004218_S0001_nii&#45;&gt;nmatlabbatch1_spm_spatial_normalise_write_roptions_prefix</title>
<path fill="none" stroke="black" d="M1679.73,-465.187C1884.03,-478.199 2182.96,-497.24 2373.48,-509.375"/>
<polygon fill="black" stroke="black" points="2373.4,-512.877 2383.6,-510.019 2373.85,-505.891 2373.4,-512.877"/>
<text text-anchor="middle" x="1688.04" y="-449.499" font-family="Times,serif" font-size="8.00">der</text>
</g>
<!-- nann16 -->
<g id="node36" class="node"><title>nann16</title>
<polygon fill="none" stroke="gray" points="1597,-396 1311,-396 1311,-360 1603,-360 1603,-390 1597,-396"/>
<polyline fill="none" stroke="gray" points="1597,-396 1597,-390 "/>
<polyline fill="none" stroke="gray" points="1603,-390 1597,-390 "/>
<text text-anchor="start" x="1321" y="-379.5" font-family="Times,serif" font-size="10.00">type:</text>
<text text-anchor="start" x="1366" y="-379.5" font-family="Times,serif" font-size="10.00">ImageIndex</text>
<text text-anchor="start" x="1321" y="-367" font-family="Times,serif" font-size="10.00">structpath:</text>
<text text-anchor="start" x="1366" y="-367" font-family="Times,serif" font-size="10.00">matlabbatch1.spm.spatial.normalise.write.roptions.prefix</text>
</g>
<!-- nann16&#45;&gt;n_share_data_studies_CogRes_Subjects_P00004218_S0001_ECF_r1_wmeanaECF_r1_P00004218_S0001_nii -->
<g id="edge17" class="edge"><title>nann16&#45;&gt;n_share_data_studies_CogRes_Subjects_P00004218_S0001_ECF_r1_wmeanaECF_r1_P00004218_S0001_nii</title>
<path fill="none" stroke="gray" stroke-dasharray="5,2" d="M1457,-396.303C1457,-407.154 1457,-421.083 1457,-431.896"/>
</g>
<!-- n_share_data_studies_CogRes_Subjects_P00004218_S0001_ECF_r2_waECF_r2_P00004218_S0001_nii -->
<g id="node37" class="node"><title>n_share_data_studies_CogRes_Subjects_P00004218_S0001_ECF_r2_waECF_r2_P00004218_S0001_nii</title>
<ellipse fill="#fffc87" stroke="#808080" cx="2284" cy="-450" rx="393.669" ry="18"/>
<text text-anchor="middle" x="2284" y="-444.4" font-family="Times,serif" font-size="14.00">/share/data/studies/CogRes/Subjects/P00004218/S0001/ECF_r2/waECF_r2_P00004218_S0001.nii</text>
</g>
<!-- n_share_data_studies_CogRes_Subjects_P00004218_S0001_ECF_r2_waECF_r2_P00004218_S0001_nii&#45;&gt;nmatlabbatch1_spm_spatial_normalise_write_roptions_prefix -->
<g id="edge41" class="edge"><title>n_share_data_studies_CogRes_Subjects_P00004218_S0001_ECF_r2_waECF_r2_P00004218_S0001_nii&#45;&gt;nmatlabbatch1_spm_spatial_normalise_write_roptions_prefix</title>
<path fill="none" stroke="black" d="M2349.15,-467.767C2389.31,-478.102 2440.9,-491.379 2482.51,-502.088"/>
<polygon fill="black" stroke="black" points="2481.76,-505.509 2492.32,-504.612 2483.51,-498.73 2481.76,-505.509"/>
<text text-anchor="middle" x="2359.65" y="-453.856" font-family="Times,serif" font-size="8.00">der</text>
</g>
<!-- nann17 -->
<g id="node38" class="node"><title>nann17</title>
<polygon fill="none" stroke="gray" points="2424,-396 2138,-396 2138,-360 2430,-360 2430,-390 2424,-396"/>
<polyline fill="none" stroke="gray" points="2424,-396 2424,-390 "/>
<polyline fill="none" stroke="gray" points="2430,-390 2424,-390 "/>
<text text-anchor="start" x="2148" y="-379.5" font-family="Times,serif" font-size="10.00">type:</text>
<text text-anchor="start" x="2193" y="-379.5" font-family="Times,serif" font-size="10.00">ImageIndex</text>
<text text-anchor="start" x="2148" y="-367" font-family="Times,serif" font-size="10.00">structpath:</text>
<text text-anchor="start" x="2193" y="-367" font-family="Times,serif" font-size="10.00">matlabbatch1.spm.spatial.normalise.write.roptions.prefix</text>
</g>
<!-- nann17&#45;&gt;n_share_data_studies_CogRes_Subjects_P00004218_S0001_ECF_r2_waECF_r2_P00004218_S0001_nii -->
<g id="edge18" class="edge"><title>nann17&#45;&gt;n_share_data_studies_CogRes_Subjects_P00004218_S0001_ECF_r2_waECF_r2_P00004218_S0001_nii</title>
<path fill="none" stroke="gray" stroke-dasharray="5,2" d="M2284,-396.303C2284,-407.154 2284,-421.083 2284,-431.896"/>
</g>
<!-- nann18 -->
<g id="node39" class="node"><title>nann18</title>
<polygon fill="none" stroke="gray" points="629.5,-396 346.5,-396 346.5,-360 635.5,-360 635.5,-390 629.5,-396"/>
<polyline fill="none" stroke="gray" points="629.5,-396 629.5,-390 "/>
<polyline fill="none" stroke="gray" points="635.5,-390 629.5,-390 "/>
<text text-anchor="start" x="357" y="-379.5" font-family="Times,serif" font-size="10.00">type:</text>
<text text-anchor="start" x="402" y="-379.5" font-family="Times,serif" font-size="10.00">ImageIndex</text>
<text text-anchor="start" x="357" y="-367" font-family="Times,serif" font-size="10.00">structpath:</text>
<text text-anchor="start" x="402" y="-367" font-family="Times,serif" font-size="10.00">matlabbatch1.spm.spatial.normalise.write.subj.matname</text>
</g>
<!-- nann18&#45;&gt;n_share_data_studies_CogRes_Subjects_P00004218_S0001_T1_T1_P00004218_S0001_seg_sn_mat -->
<g id="edge19" class="edge"><title>nann18&#45;&gt;n_share_data_studies_CogRes_Subjects_P00004218_S0001_T1_T1_P00004218_S0001_seg_sn_mat</title>
<path fill="none" stroke="gray" stroke-dasharray="5,2" d="M528.917,-396.124C553.116,-407.052 584.352,-421.159 608.474,-432.053"/>
</g>
<!-- n_share_data_studies_CogRes_Subjects_P00004218_S0001_ECF_r1_aECF_r1_P00004218_S0001_nii -->
<g id="node40" class="node"><title>n_share_data_studies_CogRes_Subjects_P00004218_S0001_ECF_r1_aECF_r1_P00004218_S0001_nii</title>
<ellipse fill="#fffc87" stroke="#808080" cx="7481" cy="-450" rx="386.721" ry="18"/>
<text text-anchor="middle" x="7481" y="-444.4" font-family="Times,serif" font-size="14.00">/share/data/studies/CogRes/Subjects/P00004218/S0001/ECF_r1/aECF_r1_P00004218_S0001.nii</text>
</g>
<!-- n_share_data_studies_CogRes_Subjects_P00004218_S0001_ECF_r1_aECF_r1_P00004218_S0001_nii&#45;&gt;nmatlabbatch1_spm_spatial_normalise_write_subj_resample -->
<g id="edge43" class="edge"><title>n_share_data_studies_CogRes_Subjects_P00004218_S0001_ECF_r1_aECF_r1_P00004218_S0001_nii&#45;&gt;nmatlabbatch1_spm_spatial_normalise_write_subj_resample</title>
<path fill="none" stroke="black" d="M7359.07,-467.103C7273.07,-478.462 7158.36,-493.613 7072.46,-504.958"/>
<polygon fill="black" stroke="black" points="7071.86,-501.507 7062.4,-506.287 7072.77,-508.447 7071.86,-501.507"/>
<text text-anchor="middle" x="7353.34" y="-477.764" font-family="Times,serif" font-size="8.00">use</text>
</g>
<!-- nann19 -->
<g id="node41" class="node"><title>nann19</title>
<polygon fill="none" stroke="gray" points="7619.5,-396 7336.5,-396 7336.5,-360 7625.5,-360 7625.5,-390 7619.5,-396"/>
<polyline fill="none" stroke="gray" points="7619.5,-396 7619.5,-390 "/>
<polyline fill="none" stroke="gray" points="7625.5,-390 7619.5,-390 "/>
<text text-anchor="start" x="7347" y="-379.5" font-family="Times,serif" font-size="10.00">type:</text>
<text text-anchor="start" x="7392" y="-379.5" font-family="Times,serif" font-size="10.00">ImageIndex</text>
<text text-anchor="start" x="7347" y="-367" font-family="Times,serif" font-size="10.00">structpath:</text>
<text text-anchor="start" x="7392" y="-367" font-family="Times,serif" font-size="10.00">matlabbatch1.spm.spatial.normalise.write.subj.resample</text>
</g>
<!-- nann19&#45;&gt;n_share_data_studies_CogRes_Subjects_P00004218_S0001_ECF_r1_aECF_r1_P00004218_S0001_nii -->
<g id="edge20" class="edge"><title>nann19&#45;&gt;n_share_data_studies_CogRes_Subjects_P00004218_S0001_ECF_r1_aECF_r1_P00004218_S0001_nii</title>
<path fill="none" stroke="gray" stroke-dasharray="5,2" d="M7481,-396.303C7481,-407.154 7481,-421.083 7481,-431.896"/>
</g>
<!-- n_share_data_studies_CogRes_Subjects_P00004218_S0001_ECF_r1_meanaECF_r1_P00004218_S0001_nii -->
<g id="node42" class="node"><title>n_share_data_studies_CogRes_Subjects_P00004218_S0001_ECF_r1_meanaECF_r1_P00004218_S0001_nii</title>
<ellipse fill="#fffc87" stroke="#808080" cx="8294" cy="-450" rx="407.546" ry="18"/>
<text text-anchor="middle" x="8294" y="-444.4" font-family="Times,serif" font-size="14.00">/share/data/studies/CogRes/Subjects/P00004218/S0001/ECF_r1/meanaECF_r1_P00004218_S0001.nii</text>
</g>
<!-- n_share_data_studies_CogRes_Subjects_P00004218_S0001_ECF_r1_meanaECF_r1_P00004218_S0001_nii&#45;&gt;nmatlabbatch1_spm_spatial_normalise_write_subj_resample -->
<g id="edge44" class="edge"><title>n_share_data_studies_CogRes_Subjects_P00004218_S0001_ECF_r1_meanaECF_r1_P00004218_S0001_nii&#45;&gt;nmatlabbatch1_spm_spatial_normalise_write_subj_resample</title>
<path fill="none" stroke="black" d="M8041.79,-464.146C7781.63,-477.706 7381.5,-498.561 7145.03,-510.887"/>
<polygon fill="black" stroke="black" points="7144.75,-507.397 7134.94,-511.412 7145.11,-514.387 7144.75,-507.397"/>
<text text-anchor="middle" x="8034.97" y="-474.309" font-family="Times,serif" font-size="8.00">use</text>
</g>
<!-- nann20 -->
<g id="node43" class="node"><title>nann20</title>
<polygon fill="none" stroke="gray" points="8432.5,-396 8149.5,-396 8149.5,-360 8438.5,-360 8438.5,-390 8432.5,-396"/>
<polyline fill="none" stroke="gray" points="8432.5,-396 8432.5,-390 "/>
<polyline fill="none" stroke="gray" points="8438.5,-390 8432.5,-390 "/>
<text text-anchor="start" x="8160" y="-379.5" font-family="Times,serif" font-size="10.00">type:</text>
<text text-anchor="start" x="8205" y="-379.5" font-family="Times,serif" font-size="10.00">ImageIndex</text>
<text text-anchor="start" x="8160" y="-367" font-family="Times,serif" font-size="10.00">structpath:</text>
<text text-anchor="start" x="8205" y="-367" font-family="Times,serif" font-size="10.00">matlabbatch1.spm.spatial.normalise.write.subj.resample</text>
</g>
<!-- nann20&#45;&gt;n_share_data_studies_CogRes_Subjects_P00004218_S0001_ECF_r1_meanaECF_r1_P00004218_S0001_nii -->
<g id="edge21" class="edge"><title>nann20&#45;&gt;n_share_data_studies_CogRes_Subjects_P00004218_S0001_ECF_r1_meanaECF_r1_P00004218_S0001_nii</title>
<path fill="none" stroke="gray" stroke-dasharray="5,2" d="M8294,-396.303C8294,-407.154 8294,-421.083 8294,-431.896"/>
</g>
<!-- n_share_data_studies_CogRes_Subjects_P00004218_S0001_ECF_r2_aECF_r2_P00004218_S0001_nii -->
<g id="node44" class="node"><title>n_share_data_studies_CogRes_Subjects_P00004218_S0001_ECF_r2_aECF_r2_P00004218_S0001_nii</title>
<ellipse fill="#fffc87" stroke="#808080" cx="6421" cy="-450" rx="386.721" ry="18"/>
<text text-anchor="middle" x="6421" y="-444.4" font-family="Times,serif" font-size="14.00">/share/data/studies/CogRes/Subjects/P00004218/S0001/ECF_r2/aECF_r2_P00004218_S0001.nii</text>
</g>
<!-- n_share_data_studies_CogRes_Subjects_P00004218_S0001_ECF_r2_aECF_r2_P00004218_S0001_nii&#45;&gt;nmatlabbatch1_spm_spatial_normalise_write_subj_resample -->
<g id="edge45" class="edge"><title>n_share_data_studies_CogRes_Subjects_P00004218_S0001_ECF_r2_aECF_r2_P00004218_S0001_nii&#45;&gt;nmatlabbatch1_spm_spatial_normalise_write_subj_resample</title>
<path fill="none" stroke="black" d="M6542.93,-467.103C6628.93,-478.462 6743.64,-493.613 6829.54,-504.958"/>
<polygon fill="black" stroke="black" points="6829.23,-508.447 6839.6,-506.287 6830.14,-501.507 6829.23,-508.447"/>
<text text-anchor="middle" x="6552.06" y="-452.007" font-family="Times,serif" font-size="8.00">use</text>
</g>
<!-- nann21 -->
<g id="node45" class="node"><title>nann21</title>
<polygon fill="none" stroke="gray" points="6559.5,-396 6276.5,-396 6276.5,-360 6565.5,-360 6565.5,-390 6559.5,-396"/>
<polyline fill="none" stroke="gray" points="6559.5,-396 6559.5,-390 "/>
<polyline fill="none" stroke="gray" points="6565.5,-390 6559.5,-390 "/>
<text text-anchor="start" x="6287" y="-379.5" font-family="Times,serif" font-size="10.00">type:</text>
<text text-anchor="start" x="6332" y="-379.5" font-family="Times,serif" font-size="10.00">ImageIndex</text>
<text text-anchor="start" x="6287" y="-367" font-family="Times,serif" font-size="10.00">structpath:</text>
<text text-anchor="start" x="6332" y="-367" font-family="Times,serif" font-size="10.00">matlabbatch1.spm.spatial.normalise.write.subj.resample</text>
</g>
<!-- nann21&#45;&gt;n_share_data_studies_CogRes_Subjects_P00004218_S0001_ECF_r2_aECF_r2_P00004218_S0001_nii -->
<g id="edge22" class="edge"><title>nann21&#45;&gt;n_share_data_studies_CogRes_Subjects_P00004218_S0001_ECF_r2_aECF_r2_P00004218_S0001_nii</title>
<path fill="none" stroke="gray" stroke-dasharray="5,2" d="M6421,-396.303C6421,-407.154 6421,-421.083 6421,-431.896"/>
</g>
</g>
</svg>
