<?xml version="1.0" encoding="UTF-8" standalone="no"?>
<!DOCTYPE svg PUBLIC "-//W3C//DTD SVG 1.1//EN"
 "http://www.w3.org/Graphics/SVG/1.1/DTD/svg11.dtd">
<!-- Generated by graphviz version 2.30.0 (20130114.0426)
 -->
<!-- Title: PROV Pages: 1 -->
<svg width="1152pt" height="100pt"
 viewBox="0.00 0.00 1152.00 100.07" xmlns="http://www.w3.org/2000/svg" xmlns:xlink="http://www.w3.org/1999/xlink">
<g id="graph0" class="graph" transform="scale(0.247689 0.247689) rotate(0) translate(4 400)">
<title>PROV</title>
<polygon fill="white" stroke="white" points="-4,5 -4,-400 4648,-400 4648,5 -4,5"/>
<!-- nmatlabbatch -->
<g id="node1" class="node"><title>nmatlabbatch</title>
<ellipse fill="#fffc87" stroke="#808080" cx="2050" cy="-18" rx="58.4555" ry="18"/>
<text text-anchor="middle" x="2050" y="-12.4" font-family="Times,serif" font-size="14.00">matlabbatch</text>
</g>
<!-- nmatlabbatch1 -->
<g id="node2" class="node"><title>nmatlabbatch1</title>
<ellipse fill="#fffc87" stroke="#808080" cx="2050" cy="-90" rx="63.1116" ry="18"/>
<text text-anchor="middle" x="2050" y="-84.4" font-family="Times,serif" font-size="14.00">matlabbatch1</text>
</g>
<!-- nmatlabbatch&#45;&gt;nmatlabbatch1 -->
<g id="edge14" class="edge"><title>nmatlabbatch&#45;&gt;nmatlabbatch1</title>
<path fill="none" stroke="black" d="M2050,-36.3034C2050,-44.0173 2050,-53.2875 2050,-61.8876"/>
<polygon fill="black" stroke="black" points="2046.5,-61.8956 2050,-71.8957 2053.5,-61.8957 2046.5,-61.8956"/>
<text text-anchor="middle" x="2062.99" y="-40.6034" font-family="Times,serif" font-size="8.00">use</text>
</g>
<!-- nmatlabbatch1_spm -->
<g id="node3" class="node"><title>nmatlabbatch1_spm</title>
<ellipse fill="#fffc87" stroke="#808080" cx="2120" cy="-162" rx="81.6361" ry="18"/>
<text text-anchor="middle" x="2120" y="-156.4" font-family="Times,serif" font-size="14.00">matlabbatch1.spm</text>
</g>
<!-- nmatlabbatch1&#45;&gt;nmatlabbatch1_spm -->
<g id="edge15" class="edge"><title>nmatlabbatch1&#45;&gt;nmatlabbatch1_spm</title>
<path fill="none" stroke="black" d="M2066.59,-107.589C2075.35,-116.352 2086.27,-127.268 2095.94,-136.943"/>
<polygon fill="black" stroke="black" points="2093.5,-139.448 2103.04,-144.044 2098.45,-134.498 2093.5,-139.448"/>
<text text-anchor="middle" x="2081.08" y="-100.507" font-family="Times,serif" font-size="8.00">use</text>
</g>
<!-- nmatlabbatch1_spm_temporal -->
<g id="node5" class="node"><title>nmatlabbatch1_spm_temporal</title>
<ellipse fill="#fffc87" stroke="#808080" cx="2205" cy="-234" rx="118.11" ry="18"/>
<text text-anchor="middle" x="2205" y="-228.4" font-family="Times,serif" font-size="14.00">matlabbatch1.spm.temporal</text>
</g>
<!-- nmatlabbatch1_spm&#45;&gt;nmatlabbatch1_spm_temporal -->
<g id="edge16" class="edge"><title>nmatlabbatch1_spm&#45;&gt;nmatlabbatch1_spm_temporal</title>
<path fill="none" stroke="black" d="M2140.14,-179.589C2150.99,-188.524 2164.56,-199.697 2176.48,-209.511"/>
<polygon fill="black" stroke="black" points="2174.47,-212.388 2184.41,-216.044 2178.92,-206.985 2174.47,-212.388"/>
<text text-anchor="middle" x="2154.19" y="-171.129" font-family="Times,serif" font-size="8.00">use</text>
</g>
<!-- nann0 -->
<g id="node4" class="node"><title>nann0</title>
<polygon fill="none" stroke="gray" points="2243,-108 2131,-108 2131,-72 2249,-72 2249,-102 2243,-108"/>
<polyline fill="none" stroke="gray" points="2243,-108 2243,-102 "/>
<polyline fill="none" stroke="gray" points="2249,-102 2243,-102 "/>
<text text-anchor="start" x="2141" y="-91.5" font-family="Times,serif" font-size="10.00">type:</text>
<text text-anchor="start" x="2186" y="-91.5" font-family="Times,serif" font-size="10.00">bundle</text>
<text text-anchor="start" x="2141" y="-79" font-family="Times,serif" font-size="10.00">structpath:</text>
<text text-anchor="start" x="2186" y="-79" font-family="Times,serif" font-size="10.00">matlabbatch1</text>
</g>
<!-- nann0&#45;&gt;nmatlabbatch1_spm -->
<g id="edge1" class="edge"><title>nann0&#45;&gt;nmatlabbatch1_spm</title>
<path fill="none" stroke="gray" stroke-dasharray="5,2" d="M2172.7,-108.303C2161.68,-119.316 2147.5,-133.5 2136.62,-144.378"/>
</g>
<!-- nmatlabbatch1_spm_temporal_st -->
<g id="node7" class="node"><title>nmatlabbatch1_spm_temporal_st</title>
<ellipse fill="#fffc87" stroke="#808080" cx="2317" cy="-306" rx="127.321" ry="18"/>
<text text-anchor="middle" x="2317" y="-300.4" font-family="Times,serif" font-size="14.00">matlabbatch1.spm.temporal.st</text>
</g>
<!-- nmatlabbatch1_spm_temporal&#45;&gt;nmatlabbatch1_spm_temporal_st -->
<g id="edge17" class="edge"><title>nmatlabbatch1_spm_temporal&#45;&gt;nmatlabbatch1_spm_temporal_st</title>
<path fill="none" stroke="black" d="M2231.54,-251.589C2246.5,-260.936 2265.37,-272.732 2281.57,-282.859"/>
<polygon fill="black" stroke="black" points="2279.92,-285.955 2290.26,-288.287 2283.63,-280.019 2279.92,-285.955"/>
<text text-anchor="middle" x="2244.79" y="-241.348" font-family="Times,serif" font-size="8.00">use</text>
</g>
<!-- nann1 -->
<g id="node6" class="node"><title>nann1</title>
<polygon fill="none" stroke="gray" points="2352,-180 2220,-180 2220,-144 2358,-144 2358,-174 2352,-180"/>
<polyline fill="none" stroke="gray" points="2352,-180 2352,-174 "/>
<polyline fill="none" stroke="gray" points="2358,-174 2352,-174 "/>
<text text-anchor="start" x="2230" y="-163.5" font-family="Times,serif" font-size="10.00">type:</text>
<text text-anchor="start" x="2275" y="-163.5" font-family="Times,serif" font-size="10.00">bundle</text>
<text text-anchor="start" x="2230" y="-151" font-family="Times,serif" font-size="10.00">structpath:</text>
<text text-anchor="start" x="2275" y="-151" font-family="Times,serif" font-size="10.00">matlabbatch1.spm</text>
</g>
<!-- nann1&#45;&gt;nmatlabbatch1_spm_temporal -->
<g id="edge2" class="edge"><title>nann1&#45;&gt;nmatlabbatch1_spm_temporal</title>
<path fill="none" stroke="gray" stroke-dasharray="5,2" d="M2268.24,-180.303C2255.12,-191.235 2238.25,-205.291 2225.24,-216.137"/>
</g>
<!-- nmatlabbatch1_spm_temporal_st_scans -->
<g id="node9" class="node"><title>nmatlabbatch1_spm_temporal_st_scans</title>
<ellipse fill="#fffc87" stroke="#808080" cx="976" cy="-378" rx="150.483" ry="18"/>
<text text-anchor="middle" x="976" y="-372.4" font-family="Times,serif" font-size="14.00">matlabbatch1.spm.temporal.st.scans</text>
</g>
<!-- nmatlabbatch1_spm_temporal_st&#45;&gt;nmatlabbatch1_spm_temporal_st_scans -->
<g id="edge18" class="edge"><title>nmatlabbatch1_spm_temporal_st&#45;&gt;nmatlabbatch1_spm_temporal_st_scans</title>
<path fill="none" stroke="black" d="M2228.67,-319.007C2212.5,-320.906 2195.76,-322.677 2180,-324 1805.32,-355.443 1363.39,-368.858 1133.25,-374.062"/>
<polygon fill="black" stroke="black" points="1133.04,-370.565 1123.12,-374.288 1133.2,-377.564 1133.04,-370.565"/>
<text text-anchor="middle" x="2222.72" y="-329.576" font-family="Times,serif" font-size="8.00">use</text>
</g>
<!-- nmatlabbatch1_spm_temporal_st_nslices -->
<g id="node11" class="node"><title>nmatlabbatch1_spm_temporal_st_nslices</title>
<ellipse fill="#fffc87" stroke="#808080" cx="1857" cy="-378" rx="155.715" ry="18"/>
<text text-anchor="middle" x="1857" y="-372.4" font-family="Times,serif" font-size="14.00">matlabbatch1.spm.temporal.st.nslices</text>
</g>
<!-- nmatlabbatch1_spm_temporal_st&#45;&gt;nmatlabbatch1_spm_temporal_st_nslices -->
<g id="edge19" class="edge"><title>nmatlabbatch1_spm_temporal_st&#45;&gt;nmatlabbatch1_spm_temporal_st_nslices</title>
<path fill="none" stroke="black" d="M2233.96,-319.636C2156.25,-331.462 2040.02,-349.148 1957.19,-361.753"/>
<polygon fill="black" stroke="black" points="1956.62,-358.3 1947.26,-363.264 1957.68,-365.22 1956.62,-358.3"/>
<text text-anchor="middle" x="2228.5" y="-330.407" font-family="Times,serif" font-size="8.00">use</text>
</g>
<!-- nmatlabbatch1_spm_temporal_st_tr -->
<g id="node13" class="node"><title>nmatlabbatch1_spm_temporal_st_tr</title>
<ellipse fill="#fffc87" stroke="#808080" cx="2166" cy="-378" rx="135.447" ry="18"/>
<text text-anchor="middle" x="2166" y="-372.4" font-family="Times,serif" font-size="14.00">matlabbatch1.spm.temporal.st.tr</text>
</g>
<!-- nmatlabbatch1_spm_temporal_st&#45;&gt;nmatlabbatch1_spm_temporal_st_tr -->
<g id="edge20" class="edge"><title>nmatlabbatch1_spm_temporal_st&#45;&gt;nmatlabbatch1_spm_temporal_st_tr</title>
<path fill="none" stroke="black" d="M2281.6,-323.412C2260.38,-333.25 2233.2,-345.848 2210.53,-356.358"/>
<polygon fill="black" stroke="black" points="2209.04,-353.189 2201.44,-360.57 2211.99,-359.539 2209.04,-353.189"/>
<text text-anchor="middle" x="2280.26" y="-335.152" font-family="Times,serif" font-size="8.00">use</text>
</g>
<!-- nmatlabbatch1_spm_temporal_st_ta -->
<g id="node15" class="node"><title>nmatlabbatch1_spm_temporal_st_ta</title>
<ellipse fill="#fffc87" stroke="#808080" cx="2456" cy="-378" rx="136.588" ry="18"/>
<text text-anchor="middle" x="2456" y="-372.4" font-family="Times,serif" font-size="14.00">matlabbatch1.spm.temporal.st.ta</text>
</g>
<!-- nmatlabbatch1_spm_temporal_st&#45;&gt;nmatlabbatch1_spm_temporal_st_ta -->
<g id="edge21" class="edge"><title>nmatlabbatch1_spm_temporal_st&#45;&gt;nmatlabbatch1_spm_temporal_st_ta</title>
<path fill="none" stroke="black" d="M2349.59,-323.412C2368.79,-333.084 2393.3,-345.423 2413.95,-355.823"/>
<polygon fill="black" stroke="black" points="2412.63,-359.077 2423.13,-360.448 2415.78,-352.825 2412.63,-359.077"/>
<text text-anchor="middle" x="2362.13" y="-311.983" font-family="Times,serif" font-size="8.00">use</text>
</g>
<!-- nmatlabbatch1_spm_temporal_st_refslice -->
<g id="node17" class="node"><title>nmatlabbatch1_spm_temporal_st_refslice</title>
<ellipse fill="#fffc87" stroke="#808080" cx="2769" cy="-378" rx="157.978" ry="18"/>
<text text-anchor="middle" x="2769" y="-372.4" font-family="Times,serif" font-size="14.00">matlabbatch1.spm.temporal.st.refslice</text>
</g>
<!-- nmatlabbatch1_spm_temporal_st&#45;&gt;nmatlabbatch1_spm_temporal_st_refslice -->
<g id="edge22" class="edge"><title>nmatlabbatch1_spm_temporal_st&#45;&gt;nmatlabbatch1_spm_temporal_st_refslice</title>
<path fill="none" stroke="black" d="M2399.38,-319.758C2475.32,-331.519 2588.21,-349.001 2669.23,-361.549"/>
<polygon fill="black" stroke="black" points="2669.03,-365.059 2679.45,-363.131 2670.1,-358.142 2669.03,-365.059"/>
<text text-anchor="middle" x="2408.78" y="-304.868" font-family="Times,serif" font-size="8.00">use</text>
</g>
<!-- nmatlabbatch1_spm_temporal_st_prefix -->
<g id="node19" class="node"><title>nmatlabbatch1_spm_temporal_st_prefix</title>
<ellipse fill="#fffc87" stroke="#808080" cx="3283" cy="-378" rx="152.209" ry="18"/>
<text text-anchor="middle" x="3283" y="-372.4" font-family="Times,serif" font-size="14.00">matlabbatch1.spm.temporal.st.prefix</text>
</g>
<!-- nmatlabbatch1_spm_temporal_st&#45;&gt;nmatlabbatch1_spm_temporal_st_prefix -->
<g id="edge23" class="edge"><title>nmatlabbatch1_spm_temporal_st&#45;&gt;nmatlabbatch1_spm_temporal_st_prefix</title>
<path fill="none" stroke="black" d="M2405.8,-318.886C2421.51,-320.764 2437.72,-322.558 2453,-324 2690.43,-346.399 2966.99,-361.957 3133.35,-370.178"/>
<polygon fill="black" stroke="black" points="3133.49,-373.689 3143.65,-370.684 3133.83,-366.697 3133.49,-373.689"/>
<text text-anchor="middle" x="2414.78" y="-303.67" font-family="Times,serif" font-size="8.00">use</text>
</g>
<!-- nann2 -->
<g id="node8" class="node"><title>nann2</title>
<polygon fill="none" stroke="gray" points="2511,-252 2341,-252 2341,-216 2517,-216 2517,-246 2511,-252"/>
<polyline fill="none" stroke="gray" points="2511,-252 2511,-246 "/>
<polyline fill="none" stroke="gray" points="2517,-246 2511,-246 "/>
<text text-anchor="start" x="2351" y="-235.5" font-family="Times,serif" font-size="10.00">type:</text>
<text text-anchor="start" x="2396" y="-235.5" font-family="Times,serif" font-size="10.00">bundle</text>
<text text-anchor="start" x="2351" y="-223" font-family="Times,serif" font-size="10.00">structpath:</text>
<text text-anchor="start" x="2396" y="-223" font-family="Times,serif" font-size="10.00">matlabbatch1.spm.temporal</text>
</g>
<!-- nann2&#45;&gt;nmatlabbatch1_spm_temporal_st -->
<g id="edge3" class="edge"><title>nann2&#45;&gt;nmatlabbatch1_spm_temporal_st</title>
<path fill="none" stroke="gray" stroke-dasharray="5,2" d="M2401.6,-252.124C2383.99,-263.133 2361.21,-277.368 2343.73,-288.294"/>
</g>
<!-- nann3 -->
<g id="node10" class="node"><title>nann3</title>
<polygon fill="none" stroke="gray" points="178.5,-324 -0.5,-324 -0.5,-288 184.5,-288 184.5,-318 178.5,-324"/>
<polyline fill="none" stroke="gray" points="178.5,-324 178.5,-318 "/>
<polyline fill="none" stroke="gray" points="184.5,-318 178.5,-318 "/>
<text text-anchor="start" x="10" y="-307.5" font-family="Times,serif" font-size="10.00">type:</text>
<text text-anchor="start" x="55" y="-307.5" font-family="Times,serif" font-size="10.00">bundle</text>
<text text-anchor="start" x="10" y="-295" font-family="Times,serif" font-size="10.00">structpath:</text>
<text text-anchor="start" x="55" y="-295" font-family="Times,serif" font-size="10.00">matlabbatch1.spm.temporal.st</text>
</g>
<!-- nann3&#45;&gt;nmatlabbatch1_spm_temporal_st_scans -->
<g id="edge4" class="edge"><title>nann3&#45;&gt;nmatlabbatch1_spm_temporal_st_scans</title>
<path fill="none" stroke="gray" stroke-dasharray="5,2" d="M184.416,-322.932C187.308,-323.31 190.174,-323.667 193,-324 416.776,-350.34 678.19,-364.767 835.229,-371.68"/>
</g>
<!-- nann4 -->
<g id="node12" class="node"><title>nann4</title>
<polygon fill="none" stroke="gray" points="1947.5,-324 1768.5,-324 1768.5,-288 1953.5,-288 1953.5,-318 1947.5,-324"/>
<polyline fill="none" stroke="gray" points="1947.5,-324 1947.5,-318 "/>
<polyline fill="none" stroke="gray" points="1953.5,-318 1947.5,-318 "/>
<text text-anchor="start" x="1779" y="-307.5" font-family="Times,serif" font-size="10.00">type:</text>
<text text-anchor="start" x="1824" y="-307.5" font-family="Times,serif" font-size="10.00">spm:parameter</text>
<text text-anchor="start" x="1779" y="-295" font-family="Times,serif" font-size="10.00">structpath:</text>
<text text-anchor="start" x="1824" y="-295" font-family="Times,serif" font-size="10.00">matlabbatch1.spm.temporal.st</text>
</g>
<!-- nann4&#45;&gt;nmatlabbatch1_spm_temporal_st_nslices -->
<g id="edge5" class="edge"><title>nann4&#45;&gt;nmatlabbatch1_spm_temporal_st_nslices</title>
<path fill="none" stroke="gray" stroke-dasharray="5,2" d="M1860.01,-324.303C1859.39,-335.154 1858.6,-349.083 1857.98,-359.896"/>
</g>
<!-- nann5 -->
<g id="node14" class="node"><title>nann5</title>
<polygon fill="none" stroke="gray" points="2165.5,-324 1986.5,-324 1986.5,-288 2171.5,-288 2171.5,-318 2165.5,-324"/>
<polyline fill="none" stroke="gray" points="2165.5,-324 2165.5,-318 "/>
<polyline fill="none" stroke="gray" points="2171.5,-318 2165.5,-318 "/>
<text text-anchor="start" x="1997" y="-307.5" font-family="Times,serif" font-size="10.00">type:</text>
<text text-anchor="start" x="2042" y="-307.5" font-family="Times,serif" font-size="10.00">spm:parameter</text>
<text text-anchor="start" x="1997" y="-295" font-family="Times,serif" font-size="10.00">structpath:</text>
<text text-anchor="start" x="2042" y="-295" font-family="Times,serif" font-size="10.00">matlabbatch1.spm.temporal.st</text>
</g>
<!-- nann5&#45;&gt;nmatlabbatch1_spm_temporal_st_tr -->
<g id="edge6" class="edge"><title>nann5&#45;&gt;nmatlabbatch1_spm_temporal_st_tr</title>
<path fill="none" stroke="gray" stroke-dasharray="5,2" d="M2100.51,-324.303C2114.09,-335.235 2131.56,-349.291 2145.04,-360.137"/>
</g>
<!-- nann6 -->
<g id="node16" class="node"><title>nann6</title>
<polygon fill="none" stroke="gray" points="2641.5,-324 2462.5,-324 2462.5,-288 2647.5,-288 2647.5,-318 2641.5,-324"/>
<polyline fill="none" stroke="gray" points="2641.5,-324 2641.5,-318 "/>
<polyline fill="none" stroke="gray" points="2647.5,-318 2641.5,-318 "/>
<text text-anchor="start" x="2473" y="-307.5" font-family="Times,serif" font-size="10.00">type:</text>
<text text-anchor="start" x="2518" y="-307.5" font-family="Times,serif" font-size="10.00">spm:parameter</text>
<text text-anchor="start" x="2473" y="-295" font-family="Times,serif" font-size="10.00">structpath:</text>
<text text-anchor="start" x="2518" y="-295" font-family="Times,serif" font-size="10.00">matlabbatch1.spm.temporal.st</text>
</g>
<!-- nann6&#45;&gt;nmatlabbatch1_spm_temporal_st_ta -->
<g id="edge7" class="edge"><title>nann6&#45;&gt;nmatlabbatch1_spm_temporal_st_ta</title>
<path fill="none" stroke="gray" stroke-dasharray="5,2" d="M2530.78,-324.124C2515.33,-335.052 2495.38,-349.159 2479.97,-360.053"/>
</g>
<!-- nann7 -->
<g id="node18" class="node"><title>nann7</title>
<polygon fill="none" stroke="gray" points="2851.5,-324 2672.5,-324 2672.5,-288 2857.5,-288 2857.5,-318 2851.5,-324"/>
<polyline fill="none" stroke="gray" points="2851.5,-324 2851.5,-318 "/>
<polyline fill="none" stroke="gray" points="2857.5,-318 2851.5,-318 "/>
<text text-anchor="start" x="2683" y="-307.5" font-family="Times,serif" font-size="10.00">type:</text>
<text text-anchor="start" x="2728" y="-307.5" font-family="Times,serif" font-size="10.00">spm:parameter</text>
<text text-anchor="start" x="2683" y="-295" font-family="Times,serif" font-size="10.00">structpath:</text>
<text text-anchor="start" x="2728" y="-295" font-family="Times,serif" font-size="10.00">matlabbatch1.spm.temporal.st</text>
</g>
<!-- nann7&#45;&gt;nmatlabbatch1_spm_temporal_st_refslice -->
<g id="edge8" class="edge"><title>nann7&#45;&gt;nmatlabbatch1_spm_temporal_st_refslice</title>
<path fill="none" stroke="gray" stroke-dasharray="5,2" d="M2765.99,-324.303C2766.61,-335.154 2767.4,-349.083 2768.02,-359.896"/>
</g>
<!-- nann8 -->
<g id="node20" class="node"><title>nann8</title>
<polygon fill="none" stroke="gray" points="3054.5,-324 2875.5,-324 2875.5,-288 3060.5,-288 3060.5,-318 3054.5,-324"/>
<polyline fill="none" stroke="gray" points="3054.5,-324 3054.5,-318 "/>
<polyline fill="none" stroke="gray" points="3060.5,-318 3054.5,-318 "/>
<text text-anchor="start" x="2886" y="-307.5" font-family="Times,serif" font-size="10.00">type:</text>
<text text-anchor="start" x="2931" y="-307.5" font-family="Times,serif" font-size="10.00">spm:parameter</text>
<text text-anchor="start" x="2886" y="-295" font-family="Times,serif" font-size="10.00">structpath:</text>
<text text-anchor="start" x="2931" y="-295" font-family="Times,serif" font-size="10.00">matlabbatch1.spm.temporal.st</text>
</g>
<!-- nann8&#45;&gt;nmatlabbatch1_spm_temporal_st_prefix -->
<g id="edge9" class="edge"><title>nann8&#45;&gt;nmatlabbatch1_spm_temporal_st_prefix</title>
<path fill="none" stroke="gray" stroke-dasharray="5,2" d="M3044.65,-324.034C3096.65,-335.588 3164.77,-350.726 3214.86,-361.858"/>
</g>
<!-- n_share_data_studies_CogRes_Subjects_P00004218_S0001_ECF_r1_aECF_r1_P00004218_S0001_nii -->
<g id="node21" class="node"><title>n_share_data_studies_CogRes_Subjects_P00004218_S0001_ECF_r1_aECF_r1_P00004218_S0001_nii</title>
<ellipse fill="#fffc87" stroke="#808080" cx="3465" cy="-306" rx="386.721" ry="18"/>
<text text-anchor="middle" x="3465" y="-300.4" font-family="Times,serif" font-size="14.00">/share/data/studies/CogRes/Subjects/P00004218/S0001/ECF_r1/aECF_r1_P00004218_S0001.nii</text>
</g>
<!-- n_share_data_studies_CogRes_Subjects_P00004218_S0001_ECF_r1_aECF_r1_P00004218_S0001_nii&#45;&gt;nmatlabbatch1_spm_temporal_st_prefix -->
<g id="edge24" class="edge"><title>n_share_data_studies_CogRes_Subjects_P00004218_S0001_ECF_r1_aECF_r1_P00004218_S0001_nii&#45;&gt;nmatlabbatch1_spm_temporal_st_prefix</title>
<path fill="none" stroke="black" d="M3420.94,-323.945C3394.97,-333.935 3361.97,-346.627 3334.76,-357.092"/>
<polygon fill="black" stroke="black" points="3333.48,-353.836 3325.4,-360.693 3335.99,-360.37 3333.48,-353.836"/>
<text text-anchor="middle" x="3418.61" y="-335.562" font-family="Times,serif" font-size="8.00">der</text>
</g>
<!-- nann9 -->
<g id="node22" class="node"><title>nann9</title>
<polygon fill="none" stroke="gray" points="3564.5,-252 3359.5,-252 3359.5,-216 3570.5,-216 3570.5,-246 3564.5,-252"/>
<polyline fill="none" stroke="gray" points="3564.5,-252 3564.5,-246 "/>
<polyline fill="none" stroke="gray" points="3570.5,-246 3564.5,-246 "/>
<text text-anchor="start" x="3370" y="-235.5" font-family="Times,serif" font-size="10.00">type:</text>
<text text-anchor="start" x="3415" y="-235.5" font-family="Times,serif" font-size="10.00">ImageIndex</text>
<text text-anchor="start" x="3370" y="-223" font-family="Times,serif" font-size="10.00">structpath:</text>
<text text-anchor="start" x="3415" y="-223" font-family="Times,serif" font-size="10.00">matlabbatch1.spm.temporal.st.prefix</text>
</g>
<!-- nann9&#45;&gt;n_share_data_studies_CogRes_Subjects_P00004218_S0001_ECF_r1_aECF_r1_P00004218_S0001_nii -->
<g id="edge10" class="edge"><title>nann9&#45;&gt;n_share_data_studies_CogRes_Subjects_P00004218_S0001_ECF_r1_aECF_r1_P00004218_S0001_nii</title>
<path fill="none" stroke="gray" stroke-dasharray="5,2" d="M3465,-252.303C3465,-263.154 3465,-277.083 3465,-287.896"/>
</g>
<!-- n_share_data_studies_CogRes_Subjects_P00004218_S0001_ECF_r2_aECF_r2_P00004218_S0001_nii -->
<g id="node23" class="node"><title>n_share_data_studies_CogRes_Subjects_P00004218_S0001_ECF_r2_aECF_r2_P00004218_S0001_nii</title>
<ellipse fill="#fffc87" stroke="#808080" cx="4257" cy="-306" rx="386.721" ry="18"/>
<text text-anchor="middle" x="4257" y="-300.4" font-family="Times,serif" font-size="14.00">/share/data/studies/CogRes/Subjects/P00004218/S0001/ECF_r2/aECF_r2_P00004218_S0001.nii</text>
</g>
<!-- n_share_data_studies_CogRes_Subjects_P00004218_S0001_ECF_r2_aECF_r2_P00004218_S0001_nii&#45;&gt;nmatlabbatch1_spm_temporal_st_prefix -->
<g id="edge25" class="edge"><title>n_share_data_studies_CogRes_Subjects_P00004218_S0001_ECF_r2_aECF_r2_P00004218_S0001_nii&#45;&gt;nmatlabbatch1_spm_temporal_st_prefix</title>
<path fill="none" stroke="black" d="M4056.66,-321.398C3866.32,-335.077 3585.27,-355.276 3419.49,-367.191"/>
<polygon fill="black" stroke="black" points="3418.95,-363.72 3409.23,-367.928 3419.45,-370.702 3418.95,-363.72"/>
<text text-anchor="middle" x="4050.11" y="-331.693" font-family="Times,serif" font-size="8.00">der</text>
</g>
<!-- nann10 -->
<g id="node24" class="node"><title>nann10</title>
<polygon fill="none" stroke="gray" points="4356.5,-252 4151.5,-252 4151.5,-216 4362.5,-216 4362.5,-246 4356.5,-252"/>
<polyline fill="none" stroke="gray" points="4356.5,-252 4356.5,-246 "/>
<polyline fill="none" stroke="gray" points="4362.5,-246 4356.5,-246 "/>
<text text-anchor="start" x="4162" y="-235.5" font-family="Times,serif" font-size="10.00">type:</text>
<text text-anchor="start" x="4207" y="-235.5" font-family="Times,serif" font-size="10.00">ImageIndex</text>
<text text-anchor="start" x="4162" y="-223" font-family="Times,serif" font-size="10.00">structpath:</text>
<text text-anchor="start" x="4207" y="-223" font-family="Times,serif" font-size="10.00">matlabbatch1.spm.temporal.st.prefix</text>
</g>
<!-- nann10&#45;&gt;n_share_data_studies_CogRes_Subjects_P00004218_S0001_ECF_r2_aECF_r2_P00004218_S0001_nii -->
<g id="edge11" class="edge"><title>nann10&#45;&gt;n_share_data_studies_CogRes_Subjects_P00004218_S0001_ECF_r2_aECF_r2_P00004218_S0001_nii</title>
<path fill="none" stroke="gray" stroke-dasharray="5,2" d="M4257,-252.303C4257,-263.154 4257,-277.083 4257,-287.896"/>
</g>
<!-- n_share_data_studies_CogRes_Subjects_P00004218_S0001_ECF_r1_ECF_r1_P00004218_S0001_nii -->
<g id="node25" class="node"><title>n_share_data_studies_CogRes_Subjects_P00004218_S0001_ECF_r1_ECF_r1_P00004218_S0001_nii</title>
<ellipse fill="#fffc87" stroke="#808080" cx="585" cy="-306" rx="382.649" ry="18"/>
<text text-anchor="middle" x="585" y="-300.4" font-family="Times,serif" font-size="14.00">/share/data/studies/CogRes/Subjects/P00004218/S0001/ECF_r1/ECF_r1_P00004218_S0001.nii</text>
</g>
<!-- n_share_data_studies_CogRes_Subjects_P00004218_S0001_ECF_r1_ECF_r1_P00004218_S0001_nii&#45;&gt;nmatlabbatch1_spm_temporal_st_scans -->
<g id="edge26" class="edge"><title>n_share_data_studies_CogRes_Subjects_P00004218_S0001_ECF_r1_ECF_r1_P00004218_S0001_nii&#45;&gt;nmatlabbatch1_spm_temporal_st_scans</title>
<path fill="none" stroke="black" d="M677.166,-323.5C740.281,-334.8 823.558,-349.709 886.167,-360.917"/>
<polygon fill="black" stroke="black" points="885.572,-364.366 896.032,-362.683 886.805,-357.476 885.572,-364.366"/>
<text text-anchor="middle" x="686.838" y="-308.835" font-family="Times,serif" font-size="8.00">use</text>
</g>
<!-- nann11 -->
<g id="node26" class="node"><title>nann11</title>
<polygon fill="none" stroke="gray" points="683.5,-252 480.5,-252 480.5,-216 689.5,-216 689.5,-246 683.5,-252"/>
<polyline fill="none" stroke="gray" points="683.5,-252 683.5,-246 "/>
<polyline fill="none" stroke="gray" points="689.5,-246 683.5,-246 "/>
<text text-anchor="start" x="491" y="-235.5" font-family="Times,serif" font-size="10.00">type:</text>
<text text-anchor="start" x="536" y="-235.5" font-family="Times,serif" font-size="10.00">ImageIndex</text>
<text text-anchor="start" x="491" y="-223" font-family="Times,serif" font-size="10.00">structpath:</text>
<text text-anchor="start" x="536" y="-223" font-family="Times,serif" font-size="10.00">matlabbatch1.spm.temporal.st.scans</text>
</g>
<!-- nann11&#45;&gt;n_share_data_studies_CogRes_Subjects_P00004218_S0001_ECF_r1_ECF_r1_P00004218_S0001_nii -->
<g id="edge12" class="edge"><title>nann11&#45;&gt;n_share_data_studies_CogRes_Subjects_P00004218_S0001_ECF_r1_ECF_r1_P00004218_S0001_nii</title>
<path fill="none" stroke="gray" stroke-dasharray="5,2" d="M585,-252.303C585,-263.154 585,-277.083 585,-287.896"/>
</g>
<!-- n_share_data_studies_CogRes_Subjects_P00004218_S0001_ECF_r2_ECF_r2_P00004218_S0001_nii -->
<g id="node27" class="node"><title>n_share_data_studies_CogRes_Subjects_P00004218_S0001_ECF_r2_ECF_r2_P00004218_S0001_nii</title>
<ellipse fill="#fffc87" stroke="#808080" cx="1368" cy="-306" rx="382.649" ry="18"/>
<text text-anchor="middle" x="1368" y="-300.4" font-family="Times,serif" font-size="14.00">/share/data/studies/CogRes/Subjects/P00004218/S0001/ECF_r2/ECF_r2_P00004218_S0001.nii</text>
</g>
<!-- n_share_data_studies_CogRes_Subjects_P00004218_S0001_ECF_r2_ECF_r2_P00004218_S0001_nii&#45;&gt;nmatlabbatch1_spm_temporal_st_scans -->
<g id="edge27" class="edge"><title>n_share_data_studies_CogRes_Subjects_P00004218_S0001_ECF_r2_ECF_r2_P00004218_S0001_nii&#45;&gt;nmatlabbatch1_spm_temporal_st_scans</title>
<path fill="none" stroke="black" d="M1275.6,-323.5C1212.21,-334.819 1128.55,-349.759 1065.74,-360.974"/>
<polygon fill="black" stroke="black" points="1065.08,-357.538 1055.85,-362.741 1066.31,-364.429 1065.08,-357.538"/>
<text text-anchor="middle" x="1270.5" y="-334.407" font-family="Times,serif" font-size="8.00">use</text>
</g>
<!-- nann12 -->
<g id="node28" class="node"><title>nann12</title>
<polygon fill="none" stroke="gray" points="1466.5,-252 1263.5,-252 1263.5,-216 1472.5,-216 1472.5,-246 1466.5,-252"/>
<polyline fill="none" stroke="gray" points="1466.5,-252 1466.5,-246 "/>
<polyline fill="none" stroke="gray" points="1472.5,-246 1466.5,-246 "/>
<text text-anchor="start" x="1274" y="-235.5" font-family="Times,serif" font-size="10.00">type:</text>
<text text-anchor="start" x="1319" y="-235.5" font-family="Times,serif" font-size="10.00">ImageIndex</text>
<text text-anchor="start" x="1274" y="-223" font-family="Times,serif" font-size="10.00">structpath:</text>
<text text-anchor="start" x="1319" y="-223" font-family="Times,serif" font-size="10.00">matlabbatch1.spm.temporal.st.scans</text>
</g>
<!-- nann12&#45;&gt;n_share_data_studies_CogRes_Subjects_P00004218_S0001_ECF_r2_ECF_r2_P00004218_S0001_nii -->
<g id="edge13" class="edge"><title>nann12&#45;&gt;n_share_data_studies_CogRes_Subjects_P00004218_S0001_ECF_r2_ECF_r2_P00004218_S0001_nii</title>
<path fill="none" stroke="gray" stroke-dasharray="5,2" d="M1368,-252.303C1368,-263.154 1368,-277.083 1368,-287.896"/>
</g>
</g>
</svg>
