<?xml version="1.0" encoding="UTF-8" standalone="no"?>
<!DOCTYPE svg PUBLIC "-//W3C//DTD SVG 1.1//EN"
 "http://www.w3.org/Graphics/SVG/1.1/DTD/svg11.dtd">
<!-- Generated by graphviz version 2.30.0 (20130114.0426)
 -->
<!-- Title: PROV Pages: 1 -->
<svg width="1152pt" height="14pt"
 viewBox="0.00 0.00 1152.00 13.73" xmlns="http://www.w3.org/2000/svg" xmlns:xlink="http://www.w3.org/1999/xlink">
<g id="graph0" class="graph" transform="scale(0.0730408 0.0730408) rotate(0) translate(4 184)">
<title>PROV</title>
<polygon fill="white" stroke="white" points="-4,5 -4,-184 15769,-184 15769,5 -4,5"/>
<!-- nspm_spatial_preproc -->
<g id="node1" class="node"><title>nspm_spatial_preproc</title>
<polygon fill="#9fb1fc" stroke="#0000ff" points="3929.64,-108 3804.36,-108 3804.36,-72 3929.64,-72 3929.64,-108"/>
<text text-anchor="middle" x="3867" y="-84.4" font-family="Times,serif" font-size="14.00">spm.spatial.preproc</text>
</g>
<!-- ndata_1 -->
<g id="node8" class="node"><title>ndata_1</title>
<ellipse fill="#fffc87" stroke="#808080" cx="36" cy="-162" rx="36.5561" ry="18"/>
<text text-anchor="middle" x="36" y="-156.4" font-family="Times,serif" font-size="14.00">data_1</text>
</g>
<!-- nspm_spatial_preproc&#45;&gt;ndata_1 -->
<g id="edge2" class="edge"><title>nspm_spatial_preproc&#45;&gt;ndata_1</title>
<path fill="none" stroke="black" d="M3804.42,-91.2721C3326.86,-93.4235 272.546,-108.539 82,-144 78.7356,-144.608 75.3982,-145.424 72.0858,-146.373"/>
<polygon fill="black" stroke="black" points="70.757,-143.124 62.3218,-149.535 72.9137,-149.784 70.757,-143.124"/>
<text text-anchor="middle" x="3796.98" y="-101.099" font-family="Times,serif" font-size="8.00">use</text>
</g>
<!-- noutput_1 -->
<g id="node10" class="node"><title>noutput_1</title>
<ellipse fill="#fffc87" stroke="#808080" cx="136" cy="-162" rx="45.2471" ry="18"/>
<text text-anchor="middle" x="136" y="-156.4" font-family="Times,serif" font-size="14.00">output_1</text>
</g>
<!-- nspm_spatial_preproc&#45;&gt;noutput_1 -->
<g id="edge3" class="edge"><title>nspm_spatial_preproc&#45;&gt;noutput_1</title>
<path fill="none" stroke="black" d="M3804.67,-90.8083C3350.72,-89.5556 560.406,-84.3371 190,-144 186.073,-144.633 182.038,-145.49 178.028,-146.485"/>
<polygon fill="black" stroke="black" points="176.897,-143.166 168.184,-149.194 178.755,-149.915 176.897,-143.166"/>
<text text-anchor="middle" x="3797.14" y="-100.583" font-family="Times,serif" font-size="8.00">use</text>
</g>
<!-- n_share_data_studies_CogRes_Subjects_P00004218_S0001_T1_c1T1_P00004218_S0001_nii -->
<g id="node11" class="node"><title>n_share_data_studies_CogRes_Subjects_P00004218_S0001_T1_c1T1_P00004218_S0001_nii</title>
<ellipse fill="#fffc87" stroke="#808080" cx="551" cy="-162" rx="351.953" ry="18"/>
<text text-anchor="middle" x="551" y="-156.4" font-family="Times,serif" font-size="14.00">/share/data/studies/CogRes/Subjects/P00004218/S0001/T1/c1T1_P00004218_S0001.nii</text>
</g>
<!-- nspm_spatial_preproc&#45;&gt;n_share_data_studies_CogRes_Subjects_P00004218_S0001_T1_c1T1_P00004218_S0001_nii -->
<g id="edge4" class="edge"><title>nspm_spatial_preproc&#45;&gt;n_share_data_studies_CogRes_Subjects_P00004218_S0001_T1_c1T1_P00004218_S0001_nii</title>
<path fill="none" stroke="black" d="M3804.6,-91.445C3492.91,-93.8089 2073.57,-106.241 912,-144 875.734,-145.179 837.43,-146.693 799.86,-148.33"/>
<polygon fill="black" stroke="black" points="799.644,-144.836 789.807,-148.772 799.951,-151.829 799.644,-144.836"/>
<text text-anchor="middle" x="3797.21" y="-101.296" font-family="Times,serif" font-size="8.00">der</text>
</g>
<!-- n_share_data_studies_CogRes_Subjects_P00004218_S0001_T1_mwc1T1_P00004218_S0001_nii -->
<g id="node12" class="node"><title>n_share_data_studies_CogRes_Subjects_P00004218_S0001_T1_mwc1T1_P00004218_S0001_nii</title>
<ellipse fill="#fffc87" stroke="#808080" cx="1287" cy="-162" rx="366.424" ry="18"/>
<text text-anchor="middle" x="1287" y="-156.4" font-family="Times,serif" font-size="14.00">/share/data/studies/CogRes/Subjects/P00004218/S0001/T1/mwc1T1_P00004218_S0001.nii</text>
</g>
<!-- nspm_spatial_preproc&#45;&gt;n_share_data_studies_CogRes_Subjects_P00004218_S0001_T1_mwc1T1_P00004218_S0001_nii -->
<g id="edge5" class="edge"><title>nspm_spatial_preproc&#45;&gt;n_share_data_studies_CogRes_Subjects_P00004218_S0001_T1_mwc1T1_P00004218_S0001_nii</title>
<path fill="none" stroke="black" d="M3804.73,-92.0118C3543.53,-96.3579 2510.62,-114.569 1662,-144 1625.23,-145.275 1586.44,-146.815 1548.31,-148.44"/>
<polygon fill="black" stroke="black" points="1547.95,-144.952 1538.11,-148.878 1548.25,-151.946 1547.95,-144.952"/>
<text text-anchor="middle" x="3797.45" y="-101.928" font-family="Times,serif" font-size="8.00">der</text>
</g>
<!-- n_share_data_studies_CogRes_Subjects_P00004218_S0001_T1_wc1T1_P00004218_S0001_nii -->
<g id="node13" class="node"><title>n_share_data_studies_CogRes_Subjects_P00004218_S0001_T1_wc1T1_P00004218_S0001_nii</title>
<ellipse fill="#fffc87" stroke="#808080" cx="2030" cy="-162" rx="358.901" ry="18"/>
<text text-anchor="middle" x="2030" y="-156.4" font-family="Times,serif" font-size="14.00">/share/data/studies/CogRes/Subjects/P00004218/S0001/T1/wc1T1_P00004218_S0001.nii</text>
</g>
<!-- nspm_spatial_preproc&#45;&gt;n_share_data_studies_CogRes_Subjects_P00004218_S0001_T1_wc1T1_P00004218_S0001_nii -->
<g id="edge6" class="edge"><title>nspm_spatial_preproc&#45;&gt;n_share_data_studies_CogRes_Subjects_P00004218_S0001_T1_wc1T1_P00004218_S0001_nii</title>
<path fill="none" stroke="black" d="M3804.71,-93.0223C3602.03,-99.65 2943.03,-121.579 2398,-144 2363.25,-145.43 2326.65,-147.019 2290.56,-148.636"/>
<polygon fill="black" stroke="black" points="2290.23,-145.147 2280.4,-149.093 2290.54,-152.14 2290.23,-145.147"/>
<text text-anchor="middle" x="3797.64" y="-103.052" font-family="Times,serif" font-size="8.00">der</text>
</g>
<!-- n_share_data_studies_CogRes_Subjects_P00004218_S0001_T1_c2T1_P00004218_S0001_nii -->
<g id="node14" class="node"><title>n_share_data_studies_CogRes_Subjects_P00004218_S0001_T1_c2T1_P00004218_S0001_nii</title>
<ellipse fill="#fffc87" stroke="#808080" cx="2759" cy="-162" rx="351.953" ry="18"/>
<text text-anchor="middle" x="2759" y="-156.4" font-family="Times,serif" font-size="14.00">/share/data/studies/CogRes/Subjects/P00004218/S0001/T1/c2T1_P00004218_S0001.nii</text>
</g>
<!-- nspm_spatial_preproc&#45;&gt;n_share_data_studies_CogRes_Subjects_P00004218_S0001_T1_c2T1_P00004218_S0001_nii -->
<g id="edge7" class="edge"><title>nspm_spatial_preproc&#45;&gt;n_share_data_studies_CogRes_Subjects_P00004218_S0001_T1_c2T1_P00004218_S0001_nii</title>
<path fill="none" stroke="black" d="M3804.66,-94.9387C3649.32,-104.753 3239,-130.675 2980.97,-146.977"/>
<polygon fill="black" stroke="black" points="2980.47,-143.501 2970.71,-147.625 2980.91,-150.487 2980.47,-143.501"/>
<text text-anchor="middle" x="3797.99" y="-105.176" font-family="Times,serif" font-size="8.00">der</text>
</g>
<!-- n_share_data_studies_CogRes_Subjects_P00004218_S0001_T1_mwc2T1_P00004218_S0001_nii -->
<g id="node15" class="node"><title>n_share_data_studies_CogRes_Subjects_P00004218_S0001_T1_mwc2T1_P00004218_S0001_nii</title>
<ellipse fill="#fffc87" stroke="#808080" cx="3495" cy="-162" rx="366.424" ry="18"/>
<text text-anchor="middle" x="3495" y="-156.4" font-family="Times,serif" font-size="14.00">/share/data/studies/CogRes/Subjects/P00004218/S0001/T1/mwc2T1_P00004218_S0001.nii</text>
</g>
<!-- nspm_spatial_preproc&#45;&gt;n_share_data_studies_CogRes_Subjects_P00004218_S0001_T1_mwc2T1_P00004218_S0001_nii -->
<g id="edge8" class="edge"><title>nspm_spatial_preproc&#45;&gt;n_share_data_studies_CogRes_Subjects_P00004218_S0001_T1_mwc2T1_P00004218_S0001_nii</title>
<path fill="none" stroke="black" d="M3804.74,-102.716C3746.99,-113.582 3660.14,-129.926 3593.08,-142.544"/>
<polygon fill="black" stroke="black" points="3592.1,-139.168 3582.91,-144.457 3593.39,-146.047 3592.1,-139.168"/>
<text text-anchor="middle" x="3799.77" y="-113.67" font-family="Times,serif" font-size="8.00">der</text>
</g>
<!-- n_share_data_studies_CogRes_Subjects_P00004218_S0001_T1_wc2T1_P00004218_S0001_nii -->
<g id="node16" class="node"><title>n_share_data_studies_CogRes_Subjects_P00004218_S0001_T1_wc2T1_P00004218_S0001_nii</title>
<ellipse fill="#fffc87" stroke="#808080" cx="4238" cy="-162" rx="358.901" ry="18"/>
<text text-anchor="middle" x="4238" y="-156.4" font-family="Times,serif" font-size="14.00">/share/data/studies/CogRes/Subjects/P00004218/S0001/T1/wc2T1_P00004218_S0001.nii</text>
</g>
<!-- nspm_spatial_preproc&#45;&gt;n_share_data_studies_CogRes_Subjects_P00004218_S0001_T1_wc2T1_P00004218_S0001_nii -->
<g id="edge9" class="edge"><title>nspm_spatial_preproc&#45;&gt;n_share_data_studies_CogRes_Subjects_P00004218_S0001_T1_wc2T1_P00004218_S0001_nii</title>
<path fill="none" stroke="black" d="M3929.52,-102.795C3987.17,-113.673 4073.66,-129.993 4140.41,-142.586"/>
<polygon fill="black" stroke="black" points="4140.05,-146.08 4150.52,-144.495 4141.34,-139.201 4140.05,-146.08"/>
<text text-anchor="middle" x="3939.29" y="-88.2208" font-family="Times,serif" font-size="8.00">der</text>
</g>
<!-- n_share_data_studies_CogRes_Subjects_P00004218_S0001_T1_c3T1_P00004218_S0001_nii -->
<g id="node17" class="node"><title>n_share_data_studies_CogRes_Subjects_P00004218_S0001_T1_c3T1_P00004218_S0001_nii</title>
<ellipse fill="#fffc87" stroke="#808080" cx="4967" cy="-162" rx="351.953" ry="18"/>
<text text-anchor="middle" x="4967" y="-156.4" font-family="Times,serif" font-size="14.00">/share/data/studies/CogRes/Subjects/P00004218/S0001/T1/c3T1_P00004218_S0001.nii</text>
</g>
<!-- nspm_spatial_preproc&#45;&gt;n_share_data_studies_CogRes_Subjects_P00004218_S0001_T1_c3T1_P00004218_S0001_nii -->
<g id="edge10" class="edge"><title>nspm_spatial_preproc&#45;&gt;n_share_data_studies_CogRes_Subjects_P00004218_S0001_T1_c3T1_P00004218_S0001_nii</title>
<path fill="none" stroke="black" d="M3929.29,-94.9641C4083.69,-104.789 4490.03,-130.647 4746.02,-146.938"/>
<polygon fill="black" stroke="black" points="4746,-150.443 4756.2,-147.585 4746.44,-143.457 4746,-150.443"/>
<text text-anchor="middle" x="3937.6" y="-79.2762" font-family="Times,serif" font-size="8.00">der</text>
</g>
<!-- n_share_data_studies_CogRes_Subjects_P00004218_S0001_T1_mwc3T1_P00004218_S0001_nii -->
<g id="node18" class="node"><title>n_share_data_studies_CogRes_Subjects_P00004218_S0001_T1_mwc3T1_P00004218_S0001_nii</title>
<ellipse fill="#fffc87" stroke="#808080" cx="5703" cy="-162" rx="366.424" ry="18"/>
<text text-anchor="middle" x="5703" y="-156.4" font-family="Times,serif" font-size="14.00">/share/data/studies/CogRes/Subjects/P00004218/S0001/T1/mwc3T1_P00004218_S0001.nii</text>
</g>
<!-- nspm_spatial_preproc&#45;&gt;n_share_data_studies_CogRes_Subjects_P00004218_S0001_T1_mwc3T1_P00004218_S0001_nii -->
<g id="edge11" class="edge"><title>nspm_spatial_preproc&#45;&gt;n_share_data_studies_CogRes_Subjects_P00004218_S0001_T1_mwc3T1_P00004218_S0001_nii</title>
<path fill="none" stroke="black" d="M3929.26,-93.0621C4131.11,-99.789 4785.61,-121.935 5327,-144 5362.43,-145.444 5399.74,-147.04 5436.54,-148.658"/>
<polygon fill="black" stroke="black" points="5436.76,-152.171 5446.9,-149.115 5437.07,-145.178 5436.76,-152.171"/>
<text text-anchor="middle" x="3937.2" y="-77.1301" font-family="Times,serif" font-size="8.00">der</text>
</g>
<!-- n_share_data_studies_CogRes_Subjects_P00004218_S0001_T1_wc3T1_P00004218_S0001_nii -->
<g id="node19" class="node"><title>n_share_data_studies_CogRes_Subjects_P00004218_S0001_T1_wc3T1_P00004218_S0001_nii</title>
<ellipse fill="#fffc87" stroke="#808080" cx="6446" cy="-162" rx="358.901" ry="18"/>
<text text-anchor="middle" x="6446" y="-156.4" font-family="Times,serif" font-size="14.00">/share/data/studies/CogRes/Subjects/P00004218/S0001/T1/wc3T1_P00004218_S0001.nii</text>
</g>
<!-- nspm_spatial_preproc&#45;&gt;n_share_data_studies_CogRes_Subjects_P00004218_S0001_T1_wc3T1_P00004218_S0001_nii -->
<g id="edge12" class="edge"><title>nspm_spatial_preproc&#45;&gt;n_share_data_studies_CogRes_Subjects_P00004218_S0001_T1_wc3T1_P00004218_S0001_nii</title>
<path fill="none" stroke="black" d="M3929.44,-91.9893C4191.35,-96.2459 5227.08,-114.151 6078,-144 6114.23,-145.271 6152.46,-146.813 6190.03,-148.443"/>
<polygon fill="black" stroke="black" points="6189.94,-151.942 6200.08,-148.882 6190.24,-144.949 6189.94,-151.942"/>
<text text-anchor="middle" x="3937.16" y="-75.926" font-family="Times,serif" font-size="8.00">der</text>
</g>
<!-- n_share_data_studies_CogRes_Subjects_P00004218_S0001_T1_mT1_P00004218_S0001_nii -->
<g id="node20" class="node"><title>n_share_data_studies_CogRes_Subjects_P00004218_S0001_T1_mT1_P00004218_S0001_nii</title>
<ellipse fill="#fffc87" stroke="#808080" cx="7173" cy="-162" rx="350.247" ry="18"/>
<text text-anchor="middle" x="7173" y="-156.4" font-family="Times,serif" font-size="14.00">/share/data/studies/CogRes/Subjects/P00004218/S0001/T1/mT1_P00004218_S0001.nii</text>
</g>
<!-- nspm_spatial_preproc&#45;&gt;n_share_data_studies_CogRes_Subjects_P00004218_S0001_T1_mT1_P00004218_S0001_nii -->
<g id="edge13" class="edge"><title>nspm_spatial_preproc&#45;&gt;n_share_data_studies_CogRes_Subjects_P00004218_S0001_T1_mT1_P00004218_S0001_nii</title>
<path fill="none" stroke="black" d="M3929.47,-91.4472C4240.73,-93.8175 5655.29,-106.259 6813,-144 6849.17,-145.179 6887.36,-146.693 6924.83,-148.33"/>
<polygon fill="black" stroke="black" points="6924.71,-151.828 6934.85,-148.772 6925.02,-144.835 6924.71,-151.828"/>
<text text-anchor="middle" x="3937.08" y="-75.3189" font-family="Times,serif" font-size="8.00">der</text>
</g>
<!-- nopts_1 -->
<g id="node21" class="node"><title>nopts_1</title>
<ellipse fill="#fffc87" stroke="#808080" cx="7578" cy="-162" rx="36.5842" ry="18"/>
<text text-anchor="middle" x="7578" y="-156.4" font-family="Times,serif" font-size="14.00">opts_1</text>
</g>
<!-- nspm_spatial_preproc&#45;&gt;nopts_1 -->
<g id="edge14" class="edge"><title>nspm_spatial_preproc&#45;&gt;nopts_1</title>
<path fill="none" stroke="black" d="M3929.45,-91.3013C4397.85,-93.6355 7347.75,-109.666 7532,-144 7535.26,-144.608 7538.6,-145.426 7541.91,-146.375"/>
<polygon fill="black" stroke="black" points="7541.09,-149.785 7551.68,-149.537 7543.24,-143.126 7541.09,-149.785"/>
<text text-anchor="middle" x="3937.02" y="-75.151" font-family="Times,serif" font-size="8.00">use</text>
</g>
<!-- nspm_temporal_st -->
<g id="node2" class="node"><title>nspm_temporal_st</title>
<polygon fill="#9fb1fc" stroke="#0000ff" points="9527.94,-108 9422.06,-108 9422.06,-72 9527.94,-72 9527.94,-108"/>
<text text-anchor="middle" x="9475" y="-84.4" font-family="Times,serif" font-size="14.00">spm.temporal.st</text>
</g>
<!-- nscans_2 -->
<g id="node22" class="node"><title>nscans_2</title>
<ellipse fill="#fffc87" stroke="#808080" cx="7674" cy="-162" rx="41.7214" ry="18"/>
<text text-anchor="middle" x="7674" y="-156.4" font-family="Times,serif" font-size="14.00">scans_2</text>
</g>
<!-- nspm_temporal_st&#45;&gt;nscans_2 -->
<g id="edge16" class="edge"><title>nspm_temporal_st&#45;&gt;nscans_2</title>
<path fill="none" stroke="black" d="M9422.41,-91.6616C9148.85,-95.2277 7894.49,-113.152 7724,-144 7720.51,-144.631 7716.94,-145.46 7713.38,-146.411"/>
<polygon fill="black" stroke="black" points="7712.08,-143.148 7703.49,-149.358 7714.08,-149.856 7712.08,-143.148"/>
<text text-anchor="middle" x="9415.09" y="-101.553" font-family="Times,serif" font-size="8.00">use</text>
</g>
<!-- n_share_data_studies_CogRes_Subjects_P00004218_S0001_ECF_r1_ECF_r1_P00004218_S0001_nii -->
<g id="node23" class="node"><title>n_share_data_studies_CogRes_Subjects_P00004218_S0001_ECF_r1_ECF_r1_P00004218_S0001_nii</title>
<ellipse fill="#fffc87" stroke="#808080" cx="8116" cy="-162" rx="382.649" ry="18"/>
<text text-anchor="middle" x="8116" y="-156.4" font-family="Times,serif" font-size="14.00">/share/data/studies/CogRes/Subjects/P00004218/S0001/ECF_r1/ECF_r1_P00004218_S0001.nii</text>
</g>
<!-- nspm_temporal_st&#45;&gt;n_share_data_studies_CogRes_Subjects_P00004218_S0001_ECF_r1_ECF_r1_P00004218_S0001_nii -->
<g id="edge17" class="edge"><title>nspm_temporal_st&#45;&gt;n_share_data_studies_CogRes_Subjects_P00004218_S0001_ECF_r1_ECF_r1_P00004218_S0001_nii</title>
<path fill="none" stroke="black" d="M9422.56,-93.7012C9251.71,-102.501 8703.19,-130.755 8373.66,-147.728"/>
<polygon fill="black" stroke="black" points="8373.3,-144.242 8363.49,-148.252 8373.66,-151.233 8373.3,-144.242"/>
<text text-anchor="middle" x="9415.74" y="-103.86" font-family="Times,serif" font-size="8.00">use</text>
</g>
<!-- n_share_data_studies_CogRes_Subjects_P00004218_S0001_ECF_r2_ECF_r2_P00004218_S0001_nii -->
<g id="node24" class="node"><title>n_share_data_studies_CogRes_Subjects_P00004218_S0001_ECF_r2_ECF_r2_P00004218_S0001_nii</title>
<ellipse fill="#fffc87" stroke="#808080" cx="8899" cy="-162" rx="382.649" ry="18"/>
<text text-anchor="middle" x="8899" y="-156.4" font-family="Times,serif" font-size="14.00">/share/data/studies/CogRes/Subjects/P00004218/S0001/ECF_r2/ECF_r2_P00004218_S0001.nii</text>
</g>
<!-- nspm_temporal_st&#45;&gt;n_share_data_studies_CogRes_Subjects_P00004218_S0001_ECF_r2_ECF_r2_P00004218_S0001_nii -->
<g id="edge18" class="edge"><title>nspm_temporal_st&#45;&gt;n_share_data_studies_CogRes_Subjects_P00004218_S0001_ECF_r2_ECF_r2_P00004218_S0001_nii</title>
<path fill="none" stroke="black" d="M9422.61,-97.3665C9336.88,-107.785 9163.8,-128.819 9040.1,-143.853"/>
<polygon fill="black" stroke="black" points="9039.66,-140.38 9030.16,-145.061 9040.51,-147.328 9039.66,-140.38"/>
<text text-anchor="middle" x="9416.73" y="-107.967" font-family="Times,serif" font-size="8.00">use</text>
</g>
<!-- nnslices_2 -->
<g id="node25" class="node"><title>nnslices_2</title>
<ellipse fill="#fffc87" stroke="#808080" cx="9347" cy="-162" rx="46.9531" ry="18"/>
<text text-anchor="middle" x="9347" y="-156.4" font-family="Times,serif" font-size="14.00">nslices_2</text>
</g>
<!-- nspm_temporal_st&#45;&gt;nnslices_2 -->
<g id="edge19" class="edge"><title>nspm_temporal_st&#45;&gt;nnslices_2</title>
<path fill="none" stroke="black" d="M9443.69,-108.124C9424.9,-118.397 9400.98,-131.478 9381.63,-142.059"/>
<polygon fill="black" stroke="black" points="9379.92,-139.008 9372.82,-146.877 9383.28,-145.15 9379.92,-139.008"/>
<text text-anchor="middle" x="9443.34" y="-119.92" font-family="Times,serif" font-size="8.00">use</text>
</g>
<!-- ntr_2 -->
<g id="node26" class="node"><title>ntr_2</title>
<ellipse fill="#fffc87" stroke="#808080" cx="9439" cy="-162" rx="27" ry="18"/>
<text text-anchor="middle" x="9439" y="-156.4" font-family="Times,serif" font-size="14.00">tr_2</text>
</g>
<!-- nspm_temporal_st&#45;&gt;ntr_2 -->
<g id="edge20" class="edge"><title>nspm_temporal_st&#45;&gt;ntr_2</title>
<path fill="none" stroke="black" d="M9466.1,-108.303C9461.84,-116.597 9456.65,-126.689 9451.95,-135.813"/>
<polygon fill="black" stroke="black" points="9448.76,-134.362 9447.3,-144.855 9454.99,-137.563 9448.76,-134.362"/>
<text text-anchor="middle" x="9474.22" y="-117.714" font-family="Times,serif" font-size="8.00">use</text>
</g>
<!-- nta_2 -->
<g id="node27" class="node"><title>nta_2</title>
<ellipse fill="#fffc87" stroke="#808080" cx="9512" cy="-162" rx="27.8263" ry="18"/>
<text text-anchor="middle" x="9512" y="-156.4" font-family="Times,serif" font-size="14.00">ta_2</text>
</g>
<!-- nspm_temporal_st&#45;&gt;nta_2 -->
<g id="edge21" class="edge"><title>nspm_temporal_st&#45;&gt;nta_2</title>
<path fill="none" stroke="black" d="M9484.15,-108.303C9488.53,-116.597 9493.86,-126.689 9498.69,-135.813"/>
<polygon fill="black" stroke="black" points="9495.7,-137.65 9503.47,-144.855 9501.89,-134.379 9495.7,-137.65"/>
<text text-anchor="middle" x="9499.14" y="-105.664" font-family="Times,serif" font-size="8.00">use</text>
</g>
<!-- nso_2 -->
<g id="node28" class="node"><title>nso_2</title>
<ellipse fill="#fffc87" stroke="#808080" cx="9587" cy="-162" rx="29.0617" ry="18"/>
<text text-anchor="middle" x="9587" y="-156.4" font-family="Times,serif" font-size="14.00">so_2</text>
</g>
<!-- nspm_temporal_st&#45;&gt;nso_2 -->
<g id="edge22" class="edge"><title>nspm_temporal_st&#45;&gt;nso_2</title>
<path fill="none" stroke="black" d="M9502.4,-108.124C9519.49,-118.809 9541.45,-132.532 9558.71,-143.32"/>
<polygon fill="black" stroke="black" points="9556.92,-146.33 9567.26,-148.662 9560.63,-140.394 9556.92,-146.33"/>
<text text-anchor="middle" x="9515.64" y="-97.8831" font-family="Times,serif" font-size="8.00">use</text>
</g>
<!-- nrefslice_2 -->
<g id="node29" class="node"><title>nrefslice_2</title>
<ellipse fill="#fffc87" stroke="#808080" cx="9683" cy="-162" rx="49.216" ry="18"/>
<text text-anchor="middle" x="9683" y="-156.4" font-family="Times,serif" font-size="14.00">refslice_2</text>
</g>
<!-- nspm_temporal_st&#45;&gt;nrefslice_2 -->
<g id="edge23" class="edge"><title>nspm_temporal_st&#45;&gt;nrefslice_2</title>
<path fill="none" stroke="black" d="M9525.62,-108.034C9560.05,-119.624 9605.2,-134.819 9638.31,-145.96"/>
<polygon fill="black" stroke="black" points="9637.58,-149.407 9648.17,-149.279 9639.81,-142.772 9637.58,-149.407"/>
<text text-anchor="middle" x="9536.87" y="-94.9148" font-family="Times,serif" font-size="8.00">use</text>
</g>
<!-- nprefix_2 -->
<g id="node30" class="node"><title>nprefix_2</title>
<ellipse fill="#fffc87" stroke="#808080" cx="9793" cy="-162" rx="43.4475" ry="18"/>
<text text-anchor="middle" x="9793" y="-156.4" font-family="Times,serif" font-size="14.00">prefix_2</text>
</g>
<!-- nspm_temporal_st&#45;&gt;nprefix_2 -->
<g id="edge24" class="edge"><title>nspm_temporal_st&#45;&gt;nprefix_2</title>
<path fill="none" stroke="black" d="M9527.41,-99.5385C9581.36,-108.772 9667.66,-124.78 9741,-144 9744.36,-144.882 9747.83,-145.859 9751.3,-146.886"/>
<polygon fill="black" stroke="black" points="9750.41,-150.276 9761,-149.876 9752.47,-143.586 9750.41,-150.276"/>
<text text-anchor="middle" x="9537.02" y="-84.822" font-family="Times,serif" font-size="8.00">use</text>
</g>
<!-- nspm_spatial_realign_estwrite -->
<g id="node3" class="node"><title>nspm_spatial_realign_estwrite</title>
<polygon fill="#9fb1fc" stroke="#0000ff" points="11404.6,-108 11235.4,-108 11235.4,-72 11404.6,-72 11404.6,-108"/>
<text text-anchor="middle" x="11320" y="-84.4" font-family="Times,serif" font-size="14.00">spm.spatial.realign.estwrite</text>
</g>
<!-- ndata_3 -->
<g id="node31" class="node"><title>ndata_3</title>
<ellipse fill="#fffc87" stroke="#808080" cx="9891" cy="-162" rx="36.5561" ry="18"/>
<text text-anchor="middle" x="9891" y="-156.4" font-family="Times,serif" font-size="14.00">data_3</text>
</g>
<!-- nspm_spatial_realign_estwrite&#45;&gt;ndata_3 -->
<g id="edge26" class="edge"><title>nspm_spatial_realign_estwrite&#45;&gt;ndata_3</title>
<path fill="none" stroke="black" d="M11235.5,-90.7609C10975,-90.572 10187.4,-94.2437 9937,-144 9933.83,-144.631 9930.58,-145.448 9927.36,-146.384"/>
<polygon fill="black" stroke="black" points="9926.26,-143.06 9917.83,-149.476 9928.42,-149.718 9926.26,-143.06"/>
<text text-anchor="middle" x="11228" y="-100.559" font-family="Times,serif" font-size="8.00">use</text>
</g>
<!-- n_share_data_studies_CogRes_Subjects_P00004218_S0001_ECF_r1_aECF_r1_P00004218_S0001_nii -->
<g id="node32" class="node"><title>n_share_data_studies_CogRes_Subjects_P00004218_S0001_ECF_r1_aECF_r1_P00004218_S0001_nii</title>
<ellipse fill="#fffc87" stroke="#808080" cx="10333" cy="-162" rx="386.721" ry="18"/>
<text text-anchor="middle" x="10333" y="-156.4" font-family="Times,serif" font-size="14.00">/share/data/studies/CogRes/Subjects/P00004218/S0001/ECF_r1/aECF_r1_P00004218_S0001.nii</text>
</g>
<!-- nspm_spatial_realign_estwrite&#45;&gt;n_share_data_studies_CogRes_Subjects_P00004218_S0001_ECF_r1_aECF_r1_P00004218_S0001_nii -->
<g id="edge27" class="edge"><title>nspm_spatial_realign_estwrite&#45;&gt;n_share_data_studies_CogRes_Subjects_P00004218_S0001_ECF_r1_aECF_r1_P00004218_S0001_nii</title>
<path fill="none" stroke="black" d="M11235.4,-96.9984C11083.8,-107.755 10761.3,-130.625 10545.8,-145.908"/>
<polygon fill="black" stroke="black" points="10545.3,-142.432 10535.6,-146.63 10545.8,-149.414 10545.3,-142.432"/>
<text text-anchor="middle" x="11228.9" y="-107.287" font-family="Times,serif" font-size="8.00">use</text>
</g>
<!-- n_share_data_studies_CogRes_Subjects_P00004218_S0001_ECF_r2_aECF_r2_P00004218_S0001_nii -->
<g id="node33" class="node"><title>n_share_data_studies_CogRes_Subjects_P00004218_S0001_ECF_r2_aECF_r2_P00004218_S0001_nii</title>
<ellipse fill="#fffc87" stroke="#808080" cx="11125" cy="-162" rx="386.721" ry="18"/>
<text text-anchor="middle" x="11125" y="-156.4" font-family="Times,serif" font-size="14.00">/share/data/studies/CogRes/Subjects/P00004218/S0001/ECF_r2/aECF_r2_P00004218_S0001.nii</text>
</g>
<!-- nspm_spatial_realign_estwrite&#45;&gt;n_share_data_studies_CogRes_Subjects_P00004218_S0001_ECF_r2_aECF_r2_P00004218_S0001_nii -->
<g id="edge28" class="edge"><title>nspm_spatial_realign_estwrite&#45;&gt;n_share_data_studies_CogRes_Subjects_P00004218_S0001_ECF_r2_aECF_r2_P00004218_S0001_nii</title>
<path fill="none" stroke="black" d="M11272.3,-108.124C11244.9,-117.942 11210.4,-130.326 11181.7,-140.641"/>
<polygon fill="black" stroke="black" points="11180.4,-137.38 11172.2,-144.053 11182.8,-143.968 11180.4,-137.38"/>
<text text-anchor="middle" x="11269.6" y="-119.684" font-family="Times,serif" font-size="8.00">use</text>
</g>
<!-- neoptions_3 -->
<g id="node34" class="node"><title>neoptions_3</title>
<ellipse fill="#fffc87" stroke="#808080" cx="11583" cy="-162" rx="53.3355" ry="18"/>
<text text-anchor="middle" x="11583" y="-156.4" font-family="Times,serif" font-size="14.00">eoptions_3</text>
</g>
<!-- nspm_spatial_realign_estwrite&#45;&gt;neoptions_3 -->
<g id="edge29" class="edge"><title>nspm_spatial_realign_estwrite&#45;&gt;neoptions_3</title>
<path fill="none" stroke="black" d="M11384.9,-108.112C11424,-118.457 11474.9,-131.936 11520,-144 11524.1,-145.103 11528.4,-146.25 11532.7,-147.403"/>
<polygon fill="black" stroke="black" points="11532.1,-150.871 11542.7,-150.09 11533.9,-144.112 11532.1,-150.871"/>
<text text-anchor="middle" x="11395.4" y="-94.2697" font-family="Times,serif" font-size="8.00">use</text>
</g>
<!-- nroptions_3 -->
<g id="node35" class="node"><title>nroptions_3</title>
<ellipse fill="#fffc87" stroke="#808080" cx="11707" cy="-162" rx="52.195" ry="18"/>
<text text-anchor="middle" x="11707" y="-156.4" font-family="Times,serif" font-size="14.00">roptions_3</text>
</g>
<!-- nspm_spatial_realign_estwrite&#45;&gt;nroptions_3 -->
<g id="edge30" class="edge"><title>nspm_spatial_realign_estwrite&#45;&gt;nroptions_3</title>
<path fill="none" stroke="black" d="M11404.3,-102.245C11470.2,-111.635 11563.9,-126.314 11645,-144 11649.4,-144.962 11654,-146.045 11658.5,-147.186"/>
<polygon fill="black" stroke="black" points="11657.9,-150.636 11668.5,-149.753 11659.7,-143.859 11657.9,-150.636"/>
<text text-anchor="middle" x="11413.6" y="-87.2621" font-family="Times,serif" font-size="8.00">use</text>
</g>
<!-- nspm_spatial_coreg_estimate -->
<g id="node4" class="node"><title>nspm_spatial_coreg_estimate</title>
<polygon fill="#9fb1fc" stroke="#0000ff" points="11986.1,-108 11821.9,-108 11821.9,-72 11986.1,-72 11986.1,-108"/>
<text text-anchor="middle" x="11904" y="-84.4" font-family="Times,serif" font-size="14.00">spm.spatial.coreg.estimate</text>
</g>
<!-- nref_4 -->
<g id="node36" class="node"><title>nref_4</title>
<ellipse fill="#fffc87" stroke="#808080" cx="11809" cy="-162" rx="31.3229" ry="18"/>
<text text-anchor="middle" x="11809" y="-156.4" font-family="Times,serif" font-size="14.00">ref_4</text>
</g>
<!-- nspm_spatial_coreg_estimate&#45;&gt;nref_4 -->
<g id="edge32" class="edge"><title>nspm_spatial_coreg_estimate&#45;&gt;nref_4</title>
<path fill="none" stroke="black" d="M11880.5,-108.303C11867,-118.295 11849.9,-130.897 11835.8,-141.272"/>
<polygon fill="black" stroke="black" points="11833.4,-138.651 11827.5,-147.401 11837.6,-144.286 11833.4,-138.651"/>
<text text-anchor="middle" x="11882.2" y="-120.01" font-family="Times,serif" font-size="8.00">use</text>
</g>
<!-- nsource_4 -->
<g id="node37" class="node"><title>nsource_4</title>
<ellipse fill="#fffc87" stroke="#808080" cx="11904" cy="-162" rx="45.7937" ry="18"/>
<text text-anchor="middle" x="11904" y="-156.4" font-family="Times,serif" font-size="14.00">source_4</text>
</g>
<!-- nspm_spatial_coreg_estimate&#45;&gt;nsource_4 -->
<g id="edge33" class="edge"><title>nspm_spatial_coreg_estimate&#45;&gt;nsource_4</title>
<path fill="none" stroke="black" d="M11904,-108.303C11904,-116.017 11904,-125.288 11904,-133.888"/>
<polygon fill="black" stroke="black" points="11900.5,-133.896 11904,-143.896 11907.5,-133.896 11900.5,-133.896"/>
<text text-anchor="middle" x="11917" y="-112.603" font-family="Times,serif" font-size="8.00">use</text>
</g>
<!-- nother_4 -->
<g id="node39" class="node"><title>nother_4</title>
<ellipse fill="#fffc87" stroke="#808080" cx="12008" cy="-162" rx="40.5709" ry="18"/>
<text text-anchor="middle" x="12008" y="-156.4" font-family="Times,serif" font-size="14.00">other_4</text>
</g>
<!-- nspm_spatial_coreg_estimate&#45;&gt;nother_4 -->
<g id="edge34" class="edge"><title>nspm_spatial_coreg_estimate&#45;&gt;nother_4</title>
<path fill="none" stroke="black" d="M11929.4,-108.124C11944.1,-118.004 11962.7,-130.481 11978,-140.834"/>
<polygon fill="black" stroke="black" points="11976.4,-143.968 11986.7,-146.648 11980.3,-138.161 11976.4,-143.968"/>
<text text-anchor="middle" x="11942.9" y="-98.3351" font-family="Times,serif" font-size="8.00">use</text>
</g>
<!-- neoptions_4 -->
<g id="node40" class="node"><title>neoptions_4</title>
<ellipse fill="#fffc87" stroke="#808080" cx="12120" cy="-162" rx="53.3355" ry="18"/>
<text text-anchor="middle" x="12120" y="-156.4" font-family="Times,serif" font-size="14.00">eoptions_4</text>
</g>
<!-- nspm_spatial_coreg_estimate&#45;&gt;neoptions_4 -->
<g id="edge35" class="edge"><title>nspm_spatial_coreg_estimate&#45;&gt;neoptions_4</title>
<path fill="none" stroke="black" d="M11956.6,-108.034C11992.1,-119.563 12038.7,-134.66 12073.1,-145.785"/>
<polygon fill="black" stroke="black" points="12072.2,-149.203 12082.8,-148.956 12074.4,-142.544 12072.2,-149.203"/>
<text text-anchor="middle" x="11967.7" y="-94.7889" font-family="Times,serif" font-size="8.00">use</text>
</g>
<!-- nspm_spatial_normalise_write -->
<g id="node5" class="node"><title>nspm_spatial_normalise_write</title>
<polygon fill="#9fb1fc" stroke="#0000ff" points="12313.4,-108 12142.6,-108 12142.6,-72 12313.4,-72 12313.4,-108"/>
<text text-anchor="middle" x="12228" y="-84.4" font-family="Times,serif" font-size="14.00">spm.spatial.normalise.write</text>
</g>
<!-- nsubj_5 -->
<g id="node41" class="node"><title>nsubj_5</title>
<ellipse fill="#fffc87" stroke="#808080" cx="12228" cy="-162" rx="36.5842" ry="18"/>
<text text-anchor="middle" x="12228" y="-156.4" font-family="Times,serif" font-size="14.00">subj_5</text>
</g>
<!-- nspm_spatial_normalise_write&#45;&gt;nsubj_5 -->
<g id="edge37" class="edge"><title>nspm_spatial_normalise_write&#45;&gt;nsubj_5</title>
<path fill="none" stroke="black" d="M12228,-108.303C12228,-116.017 12228,-125.288 12228,-133.888"/>
<polygon fill="black" stroke="black" points="12224.5,-133.896 12228,-143.896 12231.5,-133.896 12224.5,-133.896"/>
<text text-anchor="middle" x="12241" y="-112.603" font-family="Times,serif" font-size="8.00">use</text>
</g>
<!-- nroptions_5 -->
<g id="node42" class="node"><title>nroptions_5</title>
<ellipse fill="#fffc87" stroke="#808080" cx="12335" cy="-162" rx="52.195" ry="18"/>
<text text-anchor="middle" x="12335" y="-156.4" font-family="Times,serif" font-size="14.00">roptions_5</text>
</g>
<!-- nspm_spatial_normalise_write&#45;&gt;nroptions_5 -->
<g id="edge38" class="edge"><title>nspm_spatial_normalise_write&#45;&gt;nroptions_5</title>
<path fill="none" stroke="black" d="M12254.2,-108.124C12268.9,-117.733 12287.3,-129.799 12302.9,-139.978"/>
<polygon fill="black" stroke="black" points="12301.4,-143.175 12311.6,-145.721 12305.2,-137.317 12301.4,-143.175"/>
<text text-anchor="middle" x="12267.6" y="-98.1591" font-family="Times,serif" font-size="8.00">use</text>
</g>
<!-- nspm_spatial_smooth -->
<g id="node6" class="node"><title>nspm_spatial_smooth</title>
<polygon fill="#9fb1fc" stroke="#0000ff" points="12653.1,-108 12528.9,-108 12528.9,-72 12653.1,-72 12653.1,-108"/>
<text text-anchor="middle" x="12591" y="-84.4" font-family="Times,serif" font-size="14.00">spm.spatial.smooth</text>
</g>
<!-- ndata_6 -->
<g id="node43" class="node"><title>ndata_6</title>
<ellipse fill="#fffc87" stroke="#808080" cx="12442" cy="-162" rx="36.5561" ry="18"/>
<text text-anchor="middle" x="12442" y="-156.4" font-family="Times,serif" font-size="14.00">data_6</text>
</g>
<!-- nspm_spatial_smooth&#45;&gt;ndata_6 -->
<g id="edge40" class="edge"><title>nspm_spatial_smooth&#45;&gt;ndata_6</title>
<path fill="none" stroke="black" d="M12554.6,-108.124C12530.9,-119.223 12500.3,-133.601 12477,-144.561"/>
<polygon fill="black" stroke="black" points="12475.4,-141.459 12467.8,-148.879 12478.3,-147.795 12475.4,-141.459"/>
<text text-anchor="middle" x="12553.3" y="-119.871" font-family="Times,serif" font-size="8.00">use</text>
</g>
<!-- nfwhm_6 -->
<g id="node47" class="node"><title>nfwhm_6</title>
<ellipse fill="#fffc87" stroke="#808080" cx="12540" cy="-162" rx="43.4475" ry="18"/>
<text text-anchor="middle" x="12540" y="-156.4" font-family="Times,serif" font-size="14.00">fwhm_6</text>
</g>
<!-- nspm_spatial_smooth&#45;&gt;nfwhm_6 -->
<g id="edge41" class="edge"><title>nspm_spatial_smooth&#45;&gt;nfwhm_6</title>
<path fill="none" stroke="black" d="M12578.4,-108.303C12572.3,-116.735 12564.8,-127.025 12558,-136.268"/>
<polygon fill="black" stroke="black" points="12555.2,-134.234 12552.1,-144.378 12560.8,-138.356 12555.2,-134.234"/>
<text text-anchor="middle" x="12584.5" y="-118.815" font-family="Times,serif" font-size="8.00">use</text>
</g>
<!-- ndtype_6 -->
<g id="node48" class="node"><title>ndtype_6</title>
<ellipse fill="#fffc87" stroke="#808080" cx="12643" cy="-162" rx="42.2967" ry="18"/>
<text text-anchor="middle" x="12643" y="-156.4" font-family="Times,serif" font-size="14.00">dtype_6</text>
</g>
<!-- nspm_spatial_smooth&#45;&gt;ndtype_6 -->
<g id="edge42" class="edge"><title>nspm_spatial_smooth&#45;&gt;ndtype_6</title>
<path fill="none" stroke="black" d="M12603.9,-108.303C12610.1,-116.735 12617.8,-127.025 12624.6,-136.268"/>
<polygon fill="black" stroke="black" points="12621.9,-138.437 12630.7,-144.378 12627.5,-134.263 12621.9,-138.437"/>
<text text-anchor="middle" x="12618.8" y="-103.377" font-family="Times,serif" font-size="8.00">use</text>
</g>
<!-- nim_6 -->
<g id="node49" class="node"><title>nim_6</title>
<ellipse fill="#fffc87" stroke="#808080" cx="12734" cy="-162" rx="30.7763" ry="18"/>
<text text-anchor="middle" x="12734" y="-156.4" font-family="Times,serif" font-size="14.00">im_6</text>
</g>
<!-- nspm_spatial_smooth&#45;&gt;nim_6 -->
<g id="edge43" class="edge"><title>nspm_spatial_smooth&#45;&gt;nim_6</title>
<path fill="none" stroke="black" d="M12626,-108.124C12649.1,-119.457 12679.3,-134.208 12701.8,-145.25"/>
<polygon fill="black" stroke="black" points="12700.5,-148.481 12711,-149.734 12703.5,-142.194 12700.5,-148.481"/>
<text text-anchor="middle" x="12638.4" y="-96.5539" font-family="Times,serif" font-size="8.00">use</text>
</g>
<!-- nprefix_6 -->
<g id="node50" class="node"><title>nprefix_6</title>
<ellipse fill="#fffc87" stroke="#808080" cx="12826" cy="-162" rx="43.4475" ry="18"/>
<text text-anchor="middle" x="12826" y="-156.4" font-family="Times,serif" font-size="14.00">prefix_6</text>
</g>
<!-- nspm_spatial_smooth&#45;&gt;nprefix_6 -->
<g id="edge44" class="edge"><title>nspm_spatial_smooth&#45;&gt;nprefix_6</title>
<path fill="none" stroke="black" d="M12651,-108.02C12686.5,-118.22 12732.4,-131.581 12773,-144 12776.3,-145.02 12779.8,-146.091 12783.2,-147.177"/>
<polygon fill="black" stroke="black" points="12782.4,-150.572 12793,-150.252 12784.5,-143.898 12782.4,-150.572"/>
<text text-anchor="middle" x="12661.8" y="-94.4076" font-family="Times,serif" font-size="8.00">use</text>
</g>
<!-- nmatlabbatch -->
<g id="node7" class="node"><title>nmatlabbatch</title>
<ellipse fill="#fffc87" stroke="#808080" cx="11709" cy="-18" rx="58.4555" ry="18"/>
<text text-anchor="middle" x="11709" y="-12.4" font-family="Times,serif" font-size="14.00">matlabbatch</text>
</g>
<!-- nmatlabbatch&#45;&gt;nspm_spatial_preproc -->
<g id="edge1" class="edge"><title>nmatlabbatch&#45;&gt;nspm_spatial_preproc</title>
<path fill="none" stroke="black" d="M11650.9,-19.5183C10979,-25.5165 4686.54,-81.6845 3939.39,-88.3538"/>
<polygon fill="black" stroke="black" points="3939.28,-84.8546 3929.31,-88.4438 3939.34,-91.8543 3939.28,-84.8546"/>
<text text-anchor="middle" x="11643.6" y="-29.3751" font-family="Times,serif" font-size="8.00">use</text>
</g>
<!-- nmatlabbatch&#45;&gt;nspm_temporal_st -->
<g id="edge15" class="edge"><title>nmatlabbatch&#45;&gt;nspm_temporal_st</title>
<path fill="none" stroke="black" d="M11651.5,-20.8007C11340.6,-30.5441 9861.47,-76.8905 9537.71,-87.035"/>
<polygon fill="black" stroke="black" points="9537.46,-83.541 9527.58,-87.3525 9537.68,-90.5375 9537.46,-83.541"/>
<text text-anchor="middle" x="11644.4" y="-30.8196" font-family="Times,serif" font-size="8.00">use</text>
</g>
<!-- nmatlabbatch&#45;&gt;nspm_spatial_realign_estwrite -->
<g id="edge25" class="edge"><title>nmatlabbatch&#45;&gt;nspm_spatial_realign_estwrite</title>
<path fill="none" stroke="black" d="M11660.1,-27.7947C11598.8,-38.8293 11492.3,-57.9952 11414.8,-71.9461"/>
<polygon fill="black" stroke="black" points="11413.7,-68.5767 11404.5,-73.7925 11415,-75.4661 11413.7,-68.5767"/>
<text text-anchor="middle" x="11655" y="-38.708" font-family="Times,serif" font-size="8.00">use</text>
</g>
<!-- nmatlabbatch&#45;&gt;nspm_spatial_coreg_estimate -->
<g id="edge31" class="edge"><title>nmatlabbatch&#45;&gt;nspm_spatial_coreg_estimate</title>
<path fill="none" stroke="black" d="M11745.7,-32.1665C11774.2,-42.4035 11814.3,-56.7897 11847,-68.5264"/>
<polygon fill="black" stroke="black" points="11845.8,-71.8335 11856.4,-71.918 11848.2,-65.2452 11845.8,-71.8335"/>
<text text-anchor="middle" x="11757.1" y="-19.274" font-family="Times,serif" font-size="8.00">use</text>
</g>
<!-- nmatlabbatch&#45;&gt;nspm_spatial_normalise_write -->
<g id="edge36" class="edge"><title>nmatlabbatch&#45;&gt;nspm_spatial_normalise_write</title>
<path fill="none" stroke="black" d="M11751,-30.5538C11759.2,-32.5683 11767.9,-34.4963 11776,-36 11898.1,-58.5415 12040.5,-73.3771 12132.4,-81.4751"/>
<polygon fill="black" stroke="black" points="12132.3,-84.975 12142.5,-82.3575 12132.9,-78.0015 12132.3,-84.975"/>
<text text-anchor="middle" x="11761.3" y="-16.492" font-family="Times,serif" font-size="8.00">use</text>
</g>
<!-- nmatlabbatch&#45;&gt;nspm_spatial_smooth -->
<g id="edge39" class="edge"><title>nmatlabbatch&#45;&gt;nspm_spatial_smooth</title>
<path fill="none" stroke="black" d="M11750.2,-30.719C11758.7,-32.7704 11767.6,-34.6702 11776,-36 11785.1,-37.4436 12321.3,-71.7725 12518.9,-84.3967"/>
<polygon fill="black" stroke="black" points="12518.7,-87.8905 12528.9,-85.0352 12519.1,-80.9048 12518.7,-87.8905"/>
<text text-anchor="middle" x="11760.5" y="-16.6289" font-family="Times,serif" font-size="8.00">use</text>
</g>
<!-- n_share_data_studies_CogRes_Subjects_P00004218_S0001_T1_T1_P00004218_S0001_nii -->
<g id="node9" class="node"><title>n_share_data_studies_CogRes_Subjects_P00004218_S0001_T1_T1_P00004218_S0001_nii</title>
<ellipse fill="#fffc87" stroke="#808080" cx="12128" cy="-18" rx="342.724" ry="18"/>
<text text-anchor="middle" x="12128" y="-12.4" font-family="Times,serif" font-size="14.00">/share/data/studies/CogRes/Subjects/P00004218/S0001/T1/T1_P00004218_S0001.nii</text>
</g>
<!-- n_share_data_studies_CogRes_Subjects_P00004218_S0001_ECF_r1_meanaECF_r1_P00004218_S0001_nii -->
<g id="node38" class="node"><title>n_share_data_studies_CogRes_Subjects_P00004218_S0001_ECF_r1_meanaECF_r1_P00004218_S0001_nii</title>
<ellipse fill="#fffc87" stroke="#808080" cx="12897" cy="-18" rx="407.546" ry="18"/>
<text text-anchor="middle" x="12897" y="-12.4" font-family="Times,serif" font-size="14.00">/share/data/studies/CogRes/Subjects/P00004218/S0001/ECF_r1/meanaECF_r1_P00004218_S0001.nii</text>
</g>
<!-- n_share_data_studies_CogRes_Subjects_P00004218_S0001_ECF_r1_waECF_r1_P00004218_S0001_nii -->
<g id="node44" class="node"><title>n_share_data_studies_CogRes_Subjects_P00004218_S0001_ECF_r1_waECF_r1_P00004218_S0001_nii</title>
<ellipse fill="#fffc87" stroke="#808080" cx="13717" cy="-18" rx="393.669" ry="18"/>
<text text-anchor="middle" x="13717" y="-12.4" font-family="Times,serif" font-size="14.00">/share/data/studies/CogRes/Subjects/P00004218/S0001/ECF_r1/waECF_r1_P00004218_S0001.nii</text>
</g>
<!-- n_share_data_studies_CogRes_Subjects_P00004218_S0001_ECF_r1_wmeanaECF_r1_P00004218_S0001_nii -->
<g id="node45" class="node"><title>n_share_data_studies_CogRes_Subjects_P00004218_S0001_ECF_r1_wmeanaECF_r1_P00004218_S0001_nii</title>
<ellipse fill="#fffc87" stroke="#808080" cx="14544" cy="-18" rx="414.994" ry="18"/>
<text text-anchor="middle" x="14544" y="-12.4" font-family="Times,serif" font-size="14.00">/share/data/studies/CogRes/Subjects/P00004218/S0001/ECF_r1/wmeanaECF_r1_P00004218_S0001.nii</text>
</g>
<!-- n_share_data_studies_CogRes_Subjects_P00004218_S0001_ECF_r2_waECF_r2_P00004218_S0001_nii -->
<g id="node46" class="node"><title>n_share_data_studies_CogRes_Subjects_P00004218_S0001_ECF_r2_waECF_r2_P00004218_S0001_nii</title>
<ellipse fill="#fffc87" stroke="#808080" cx="15371" cy="-18" rx="393.669" ry="18"/>
<text text-anchor="middle" x="15371" y="-12.4" font-family="Times,serif" font-size="14.00">/share/data/studies/CogRes/Subjects/P00004218/S0001/ECF_r2/waECF_r2_P00004218_S0001.nii</text>
</g>
</g>
</svg>
