<?xml version="1.0" encoding="UTF-8" standalone="no"?>
<!DOCTYPE svg PUBLIC "-//W3C//DTD SVG 1.1//EN"
 "http://www.w3.org/Graphics/SVG/1.1/DTD/svg11.dtd">
<!-- Generated by graphviz version 2.30.0 (20130114.0426)
 -->
<!-- Title: PROV Pages: 1 -->
<svg width="188pt" height="188pt"
 viewBox="0.00 0.00 188.00 188.00" xmlns="http://www.w3.org/2000/svg" xmlns:xlink="http://www.w3.org/1999/xlink">
<g id="graph0" class="graph" transform="scale(1 1) rotate(0) translate(4 184)">
<title>PROV</title>
<polygon fill="white" stroke="white" points="-4,5 -4,-184 185,-184 185,5 -4,5"/>
<!-- nlove -->
<g id="node1" class="node"><title>nlove</title>
<polygon fill="#9fb1fc" stroke="#0000ff" points="96,-180 42,-180 42,-144 96,-144 96,-180"/>
<text text-anchor="middle" x="69" y="-156.4" font-family="Times,serif" font-size="14.00">love</text>
</g>
<!-- njason -->
<g id="node2" class="node"><title>njason</title>
<ellipse fill="#fffc87" stroke="#808080" cx="31" cy="-90" rx="31.3417" ry="18"/>
<text text-anchor="middle" x="31" y="-84.4" font-family="Times,serif" font-size="14.00">jason</text>
</g>
<!-- njason&#45;&gt;nlove -->
<g id="edge3" class="edge"><title>njason&#45;&gt;nlove</title>
<path fill="none" stroke="black" d="M40.0055,-107.589C44.371,-115.631 49.7205,-125.485 54.6307,-134.53"/>
<polygon fill="black" stroke="black" points="51.6819,-136.435 59.5289,-143.553 57.8339,-133.095 51.6819,-136.435"/>
<text text-anchor="middle" x="55.0003" y="-104.783" font-family="Times,serif" font-size="8.00">use</text>
</g>
<!-- nfloh -->
<g id="node3" class="node"><title>nfloh</title>
<ellipse fill="#fffc87" stroke="#808080" cx="107" cy="-90" rx="27" ry="18"/>
<text text-anchor="middle" x="107" y="-84.4" font-family="Times,serif" font-size="14.00">floh</text>
</g>
<!-- nfloh&#45;&gt;nlove -->
<g id="edge4" class="edge"><title>nfloh&#45;&gt;nlove</title>
<path fill="none" stroke="black" d="M98.1865,-107.235C93.7138,-115.475 88.1719,-125.683 83.1228,-134.984"/>
<polygon fill="black" stroke="black" points="79.9908,-133.418 78.2958,-143.876 86.1428,-136.757 79.9908,-133.418"/>
<text text-anchor="middle" x="106.025" y="-116.824" font-family="Times,serif" font-size="8.00">use</text>
</g>
<!-- ntheliau -->
<g id="node4" class="node"><title>ntheliau</title>
<ellipse fill="#fffc87" stroke="#808080" cx="64" cy="-18" rx="37.1307" ry="18"/>
<text text-anchor="middle" x="64" y="-12.4" font-family="Times,serif" font-size="14.00">theliau</text>
</g>
<!-- ntheliau&#45;&gt;nfloh -->
<g id="edge1" class="edge"><title>ntheliau&#45;&gt;nfloh</title>
<path fill="none" stroke="black" d="M74.1904,-35.589C79.4601,-44.1677 85.9971,-54.8092 91.8459,-64.3305"/>
<polygon fill="black" stroke="black" points="88.9622,-66.3231 97.1787,-73.0119 94.9268,-62.6591 88.9622,-66.3231"/>
<text text-anchor="middle" x="89.1848" y="-31.9802" font-family="Times,serif" font-size="8.00">der</text>
</g>
<!-- nsezni -->
<g id="node5" class="node"><title>nsezni</title>
<ellipse fill="#fffc87" stroke="#808080" cx="150" cy="-18" rx="30.7575" ry="18"/>
<text text-anchor="middle" x="150" y="-12.4" font-family="Times,serif" font-size="14.00">sezni</text>
</g>
<!-- nsezni&#45;&gt;nfloh -->
<g id="edge2" class="edge"><title>nsezni&#45;&gt;nfloh</title>
<path fill="none" stroke="black" d="M140.027,-35.2354C134.763,-43.8052 128.189,-54.506 122.296,-64.0996"/>
<polygon fill="black" stroke="black" points="119.171,-62.4999 116.919,-72.8527 125.136,-66.1639 119.171,-62.4999"/>
<text text-anchor="middle" x="147.17" y="-45.2253" font-family="Times,serif" font-size="8.00">der</text>
</g>
</g>
</svg>
