<?xml version="1.0" encoding="UTF-8" standalone="no"?>
<!DOCTYPE svg PUBLIC "-//W3C//DTD SVG 1.1//EN"
 "http://www.w3.org/Graphics/SVG/1.1/DTD/svg11.dtd">
<!-- Generated by graphviz version 2.30.0 (20130114.0426)
 -->
<!-- Title: PROV Pages: 1 -->
<svg width="451pt" height="260pt"
 viewBox="0.00 0.00 451.00 260.00" xmlns="http://www.w3.org/2000/svg" xmlns:xlink="http://www.w3.org/1999/xlink">
<g id="graph0" class="graph" transform="scale(1 1) rotate(0) translate(4 256)">
<title>PROV</title>
<polygon fill="white" stroke="white" points="-4,5 -4,-256 448,-256 448,5 -4,5"/>
<!-- nbet2 -->
<g id="node1" class="node"><title>nbet2</title>
<polygon fill="#9fb1fc" stroke="#0000ff" points="204,-108 150,-108 150,-72 204,-72 204,-108"/>
<text text-anchor="middle" x="177" y="-84.4" font-family="Times,serif" font-size="14.00">bet2</text>
</g>
<!-- nInputImage1 -->
<g id="node3" class="node"><title>nInputImage1</title>
<ellipse fill="#fffc87" stroke="#808080" cx="60" cy="-162" rx="60.2552" ry="18"/>
<text text-anchor="middle" x="60" y="-156.4" font-family="Times,serif" font-size="14.00">InputImage1</text>
</g>
<!-- nbet2&#45;&gt;nInputImage1 -->
<g id="edge7" class="edge"><title>nbet2&#45;&gt;nInputImage1</title>
<path fill="none" stroke="black" d="M149.864,-107.235C133.423,-117.072 112.29,-129.716 94.6484,-140.27"/>
<polygon fill="black" stroke="black" points="92.5692,-137.436 85.7848,-145.573 96.1631,-143.443 92.5692,-137.436"/>
<text text-anchor="middle" x="150.097" y="-119.034" font-family="Times,serif" font-size="8.00">use</text>
</g>
<!-- nparameters -->
<g id="node6" class="node"><title>nparameters</title>
<ellipse fill="#fffc87" stroke="#808080" cx="291" cy="-162" rx="53.2884" ry="18"/>
<text text-anchor="middle" x="291" y="-156.4" font-family="Times,serif" font-size="14.00">parameters</text>
</g>
<!-- nbet2&#45;&gt;nparameters -->
<g id="edge10" class="edge"><title>nbet2&#45;&gt;nparameters</title>
<path fill="none" stroke="black" d="M204.016,-107.589C220.164,-117.504 240.8,-130.176 257.92,-140.688"/>
<polygon fill="black" stroke="black" points="256.156,-143.712 266.509,-145.962 259.819,-137.746 256.156,-143.712"/>
<text text-anchor="middle" x="217.205" y="-97.2435" font-family="Times,serif" font-size="8.00">use</text>
</g>
<!-- nann0 -->
<g id="node2" class="node"><title>nann0</title>
<polygon fill="none" stroke="gray" points="153.5,-36 62.5,-36 62.5,-0 159.5,-0 159.5,-30 153.5,-36"/>
<polyline fill="none" stroke="gray" points="153.5,-36 153.5,-30 "/>
<polyline fill="none" stroke="gray" points="159.5,-30 153.5,-30 "/>
<text text-anchor="start" x="73" y="-13.5" font-family="Times,serif" font-size="10.00">type:</text>
<text text-anchor="start" x="95" y="-13.5" font-family="Times,serif" font-size="10.00">TestNameFile</text>
</g>
<!-- nann0&#45;&gt;nbet2 -->
<g id="edge1" class="edge"><title>nann0&#45;&gt;nbet2</title>
<path fill="none" stroke="gray" stroke-dasharray="5,2" d="M127.315,-36.3034C137.545,-47.1537 150.679,-61.0833 160.873,-71.8957"/>
</g>
<!-- nann1 -->
<g id="node4" class="node"><title>nann1</title>
<polygon fill="none" stroke="gray" points="98.5,-108 15.5,-108 15.5,-72 104.5,-72 104.5,-102 98.5,-108"/>
<polyline fill="none" stroke="gray" points="98.5,-108 98.5,-102 "/>
<polyline fill="none" stroke="gray" points="104.5,-102 98.5,-102 "/>
<text text-anchor="start" x="26" y="-91.5" font-family="Times,serif" font-size="10.00">type:</text>
<text text-anchor="start" x="48" y="-91.5" font-family="Times,serif" font-size="10.00">neuroimage</text>
<text text-anchor="start" x="26" y="-79" font-family="Times,serif" font-size="10.00">TR:</text>
<text text-anchor="start" x="48" y="-79" font-family="Times,serif" font-size="10.00">3.93</text>
</g>
<!-- nann1&#45;&gt;nInputImage1 -->
<g id="edge2" class="edge"><title>nann1&#45;&gt;nInputImage1</title>
<path fill="none" stroke="gray" stroke-dasharray="5,2" d="M60,-108.303C60,-119.154 60,-133.083 60,-143.896"/>
</g>
<!-- nOutputImage1 -->
<g id="node5" class="node"><title>nOutputImage1</title>
<ellipse fill="#fffc87" stroke="#808080" cx="244" cy="-18" rx="66.6376" ry="18"/>
<text text-anchor="middle" x="244" y="-12.4" font-family="Times,serif" font-size="14.00">OutputImage1</text>
</g>
<!-- nOutputImage1&#45;&gt;nbet2 -->
<g id="edge6" class="edge"><title>nOutputImage1&#45;&gt;nbet2</title>
<path fill="none" stroke="black" d="M228.122,-35.589C219.939,-44.1386 209.794,-54.7372 200.705,-64.2337"/>
<polygon fill="black" stroke="black" points="198.085,-61.9089 193.699,-71.5532 203.142,-66.7491 198.085,-61.9089"/>
<text text-anchor="middle" x="232.32" y="-46.7894" font-family="Times,serif" font-size="8.00">gen</text>
</g>
<!-- ng -->
<g id="node8" class="node"><title>ng</title>
<ellipse fill="#fffc87" stroke="#808080" cx="245" cy="-234" rx="27" ry="18"/>
<text text-anchor="middle" x="245" y="-228.4" font-family="Times,serif" font-size="14.00">g</text>
</g>
<!-- nparameters&#45;&gt;ng -->
<g id="edge8" class="edge"><title>nparameters&#45;&gt;ng</title>
<path fill="none" stroke="black" d="M279.865,-179.945C274.223,-188.531 267.269,-199.112 261.06,-208.561"/>
<polygon fill="black" stroke="black" points="257.969,-206.891 255.402,-217.171 263.819,-210.736 257.969,-206.891"/>
</g>
<!-- nd -->
<g id="node10" class="node"><title>nd</title>
<ellipse fill="#fffc87" stroke="#808080" cx="337" cy="-234" rx="27" ry="18"/>
<text text-anchor="middle" x="337" y="-228.4" font-family="Times,serif" font-size="14.00">d</text>
</g>
<!-- nparameters&#45;&gt;nd -->
<g id="edge9" class="edge"><title>nparameters&#45;&gt;nd</title>
<path fill="none" stroke="black" d="M302.135,-179.945C307.777,-188.531 314.731,-199.112 320.94,-208.561"/>
<polygon fill="black" stroke="black" points="318.181,-210.736 326.598,-217.171 324.031,-206.891 318.181,-210.736"/>
</g>
<!-- nann2 -->
<g id="node7" class="node"><title>nann2</title>
<polygon fill="none" stroke="gray" points="325.5,-108 250.5,-108 250.5,-72 331.5,-72 331.5,-102 325.5,-108"/>
<polyline fill="none" stroke="gray" points="325.5,-108 325.5,-102 "/>
<polyline fill="none" stroke="gray" points="331.5,-102 325.5,-102 "/>
<text text-anchor="start" x="261" y="-85.5" font-family="Times,serif" font-size="10.00">type:</text>
<text text-anchor="start" x="283" y="-85.5" font-family="Times,serif" font-size="10.00">collection</text>
</g>
<!-- nann2&#45;&gt;nparameters -->
<g id="edge3" class="edge"><title>nann2&#45;&gt;nparameters</title>
<path fill="none" stroke="gray" stroke-dasharray="5,2" d="M291,-108.303C291,-119.154 291,-133.083 291,-143.896"/>
</g>
<!-- nann3 -->
<g id="node9" class="node"><title>nann3</title>
<polygon fill="none" stroke="gray" points="213.5,-180 138.5,-180 138.5,-144 219.5,-144 219.5,-174 213.5,-180"/>
<polyline fill="none" stroke="gray" points="213.5,-180 213.5,-174 "/>
<polyline fill="none" stroke="gray" points="219.5,-174 213.5,-174 "/>
<text text-anchor="start" x="149" y="-157.5" font-family="Times,serif" font-size="10.00">type:</text>
<text text-anchor="start" x="171" y="-157.5" font-family="Times,serif" font-size="10.00">parameter</text>
</g>
<!-- nann3&#45;&gt;ng -->
<g id="edge4" class="edge"><title>nann3&#45;&gt;ng</title>
<path fill="none" stroke="gray" stroke-dasharray="5,2" d="M195.315,-180.303C206.308,-191.963 220.655,-207.179 231.104,-218.262"/>
</g>
<!-- nann4 -->
<g id="node11" class="node"><title>nann4</title>
<polygon fill="none" stroke="gray" points="437.5,-180 362.5,-180 362.5,-144 443.5,-144 443.5,-174 437.5,-180"/>
<polyline fill="none" stroke="gray" points="437.5,-180 437.5,-174 "/>
<polyline fill="none" stroke="gray" points="443.5,-174 437.5,-174 "/>
<text text-anchor="start" x="373" y="-157.5" font-family="Times,serif" font-size="10.00">type:</text>
<text text-anchor="start" x="395" y="-157.5" font-family="Times,serif" font-size="10.00">parameter</text>
</g>
<!-- nann4&#45;&gt;nd -->
<g id="edge5" class="edge"><title>nann4&#45;&gt;nd</title>
<path fill="none" stroke="gray" stroke-dasharray="5,2" d="M386.685,-180.303C375.692,-191.963 361.345,-207.179 350.896,-218.262"/>
</g>
</g>
</svg>
