<?xml version="1.0" encoding="UTF-8" standalone="no"?>
<!DOCTYPE svg PUBLIC "-//W3C//DTD SVG 1.1//EN"
 "http://www.w3.org/Graphics/SVG/1.1/DTD/svg11.dtd">
<!-- Generated by graphviz version 2.30.0 (20130114.0426)
 -->
<!-- Title: PROV Pages: 1 -->
<svg width="265pt" height="260pt"
 viewBox="0.00 0.00 265.00 260.00" xmlns="http://www.w3.org/2000/svg" xmlns:xlink="http://www.w3.org/1999/xlink">
<g id="graph0" class="graph" transform="scale(1 1) rotate(0) translate(4 256)">
<title>PROV</title>
<polygon fill="white" stroke="white" points="-4,5 -4,-256 262,-256 262,5 -4,5"/>
<!-- nbet -->
<g id="node1" class="node"><title>nbet</title>
<polygon fill="#9fb1fc" stroke="#0000ff" points="161,-180 107,-180 107,-144 161,-144 161,-180"/>
<text text-anchor="middle" x="134" y="-156.4" font-family="Times,serif" font-size="14.00">bet</text>
</g>
<!-- nInputImage1 -->
<g id="node4" class="node"><title>nInputImage1</title>
<ellipse fill="#fffc87" stroke="#808080" cx="89" cy="-234" rx="60.2552" ry="18"/>
<text text-anchor="middle" x="89" y="-228.4" font-family="Times,serif" font-size="14.00">InputImage1</text>
</g>
<!-- nbet&#45;&gt;nInputImage1 -->
<g id="edge4" class="edge"><title>nbet&#45;&gt;nInputImage1</title>
<path fill="none" stroke="black" d="M122.876,-180.303C117.645,-188.441 111.3,-198.311 105.522,-207.299"/>
<polygon fill="black" stroke="black" points="102.459,-205.591 99.9956,-215.896 108.347,-209.377 102.459,-205.591"/>
<text text-anchor="middle" x="129.748" y="-190.437" font-family="Times,serif" font-size="8.00">use</text>
</g>
<!-- nann0 -->
<g id="node2" class="node"><title>nann0</title>
<polygon fill="none" stroke="gray" points="99,-108 51,-108 51,-72 105,-72 105,-102 99,-108"/>
<polyline fill="none" stroke="gray" points="99,-108 99,-102 "/>
<polyline fill="none" stroke="gray" points="105,-102 99,-102 "/>
<text text-anchor="start" x="65" y="-91.5" font-family="Times,serif" font-size="10.00">d:</text>
<text text-anchor="start" x="75" y="-91.5" font-family="Times,serif" font-size="10.00">0.5</text>
<text text-anchor="start" x="65" y="-79" font-family="Times,serif" font-size="10.00">g:</text>
<text text-anchor="start" x="75" y="-79" font-family="Times,serif" font-size="10.00">0.35</text>
</g>
<!-- nann0&#45;&gt;nbet -->
<g id="edge1" class="edge"><title>nann0&#45;&gt;nbet</title>
<path fill="none" stroke="gray" stroke-dasharray="5,2" d="M91.8427,-108.303C100.523,-119.154 111.667,-133.083 120.317,-143.896"/>
</g>
<!-- nSpatialNormalization -->
<g id="node3" class="node"><title>nSpatialNormalization</title>
<polygon fill="#9fb1fc" stroke="#0000ff" points="257.745,-36 122.255,-36 122.255,-0 257.745,-0 257.745,-36"/>
<text text-anchor="middle" x="190" y="-12.4" font-family="Times,serif" font-size="14.00">SpatialNormalization</text>
</g>
<!-- nOutputImage1 -->
<g id="node6" class="node"><title>nOutputImage1</title>
<ellipse fill="#fffc87" stroke="#808080" cx="190" cy="-90" rx="66.6376" ry="18"/>
<text text-anchor="middle" x="190" y="-84.4" font-family="Times,serif" font-size="14.00">OutputImage1</text>
</g>
<!-- nSpatialNormalization&#45;&gt;nOutputImage1 -->
<g id="edge5" class="edge"><title>nSpatialNormalization&#45;&gt;nOutputImage1</title>
<path fill="none" stroke="black" d="M190,-36.3034C190,-44.0173 190,-53.2875 190,-61.8876"/>
<polygon fill="black" stroke="black" points="186.5,-61.8956 190,-71.8957 193.5,-61.8957 186.5,-61.8956"/>
<text text-anchor="middle" x="202.99" y="-40.6034" font-family="Times,serif" font-size="8.00">use</text>
</g>
<!-- nann1 -->
<g id="node5" class="node"><title>nann1</title>
<polygon fill="none" stroke="gray" points="82.5,-180 -0.5,-180 -0.5,-144 88.5,-144 88.5,-174 82.5,-180"/>
<polyline fill="none" stroke="gray" points="82.5,-180 82.5,-174 "/>
<polyline fill="none" stroke="gray" points="88.5,-174 82.5,-174 "/>
<text text-anchor="start" x="10" y="-163.5" font-family="Times,serif" font-size="10.00">type:</text>
<text text-anchor="start" x="32" y="-163.5" font-family="Times,serif" font-size="10.00">neuroimage</text>
<text text-anchor="start" x="10" y="-151" font-family="Times,serif" font-size="10.00">TR:</text>
<text text-anchor="start" x="32" y="-151" font-family="Times,serif" font-size="10.00">3.93</text>
</g>
<!-- nann1&#45;&gt;nInputImage1 -->
<g id="edge2" class="edge"><title>nann1&#45;&gt;nInputImage1</title>
<path fill="none" stroke="gray" stroke-dasharray="5,2" d="M55.1236,-180.303C62.0988,-191.154 71.0535,-205.083 78.0044,-215.896"/>
</g>
<!-- nOutputImage1&#45;&gt;nbet -->
<g id="edge3" class="edge"><title>nOutputImage1&#45;&gt;nbet</title>
<path fill="none" stroke="black" d="M176.444,-107.945C169.734,-116.332 161.501,-126.624 154.077,-135.904"/>
<polygon fill="black" stroke="black" points="151.334,-133.73 147.82,-143.725 156.8,-138.102 151.334,-133.73"/>
<text text-anchor="middle" x="181.903" y="-118.717" font-family="Times,serif" font-size="8.00">gen</text>
</g>
</g>
</svg>
