<?xml version="1.0" encoding="UTF-8" standalone="no"?>
<!DOCTYPE svg PUBLIC "-//W3C//DTD SVG 1.1//EN"
 "http://www.w3.org/Graphics/SVG/1.1/DTD/svg11.dtd">
<!-- Generated by graphviz version 2.30.0 (20130114.0426)
 -->
<!-- Title: PROV Pages: 1 -->
<svg width="1152pt" height="74pt"
 viewBox="0.00 0.00 1152.00 73.77" xmlns="http://www.w3.org/2000/svg" xmlns:xlink="http://www.w3.org/1999/xlink">
<g id="graph0" class="graph" transform="scale(0.182596 0.182596) rotate(0) translate(4 400)">
<title>PROV</title>
<polygon fill="white" stroke="white" points="-4,5 -4,-400 6306,-400 6306,5 -4,5"/>
<!-- nmatlabbatch -->
<g id="node1" class="node"><title>nmatlabbatch</title>
<ellipse fill="#fffc87" stroke="#808080" cx="2772" cy="-18" rx="58.4555" ry="18"/>
<text text-anchor="middle" x="2772" y="-12.4" font-family="Times,serif" font-size="14.00">matlabbatch</text>
</g>
<!-- nmatlabbatch1 -->
<g id="node2" class="node"><title>nmatlabbatch1</title>
<ellipse fill="#fffc87" stroke="#808080" cx="2772" cy="-90" rx="63.1116" ry="18"/>
<text text-anchor="middle" x="2772" y="-84.4" font-family="Times,serif" font-size="14.00">matlabbatch1</text>
</g>
<!-- nmatlabbatch&#45;&gt;nmatlabbatch1 -->
<g id="edge15" class="edge"><title>nmatlabbatch&#45;&gt;nmatlabbatch1</title>
<path fill="none" stroke="black" d="M2772,-36.3034C2772,-44.0173 2772,-53.2875 2772,-61.8876"/>
<polygon fill="black" stroke="black" points="2768.5,-61.8956 2772,-71.8957 2775.5,-61.8957 2768.5,-61.8956"/>
<text text-anchor="middle" x="2784.99" y="-40.6034" font-family="Times,serif" font-size="8.00">use</text>
</g>
<!-- nmatlabbatch1_spm -->
<g id="node3" class="node"><title>nmatlabbatch1_spm</title>
<ellipse fill="#fffc87" stroke="#808080" cx="2842" cy="-162" rx="81.6361" ry="18"/>
<text text-anchor="middle" x="2842" y="-156.4" font-family="Times,serif" font-size="14.00">matlabbatch1.spm</text>
</g>
<!-- nmatlabbatch1&#45;&gt;nmatlabbatch1_spm -->
<g id="edge16" class="edge"><title>nmatlabbatch1&#45;&gt;nmatlabbatch1_spm</title>
<path fill="none" stroke="black" d="M2788.59,-107.589C2797.35,-116.352 2808.27,-127.268 2817.94,-136.943"/>
<polygon fill="black" stroke="black" points="2815.5,-139.448 2825.04,-144.044 2820.45,-134.498 2815.5,-139.448"/>
<text text-anchor="middle" x="2803.08" y="-100.507" font-family="Times,serif" font-size="8.00">use</text>
</g>
<!-- nmatlabbatch1_spm_spatial -->
<g id="node5" class="node"><title>nmatlabbatch1_spm_spatial</title>
<ellipse fill="#fffc87" stroke="#808080" cx="2927" cy="-234" rx="109.381" ry="18"/>
<text text-anchor="middle" x="2927" y="-228.4" font-family="Times,serif" font-size="14.00">matlabbatch1.spm.spatial</text>
</g>
<!-- nmatlabbatch1_spm&#45;&gt;nmatlabbatch1_spm_spatial -->
<g id="edge17" class="edge"><title>nmatlabbatch1_spm&#45;&gt;nmatlabbatch1_spm_spatial</title>
<path fill="none" stroke="black" d="M2862.14,-179.589C2873.07,-188.59 2886.76,-199.861 2898.74,-209.727"/>
<polygon fill="black" stroke="black" points="2896.76,-212.632 2906.71,-216.287 2901.21,-207.229 2896.76,-212.632"/>
<text text-anchor="middle" x="2876.19" y="-171.129" font-family="Times,serif" font-size="8.00">use</text>
</g>
<!-- nann0 -->
<g id="node4" class="node"><title>nann0</title>
<polygon fill="none" stroke="gray" points="2965,-108 2853,-108 2853,-72 2971,-72 2971,-102 2965,-108"/>
<polyline fill="none" stroke="gray" points="2965,-108 2965,-102 "/>
<polyline fill="none" stroke="gray" points="2971,-102 2965,-102 "/>
<text text-anchor="start" x="2863" y="-91.5" font-family="Times,serif" font-size="10.00">type:</text>
<text text-anchor="start" x="2908" y="-91.5" font-family="Times,serif" font-size="10.00">bundle</text>
<text text-anchor="start" x="2863" y="-79" font-family="Times,serif" font-size="10.00">structpath:</text>
<text text-anchor="start" x="2908" y="-79" font-family="Times,serif" font-size="10.00">matlabbatch1</text>
</g>
<!-- nann0&#45;&gt;nmatlabbatch1_spm -->
<g id="edge1" class="edge"><title>nann0&#45;&gt;nmatlabbatch1_spm</title>
<path fill="none" stroke="gray" stroke-dasharray="5,2" d="M2894.7,-108.303C2883.68,-119.316 2869.5,-133.5 2858.62,-144.378"/>
</g>
<!-- nmatlabbatch1_spm_spatial_smooth -->
<g id="node7" class="node"><title>nmatlabbatch1_spm_spatial_smooth</title>
<ellipse fill="#fffc87" stroke="#808080" cx="3032" cy="-306" rx="140.085" ry="18"/>
<text text-anchor="middle" x="3032" y="-300.4" font-family="Times,serif" font-size="14.00">matlabbatch1.spm.spatial.smooth</text>
</g>
<!-- nmatlabbatch1_spm_spatial&#45;&gt;nmatlabbatch1_spm_spatial_smooth -->
<g id="edge18" class="edge"><title>nmatlabbatch1_spm_spatial&#45;&gt;nmatlabbatch1_spm_spatial_smooth</title>
<path fill="none" stroke="black" d="M2951.88,-251.589C2965.77,-260.849 2983.27,-272.513 2998.37,-282.577"/>
<polygon fill="black" stroke="black" points="2996.67,-285.653 3006.93,-288.287 3000.55,-279.828 2996.67,-285.653"/>
<text text-anchor="middle" x="2965.33" y="-241.741" font-family="Times,serif" font-size="8.00">use</text>
</g>
<!-- nann1 -->
<g id="node6" class="node"><title>nann1</title>
<polygon fill="none" stroke="gray" points="3074,-180 2942,-180 2942,-144 3080,-144 3080,-174 3074,-180"/>
<polyline fill="none" stroke="gray" points="3074,-180 3074,-174 "/>
<polyline fill="none" stroke="gray" points="3080,-174 3074,-174 "/>
<text text-anchor="start" x="2952" y="-163.5" font-family="Times,serif" font-size="10.00">type:</text>
<text text-anchor="start" x="2997" y="-163.5" font-family="Times,serif" font-size="10.00">bundle</text>
<text text-anchor="start" x="2952" y="-151" font-family="Times,serif" font-size="10.00">structpath:</text>
<text text-anchor="start" x="2997" y="-151" font-family="Times,serif" font-size="10.00">matlabbatch1.spm</text>
</g>
<!-- nann1&#45;&gt;nmatlabbatch1_spm_spatial -->
<g id="edge2" class="edge"><title>nann1&#45;&gt;nmatlabbatch1_spm_spatial</title>
<path fill="none" stroke="gray" stroke-dasharray="5,2" d="M2990.24,-180.303C2977.12,-191.235 2960.25,-205.291 2947.24,-216.137"/>
</g>
<!-- nmatlabbatch1_spm_spatial_smooth_data -->
<g id="node9" class="node"><title>nmatlabbatch1_spm_spatial_smooth_data</title>
<ellipse fill="#fffc87" stroke="#808080" cx="1437" cy="-378" rx="158.581" ry="18"/>
<text text-anchor="middle" x="1437" y="-372.4" font-family="Times,serif" font-size="14.00">matlabbatch1.spm.spatial.smooth.data</text>
</g>
<!-- nmatlabbatch1_spm_spatial_smooth&#45;&gt;nmatlabbatch1_spm_spatial_smooth_data -->
<g id="edge19" class="edge"><title>nmatlabbatch1_spm_spatial_smooth&#45;&gt;nmatlabbatch1_spm_spatial_smooth_data</title>
<path fill="none" stroke="black" d="M2935.52,-319.105C2918.06,-320.982 2900.01,-322.72 2883,-324 2420.51,-358.808 1873.01,-370.976 1603.67,-375.055"/>
<polygon fill="black" stroke="black" points="1603.37,-371.559 1593.42,-375.208 1603.48,-378.558 1603.37,-371.559"/>
<text text-anchor="middle" x="2929.44" y="-329.615" font-family="Times,serif" font-size="8.00">use</text>
</g>
<!-- nmatlabbatch1_spm_spatial_smooth_fwhm -->
<g id="node11" class="node"><title>nmatlabbatch1_spm_spatial_smooth_fwhm</title>
<ellipse fill="#fffc87" stroke="#808080" cx="2781" cy="-378" rx="164.973" ry="18"/>
<text text-anchor="middle" x="2781" y="-372.4" font-family="Times,serif" font-size="14.00">matlabbatch1.spm.spatial.smooth.fwhm</text>
</g>
<!-- nmatlabbatch1_spm_spatial_smooth&#45;&gt;nmatlabbatch1_spm_spatial_smooth_fwhm -->
<g id="edge20" class="edge"><title>nmatlabbatch1_spm_spatial_smooth&#45;&gt;nmatlabbatch1_spm_spatial_smooth_fwhm</title>
<path fill="none" stroke="black" d="M2976.29,-322.535C2938.4,-333.103 2888.06,-347.142 2847.98,-358.32"/>
<polygon fill="black" stroke="black" points="2846.98,-354.965 2838.29,-361.023 2848.86,-361.708 2846.98,-354.965"/>
<text text-anchor="middle" x="2972.56" y="-333.863" font-family="Times,serif" font-size="8.00">use</text>
</g>
<!-- nmatlabbatch1_spm_spatial_smooth_dtype -->
<g id="node13" class="node"><title>nmatlabbatch1_spm_spatial_smooth_dtype</title>
<ellipse fill="#fffc87" stroke="#808080" cx="3134" cy="-378" rx="163.823" ry="18"/>
<text text-anchor="middle" x="3134" y="-372.4" font-family="Times,serif" font-size="14.00">matlabbatch1.spm.spatial.smooth.dtype</text>
</g>
<!-- nmatlabbatch1_spm_spatial_smooth&#45;&gt;nmatlabbatch1_spm_spatial_smooth_dtype -->
<g id="edge21" class="edge"><title>nmatlabbatch1_spm_spatial_smooth&#45;&gt;nmatlabbatch1_spm_spatial_smooth_dtype</title>
<path fill="none" stroke="black" d="M3056.43,-323.767C3069.83,-332.963 3086.63,-344.49 3101.16,-354.464"/>
<polygon fill="black" stroke="black" points="3099.19,-357.355 3109.41,-360.127 3103.15,-351.583 3099.19,-357.355"/>
<text text-anchor="middle" x="3069.97" y="-314.1" font-family="Times,serif" font-size="8.00">use</text>
</g>
<!-- nmatlabbatch1_spm_spatial_smooth_im -->
<g id="node15" class="node"><title>nmatlabbatch1_spm_spatial_smooth_im</title>
<ellipse fill="#fffc87" stroke="#808080" cx="3481" cy="-378" rx="152.803" ry="18"/>
<text text-anchor="middle" x="3481" y="-372.4" font-family="Times,serif" font-size="14.00">matlabbatch1.spm.spatial.smooth.im</text>
</g>
<!-- nmatlabbatch1_spm_spatial_smooth&#45;&gt;nmatlabbatch1_spm_spatial_smooth_im -->
<g id="edge22" class="edge"><title>nmatlabbatch1_spm_spatial_smooth&#45;&gt;nmatlabbatch1_spm_spatial_smooth_im</title>
<path fill="none" stroke="black" d="M3117.25,-320.29C3192.98,-332.097 3303.65,-349.351 3383.01,-361.724"/>
<polygon fill="black" stroke="black" points="3382.6,-365.202 3393.02,-363.284 3383.68,-358.285 3382.6,-365.202"/>
<text text-anchor="middle" x="3126.66" y="-305.41" font-family="Times,serif" font-size="8.00">use</text>
</g>
<!-- nmatlabbatch1_spm_spatial_smooth_prefix -->
<g id="node17" class="node"><title>nmatlabbatch1_spm_spatial_smooth_prefix</title>
<ellipse fill="#fffc87" stroke="#808080" cx="4236" cy="-378" rx="164.973" ry="18"/>
<text text-anchor="middle" x="4236" y="-372.4" font-family="Times,serif" font-size="14.00">matlabbatch1.spm.spatial.smooth.prefix</text>
</g>
<!-- nmatlabbatch1_spm_spatial_smooth&#45;&gt;nmatlabbatch1_spm_spatial_smooth_prefix -->
<g id="edge23" class="edge"><title>nmatlabbatch1_spm_spatial_smooth&#45;&gt;nmatlabbatch1_spm_spatial_smooth_prefix</title>
<path fill="none" stroke="black" d="M3129.29,-319C3146.5,-320.865 3164.26,-322.626 3181,-324 3494.58,-349.739 3861.69,-364.783 4069.74,-371.907"/>
<polygon fill="black" stroke="black" points="4069.72,-375.408 4079.84,-372.25 4069.96,-368.412 4069.72,-375.408"/>
<text text-anchor="middle" x="3138.14" y="-303.685" font-family="Times,serif" font-size="8.00">use</text>
</g>
<!-- nann2 -->
<g id="node8" class="node"><title>nann2</title>
<polygon fill="none" stroke="gray" points="3214,-252 3054,-252 3054,-216 3220,-216 3220,-246 3214,-252"/>
<polyline fill="none" stroke="gray" points="3214,-252 3214,-246 "/>
<polyline fill="none" stroke="gray" points="3220,-246 3214,-246 "/>
<text text-anchor="start" x="3064" y="-235.5" font-family="Times,serif" font-size="10.00">type:</text>
<text text-anchor="start" x="3109" y="-235.5" font-family="Times,serif" font-size="10.00">bundle</text>
<text text-anchor="start" x="3064" y="-223" font-family="Times,serif" font-size="10.00">structpath:</text>
<text text-anchor="start" x="3109" y="-223" font-family="Times,serif" font-size="10.00">matlabbatch1.spm.spatial</text>
</g>
<!-- nann2&#45;&gt;nmatlabbatch1_spm_spatial_smooth -->
<g id="edge3" class="edge"><title>nann2&#45;&gt;nmatlabbatch1_spm_spatial_smooth</title>
<path fill="none" stroke="gray" stroke-dasharray="5,2" d="M3111.31,-252.124C3094.92,-263.052 3073.76,-277.159 3057.42,-288.053"/>
</g>
<!-- nann3 -->
<g id="node10" class="node"><title>nann3</title>
<polygon fill="none" stroke="gray" points="192,-324 0,-324 0,-288 198,-288 198,-318 192,-324"/>
<polyline fill="none" stroke="gray" points="192,-324 192,-318 "/>
<polyline fill="none" stroke="gray" points="198,-318 192,-318 "/>
<text text-anchor="start" x="10" y="-307.5" font-family="Times,serif" font-size="10.00">type:</text>
<text text-anchor="start" x="55" y="-307.5" font-family="Times,serif" font-size="10.00">bundle</text>
<text text-anchor="start" x="10" y="-295" font-family="Times,serif" font-size="10.00">structpath:</text>
<text text-anchor="start" x="55" y="-295" font-family="Times,serif" font-size="10.00">matlabbatch1.spm.spatial.smooth</text>
</g>
<!-- nann3&#45;&gt;nmatlabbatch1_spm_spatial_smooth_data -->
<g id="edge4" class="edge"><title>nann3&#45;&gt;nmatlabbatch1_spm_spatial_smooth_data</title>
<path fill="none" stroke="gray" stroke-dasharray="5,2" d="M198.109,-323.046C201.104,-323.388 204.073,-323.707 207,-324 590.889,-362.36 1044.91,-372.975 1279.32,-375.899"/>
</g>
<!-- nann4 -->
<g id="node12" class="node"><title>nann4</title>
<polygon fill="none" stroke="gray" points="2868,-324 2676,-324 2676,-288 2874,-288 2874,-318 2868,-324"/>
<polyline fill="none" stroke="gray" points="2868,-324 2868,-318 "/>
<polyline fill="none" stroke="gray" points="2874,-318 2868,-318 "/>
<text text-anchor="start" x="2686" y="-307.5" font-family="Times,serif" font-size="10.00">type:</text>
<text text-anchor="start" x="2731" y="-307.5" font-family="Times,serif" font-size="10.00">spm:parameter</text>
<text text-anchor="start" x="2686" y="-295" font-family="Times,serif" font-size="10.00">structpath:</text>
<text text-anchor="start" x="2731" y="-295" font-family="Times,serif" font-size="10.00">matlabbatch1.spm.spatial.smooth</text>
</g>
<!-- nann4&#45;&gt;nmatlabbatch1_spm_spatial_smooth_fwhm -->
<g id="edge5" class="edge"><title>nann4&#45;&gt;nmatlabbatch1_spm_spatial_smooth_fwhm</title>
<path fill="none" stroke="gray" stroke-dasharray="5,2" d="M2776.48,-324.303C2777.41,-335.154 2778.61,-349.083 2779.53,-359.896"/>
</g>
<!-- nann5 -->
<g id="node14" class="node"><title>nann5</title>
<polygon fill="none" stroke="gray" points="3382,-324 3190,-324 3190,-288 3388,-288 3388,-318 3382,-324"/>
<polyline fill="none" stroke="gray" points="3382,-324 3382,-318 "/>
<polyline fill="none" stroke="gray" points="3388,-318 3382,-318 "/>
<text text-anchor="start" x="3200" y="-307.5" font-family="Times,serif" font-size="10.00">type:</text>
<text text-anchor="start" x="3245" y="-307.5" font-family="Times,serif" font-size="10.00">spm:parameter</text>
<text text-anchor="start" x="3200" y="-295" font-family="Times,serif" font-size="10.00">structpath:</text>
<text text-anchor="start" x="3245" y="-295" font-family="Times,serif" font-size="10.00">matlabbatch1.spm.spatial.smooth</text>
</g>
<!-- nann5&#45;&gt;nmatlabbatch1_spm_spatial_smooth_dtype -->
<g id="edge6" class="edge"><title>nann5&#45;&gt;nmatlabbatch1_spm_spatial_smooth_dtype</title>
<path fill="none" stroke="gray" stroke-dasharray="5,2" d="M3251.08,-324.124C3226.62,-335.174 3194.95,-349.473 3170.72,-360.415"/>
</g>
<!-- nann6 -->
<g id="node16" class="node"><title>nann6</title>
<polygon fill="none" stroke="gray" points="3598,-324 3406,-324 3406,-288 3604,-288 3604,-318 3598,-324"/>
<polyline fill="none" stroke="gray" points="3598,-324 3598,-318 "/>
<polyline fill="none" stroke="gray" points="3604,-318 3598,-318 "/>
<text text-anchor="start" x="3416" y="-307.5" font-family="Times,serif" font-size="10.00">type:</text>
<text text-anchor="start" x="3461" y="-307.5" font-family="Times,serif" font-size="10.00">spm:parameter</text>
<text text-anchor="start" x="3416" y="-295" font-family="Times,serif" font-size="10.00">structpath:</text>
<text text-anchor="start" x="3461" y="-295" font-family="Times,serif" font-size="10.00">matlabbatch1.spm.spatial.smooth</text>
</g>
<!-- nann6&#45;&gt;nmatlabbatch1_spm_spatial_smooth_im -->
<g id="edge7" class="edge"><title>nann6&#45;&gt;nmatlabbatch1_spm_spatial_smooth_im</title>
<path fill="none" stroke="gray" stroke-dasharray="5,2" d="M3499.07,-324.303C3495.35,-335.154 3490.57,-349.083 3486.86,-359.896"/>
</g>
<!-- nann7 -->
<g id="node18" class="node"><title>nann7</title>
<polygon fill="none" stroke="gray" points="3814,-324 3622,-324 3622,-288 3820,-288 3820,-318 3814,-324"/>
<polyline fill="none" stroke="gray" points="3814,-324 3814,-318 "/>
<polyline fill="none" stroke="gray" points="3820,-318 3814,-318 "/>
<text text-anchor="start" x="3632" y="-307.5" font-family="Times,serif" font-size="10.00">type:</text>
<text text-anchor="start" x="3677" y="-307.5" font-family="Times,serif" font-size="10.00">spm:parameter</text>
<text text-anchor="start" x="3632" y="-295" font-family="Times,serif" font-size="10.00">structpath:</text>
<text text-anchor="start" x="3677" y="-295" font-family="Times,serif" font-size="10.00">matlabbatch1.spm.spatial.smooth</text>
</g>
<!-- nann7&#45;&gt;nmatlabbatch1_spm_spatial_smooth_prefix -->
<g id="edge8" class="edge"><title>nann7&#45;&gt;nmatlabbatch1_spm_spatial_smooth_prefix</title>
<path fill="none" stroke="gray" stroke-dasharray="5,2" d="M3820.15,-322.712C3823.13,-323.151 3826.09,-323.581 3829,-324 3931.45,-338.731 4048.66,-353.807 4130.91,-364.095"/>
</g>
<!-- n_share_data_studies_CogRes_Subjects_P00004218_S0001_ECF_r1_swaECF_r1_P00004218_S0001_nii -->
<g id="node19" class="node"><title>n_share_data_studies_CogRes_Subjects_P00004218_S0001_ECF_r1_swaECF_r1_P00004218_S0001_nii</title>
<ellipse fill="#fffc87" stroke="#808080" cx="4236" cy="-306" rx="397.685" ry="18"/>
<text text-anchor="middle" x="4236" y="-300.4" font-family="Times,serif" font-size="14.00">/share/data/studies/CogRes/Subjects/P00004218/S0001/ECF_r1/swaECF_r1_P00004218_S0001.nii</text>
</g>
<!-- n_share_data_studies_CogRes_Subjects_P00004218_S0001_ECF_r1_swaECF_r1_P00004218_S0001_nii&#45;&gt;nmatlabbatch1_spm_spatial_smooth_prefix -->
<g id="edge24" class="edge"><title>n_share_data_studies_CogRes_Subjects_P00004218_S0001_ECF_r1_swaECF_r1_P00004218_S0001_nii&#45;&gt;nmatlabbatch1_spm_spatial_smooth_prefix</title>
<path fill="none" stroke="black" d="M4236,-324.303C4236,-332.017 4236,-341.288 4236,-349.888"/>
<polygon fill="black" stroke="black" points="4232.5,-349.896 4236,-359.896 4239.5,-349.896 4232.5,-349.896"/>
<text text-anchor="middle" x="4248.99" y="-328.603" font-family="Times,serif" font-size="8.00">der</text>
</g>
<!-- nann8 -->
<g id="node20" class="node"><title>nann8</title>
<polygon fill="none" stroke="gray" points="4342,-252 4124,-252 4124,-216 4348,-216 4348,-246 4342,-252"/>
<polyline fill="none" stroke="gray" points="4342,-252 4342,-246 "/>
<polyline fill="none" stroke="gray" points="4348,-246 4342,-246 "/>
<text text-anchor="start" x="4134" y="-235.5" font-family="Times,serif" font-size="10.00">type:</text>
<text text-anchor="start" x="4179" y="-235.5" font-family="Times,serif" font-size="10.00">ImageIndex</text>
<text text-anchor="start" x="4134" y="-223" font-family="Times,serif" font-size="10.00">structpath:</text>
<text text-anchor="start" x="4179" y="-223" font-family="Times,serif" font-size="10.00">matlabbatch1.spm.spatial.smooth.prefix</text>
</g>
<!-- nann8&#45;&gt;n_share_data_studies_CogRes_Subjects_P00004218_S0001_ECF_r1_swaECF_r1_P00004218_S0001_nii -->
<g id="edge9" class="edge"><title>nann8&#45;&gt;n_share_data_studies_CogRes_Subjects_P00004218_S0001_ECF_r1_swaECF_r1_P00004218_S0001_nii</title>
<path fill="none" stroke="gray" stroke-dasharray="5,2" d="M4236,-252.303C4236,-263.154 4236,-277.083 4236,-287.896"/>
</g>
<!-- n_share_data_studies_CogRes_Subjects_P00004218_S0001_ECF_r1_swmeanaECF_r1_P00004218_S0001_nii -->
<g id="node21" class="node"><title>n_share_data_studies_CogRes_Subjects_P00004218_S0001_ECF_r1_swmeanaECF_r1_P00004218_S0001_nii</title>
<ellipse fill="#fffc87" stroke="#808080" cx="5070" cy="-306" rx="418.51" ry="18"/>
<text text-anchor="middle" x="5070" y="-300.4" font-family="Times,serif" font-size="14.00">/share/data/studies/CogRes/Subjects/P00004218/S0001/ECF_r1/swmeanaECF_r1_P00004218_S0001.nii</text>
</g>
<!-- n_share_data_studies_CogRes_Subjects_P00004218_S0001_ECF_r1_swmeanaECF_r1_P00004218_S0001_nii&#45;&gt;nmatlabbatch1_spm_spatial_smooth_prefix -->
<g id="edge25" class="edge"><title>n_share_data_studies_CogRes_Subjects_P00004218_S0001_ECF_r1_swmeanaECF_r1_P00004218_S0001_nii&#45;&gt;nmatlabbatch1_spm_spatial_smooth_prefix</title>
<path fill="none" stroke="black" d="M4888.52,-322.232C4733.16,-335.272 4512.9,-353.759 4372.24,-365.565"/>
<polygon fill="black" stroke="black" points="4371.92,-362.079 4362.25,-366.403 4372.51,-369.055 4371.92,-362.079"/>
<text text-anchor="middle" x="4882.13" y="-332.604" font-family="Times,serif" font-size="8.00">der</text>
</g>
<!-- nann9 -->
<g id="node22" class="node"><title>nann9</title>
<polygon fill="none" stroke="gray" points="5176,-252 4958,-252 4958,-216 5182,-216 5182,-246 5176,-252"/>
<polyline fill="none" stroke="gray" points="5176,-252 5176,-246 "/>
<polyline fill="none" stroke="gray" points="5182,-246 5176,-246 "/>
<text text-anchor="start" x="4968" y="-235.5" font-family="Times,serif" font-size="10.00">type:</text>
<text text-anchor="start" x="5013" y="-235.5" font-family="Times,serif" font-size="10.00">ImageIndex</text>
<text text-anchor="start" x="4968" y="-223" font-family="Times,serif" font-size="10.00">structpath:</text>
<text text-anchor="start" x="5013" y="-223" font-family="Times,serif" font-size="10.00">matlabbatch1.spm.spatial.smooth.prefix</text>
</g>
<!-- nann9&#45;&gt;n_share_data_studies_CogRes_Subjects_P00004218_S0001_ECF_r1_swmeanaECF_r1_P00004218_S0001_nii -->
<g id="edge10" class="edge"><title>nann9&#45;&gt;n_share_data_studies_CogRes_Subjects_P00004218_S0001_ECF_r1_swmeanaECF_r1_P00004218_S0001_nii</title>
<path fill="none" stroke="gray" stroke-dasharray="5,2" d="M5070,-252.303C5070,-263.154 5070,-277.083 5070,-287.896"/>
</g>
<!-- n_share_data_studies_CogRes_Subjects_P00004218_S0001_ECF_r2_swaECF_r2_P00004218_S0001_nii -->
<g id="node23" class="node"><title>n_share_data_studies_CogRes_Subjects_P00004218_S0001_ECF_r2_swaECF_r2_P00004218_S0001_nii</title>
<ellipse fill="#fffc87" stroke="#808080" cx="5904" cy="-306" rx="397.685" ry="18"/>
<text text-anchor="middle" x="5904" y="-300.4" font-family="Times,serif" font-size="14.00">/share/data/studies/CogRes/Subjects/P00004218/S0001/ECF_r2/swaECF_r2_P00004218_S0001.nii</text>
</g>
<!-- n_share_data_studies_CogRes_Subjects_P00004218_S0001_ECF_r2_swaECF_r2_P00004218_S0001_nii&#45;&gt;nmatlabbatch1_spm_spatial_smooth_prefix -->
<g id="edge26" class="edge"><title>n_share_data_studies_CogRes_Subjects_P00004218_S0001_ECF_r2_swaECF_r2_P00004218_S0001_nii&#45;&gt;nmatlabbatch1_spm_spatial_smooth_prefix</title>
<path fill="none" stroke="black" d="M5623.4,-318.776C5271.56,-333.541 4680.21,-358.358 4396.86,-370.249"/>
<polygon fill="black" stroke="black" points="4396.34,-366.768 4386.5,-370.684 4396.63,-373.762 4396.34,-366.768"/>
<text text-anchor="middle" x="5616.45" y="-328.869" font-family="Times,serif" font-size="8.00">der</text>
</g>
<!-- nann10 -->
<g id="node24" class="node"><title>nann10</title>
<polygon fill="none" stroke="gray" points="6010,-252 5792,-252 5792,-216 6016,-216 6016,-246 6010,-252"/>
<polyline fill="none" stroke="gray" points="6010,-252 6010,-246 "/>
<polyline fill="none" stroke="gray" points="6016,-246 6010,-246 "/>
<text text-anchor="start" x="5802" y="-235.5" font-family="Times,serif" font-size="10.00">type:</text>
<text text-anchor="start" x="5847" y="-235.5" font-family="Times,serif" font-size="10.00">ImageIndex</text>
<text text-anchor="start" x="5802" y="-223" font-family="Times,serif" font-size="10.00">structpath:</text>
<text text-anchor="start" x="5847" y="-223" font-family="Times,serif" font-size="10.00">matlabbatch1.spm.spatial.smooth.prefix</text>
</g>
<!-- nann10&#45;&gt;n_share_data_studies_CogRes_Subjects_P00004218_S0001_ECF_r2_swaECF_r2_P00004218_S0001_nii -->
<g id="edge11" class="edge"><title>nann10&#45;&gt;n_share_data_studies_CogRes_Subjects_P00004218_S0001_ECF_r2_swaECF_r2_P00004218_S0001_nii</title>
<path fill="none" stroke="gray" stroke-dasharray="5,2" d="M5904,-252.303C5904,-263.154 5904,-277.083 5904,-287.896"/>
</g>
<!-- n_share_data_studies_CogRes_Subjects_P00004218_S0001_ECF_r1_waECF_r1_P00004218_S0001_nii -->
<g id="node25" class="node"><title>n_share_data_studies_CogRes_Subjects_P00004218_S0001_ECF_r1_waECF_r1_P00004218_S0001_nii</title>
<ellipse fill="#fffc87" stroke="#808080" cx="610" cy="-306" rx="393.669" ry="18"/>
<text text-anchor="middle" x="610" y="-300.4" font-family="Times,serif" font-size="14.00">/share/data/studies/CogRes/Subjects/P00004218/S0001/ECF_r1/waECF_r1_P00004218_S0001.nii</text>
</g>
<!-- n_share_data_studies_CogRes_Subjects_P00004218_S0001_ECF_r1_waECF_r1_P00004218_S0001_nii&#45;&gt;nmatlabbatch1_spm_spatial_smooth_data -->
<g id="edge27" class="edge"><title>n_share_data_studies_CogRes_Subjects_P00004218_S0001_ECF_r1_waECF_r1_P00004218_S0001_nii&#45;&gt;nmatlabbatch1_spm_spatial_smooth_data</title>
<path fill="none" stroke="black" d="M787.92,-322.06C942.838,-335.173 1163.96,-353.889 1303.96,-365.739"/>
<polygon fill="black" stroke="black" points="1304.05,-369.259 1314.31,-366.615 1304.64,-362.284 1304.05,-369.259"/>
<text text-anchor="middle" x="796.489" y="-306.548" font-family="Times,serif" font-size="8.00">use</text>
</g>
<!-- nann11 -->
<g id="node26" class="node"><title>nann11</title>
<polygon fill="none" stroke="gray" points="712.5,-252 501.5,-252 501.5,-216 718.5,-216 718.5,-246 712.5,-252"/>
<polyline fill="none" stroke="gray" points="712.5,-252 712.5,-246 "/>
<polyline fill="none" stroke="gray" points="718.5,-246 712.5,-246 "/>
<text text-anchor="start" x="512" y="-235.5" font-family="Times,serif" font-size="10.00">type:</text>
<text text-anchor="start" x="557" y="-235.5" font-family="Times,serif" font-size="10.00">ImageIndex</text>
<text text-anchor="start" x="512" y="-223" font-family="Times,serif" font-size="10.00">structpath:</text>
<text text-anchor="start" x="557" y="-223" font-family="Times,serif" font-size="10.00">matlabbatch1.spm.spatial.smooth.data</text>
</g>
<!-- nann11&#45;&gt;n_share_data_studies_CogRes_Subjects_P00004218_S0001_ECF_r1_waECF_r1_P00004218_S0001_nii -->
<g id="edge12" class="edge"><title>nann11&#45;&gt;n_share_data_studies_CogRes_Subjects_P00004218_S0001_ECF_r1_waECF_r1_P00004218_S0001_nii</title>
<path fill="none" stroke="gray" stroke-dasharray="5,2" d="M610,-252.303C610,-263.154 610,-277.083 610,-287.896"/>
</g>
<!-- n_share_data_studies_CogRes_Subjects_P00004218_S0001_ECF_r1_wmeanaECF_r1_P00004218_S0001_nii -->
<g id="node27" class="node"><title>n_share_data_studies_CogRes_Subjects_P00004218_S0001_ECF_r1_wmeanaECF_r1_P00004218_S0001_nii</title>
<ellipse fill="#fffc87" stroke="#808080" cx="1437" cy="-306" rx="414.994" ry="18"/>
<text text-anchor="middle" x="1437" y="-300.4" font-family="Times,serif" font-size="14.00">/share/data/studies/CogRes/Subjects/P00004218/S0001/ECF_r1/wmeanaECF_r1_P00004218_S0001.nii</text>
</g>
<!-- n_share_data_studies_CogRes_Subjects_P00004218_S0001_ECF_r1_wmeanaECF_r1_P00004218_S0001_nii&#45;&gt;nmatlabbatch1_spm_spatial_smooth_data -->
<g id="edge28" class="edge"><title>n_share_data_studies_CogRes_Subjects_P00004218_S0001_ECF_r1_wmeanaECF_r1_P00004218_S0001_nii&#45;&gt;nmatlabbatch1_spm_spatial_smooth_data</title>
<path fill="none" stroke="black" d="M1437,-324.303C1437,-332.017 1437,-341.288 1437,-349.888"/>
<polygon fill="black" stroke="black" points="1433.5,-349.896 1437,-359.896 1440.5,-349.896 1433.5,-349.896"/>
<text text-anchor="middle" x="1449.99" y="-328.603" font-family="Times,serif" font-size="8.00">use</text>
</g>
<!-- nann12 -->
<g id="node28" class="node"><title>nann12</title>
<polygon fill="none" stroke="gray" points="1539.5,-252 1328.5,-252 1328.5,-216 1545.5,-216 1545.5,-246 1539.5,-252"/>
<polyline fill="none" stroke="gray" points="1539.5,-252 1539.5,-246 "/>
<polyline fill="none" stroke="gray" points="1545.5,-246 1539.5,-246 "/>
<text text-anchor="start" x="1339" y="-235.5" font-family="Times,serif" font-size="10.00">type:</text>
<text text-anchor="start" x="1384" y="-235.5" font-family="Times,serif" font-size="10.00">ImageIndex</text>
<text text-anchor="start" x="1339" y="-223" font-family="Times,serif" font-size="10.00">structpath:</text>
<text text-anchor="start" x="1384" y="-223" font-family="Times,serif" font-size="10.00">matlabbatch1.spm.spatial.smooth.data</text>
</g>
<!-- nann12&#45;&gt;n_share_data_studies_CogRes_Subjects_P00004218_S0001_ECF_r1_wmeanaECF_r1_P00004218_S0001_nii -->
<g id="edge13" class="edge"><title>nann12&#45;&gt;n_share_data_studies_CogRes_Subjects_P00004218_S0001_ECF_r1_wmeanaECF_r1_P00004218_S0001_nii</title>
<path fill="none" stroke="gray" stroke-dasharray="5,2" d="M1437,-252.303C1437,-263.154 1437,-277.083 1437,-287.896"/>
</g>
<!-- n_share_data_studies_CogRes_Subjects_P00004218_S0001_ECF_r2_waECF_r2_P00004218_S0001_nii -->
<g id="node29" class="node"><title>n_share_data_studies_CogRes_Subjects_P00004218_S0001_ECF_r2_waECF_r2_P00004218_S0001_nii</title>
<ellipse fill="#fffc87" stroke="#808080" cx="2264" cy="-306" rx="393.669" ry="18"/>
<text text-anchor="middle" x="2264" y="-300.4" font-family="Times,serif" font-size="14.00">/share/data/studies/CogRes/Subjects/P00004218/S0001/ECF_r2/waECF_r2_P00004218_S0001.nii</text>
</g>
<!-- n_share_data_studies_CogRes_Subjects_P00004218_S0001_ECF_r2_waECF_r2_P00004218_S0001_nii&#45;&gt;nmatlabbatch1_spm_spatial_smooth_data -->
<g id="edge29" class="edge"><title>n_share_data_studies_CogRes_Subjects_P00004218_S0001_ECF_r2_waECF_r2_P00004218_S0001_nii&#45;&gt;nmatlabbatch1_spm_spatial_smooth_data</title>
<path fill="none" stroke="black" d="M2086.08,-322.06C1931.16,-335.173 1710.04,-353.889 1570.04,-365.739"/>
<polygon fill="black" stroke="black" points="1569.36,-362.284 1559.69,-366.615 1569.95,-369.259 1569.36,-362.284"/>
<text text-anchor="middle" x="2079.7" y="-332.436" font-family="Times,serif" font-size="8.00">use</text>
</g>
<!-- nann13 -->
<g id="node30" class="node"><title>nann13</title>
<polygon fill="none" stroke="gray" points="2366.5,-252 2155.5,-252 2155.5,-216 2372.5,-216 2372.5,-246 2366.5,-252"/>
<polyline fill="none" stroke="gray" points="2366.5,-252 2366.5,-246 "/>
<polyline fill="none" stroke="gray" points="2372.5,-246 2366.5,-246 "/>
<text text-anchor="start" x="2166" y="-235.5" font-family="Times,serif" font-size="10.00">type:</text>
<text text-anchor="start" x="2211" y="-235.5" font-family="Times,serif" font-size="10.00">ImageIndex</text>
<text text-anchor="start" x="2166" y="-223" font-family="Times,serif" font-size="10.00">structpath:</text>
<text text-anchor="start" x="2211" y="-223" font-family="Times,serif" font-size="10.00">matlabbatch1.spm.spatial.smooth.data</text>
</g>
<!-- nann13&#45;&gt;n_share_data_studies_CogRes_Subjects_P00004218_S0001_ECF_r2_waECF_r2_P00004218_S0001_nii -->
<g id="edge14" class="edge"><title>nann13&#45;&gt;n_share_data_studies_CogRes_Subjects_P00004218_S0001_ECF_r2_waECF_r2_P00004218_S0001_nii</title>
<path fill="none" stroke="gray" stroke-dasharray="5,2" d="M2264,-252.303C2264,-263.154 2264,-277.083 2264,-287.896"/>
</g>
</g>
</svg>
