<?xml version="1.0" encoding="UTF-8" standalone="no"?>
<!DOCTYPE svg PUBLIC "-//W3C//DTD SVG 1.1//EN"
 "http://www.w3.org/Graphics/SVG/1.1/DTD/svg11.dtd">
<!-- Generated by graphviz version 2.30.0 (20130114.0426)
 -->
<!-- Title: PROV Pages: 1 -->
<svg width="566pt" height="320pt"
 viewBox="0.00 0.00 566.00 320.00" xmlns="http://www.w3.org/2000/svg" xmlns:xlink="http://www.w3.org/1999/xlink">
<g id="graph0" class="graph" transform="scale(1 1) rotate(0) translate(4 316)">
<title>PROV</title>
<polygon fill="white" stroke="white" points="-4,5 -4,-316 563,-316 563,5 -4,5"/>
<!-- nEstimate -->
<g id="node1" class="node"><title>nEstimate</title>
<polygon fill="#9fb1fc" stroke="#0000ff" points="64.4863,-42 -0.48633,-42 -0.48633,-6 64.4863,-6 64.4863,-42"/>
<text text-anchor="middle" x="32" y="-18.4" font-family="Times,serif" font-size="14.00">Estimate</text>
</g>
<!-- nSPM -->
<g id="node2" class="node"><title>nSPM</title>
<ellipse fill="#fffc87" stroke="#808080" cx="198" cy="-294" rx="30.2297" ry="18"/>
<text text-anchor="middle" x="198" y="-288.4" font-family="Times,serif" font-size="14.00">SPM</text>
</g>
<!-- nann0 -->
<g id="node3" class="node"><title>nann0</title>
<polygon fill="none" stroke="gray" points="136,-239.5 0,-239.5 0,-156.5 142,-156.5 142,-233.5 136,-239.5"/>
<polyline fill="none" stroke="gray" points="136,-239.5 136,-233.5 "/>
<polyline fill="none" stroke="gray" points="142,-233.5 136,-233.5 "/>
<text text-anchor="start" x="10" y="-223.5" font-family="Times,serif" font-size="10.00">nscan:</text>
<text text-anchor="start" x="46" y="-223.5" font-family="Times,serif" font-size="10.00">[240, 240]</text>
<text text-anchor="start" x="10" y="-211" font-family="Times,serif" font-size="10.00">swd:</text>
<text text-anchor="start" x="46" y="-211" font-family="Times,serif" font-size="10.00">TestProvn</text>
<text text-anchor="start" x="10" y="-199" font-family="Times,serif" font-size="10.00">FWHM:</text>
<text text-anchor="start" x="46" y="-199" font-family="Times,serif" font-size="10.00">[7.832, 6.26, 5.147]</text>
<text text-anchor="start" x="10" y="-187" font-family="Times,serif" font-size="10.00">R:</text>
<text text-anchor="start" x="46" y="-187" font-family="Times,serif" font-size="10.00">[3, 43.72, 366, 729.9]</text>
<text text-anchor="start" x="10" y="-175" font-family="Times,serif" font-size="10.00">S:</text>
<text text-anchor="start" x="46" y="-175" font-family="Times,serif" font-size="10.00">1.988e+05</text>
<text text-anchor="start" x="10" y="-163" font-family="Times,serif" font-size="10.00">DIM:</text>
<text text-anchor="start" x="46" y="-163" font-family="Times,serif" font-size="10.00">[79,95,68]</text>
</g>
<!-- nann0&#45;&gt;nSPM -->
<g id="edge1" class="edge"><title>nann0&#45;&gt;nSPM</title>
<path fill="none" stroke="gray" stroke-dasharray="5,2" d="M125.965,-239.683C145.272,-253.973 165.651,-269.057 179.787,-279.52"/>
</g>
<!-- nSess_1 -->
<g id="node4" class="node"><title>nSess_1</title>
<ellipse fill="#fffc87" stroke="#808080" cx="198" cy="-198" rx="37.7337" ry="18"/>
<text text-anchor="middle" x="198" y="-192.4" font-family="Times,serif" font-size="14.00">Sess_1</text>
</g>
<!-- nSess_1&#45;&gt;nSPM -->
<g id="edge6" class="edge"><title>nSess_1&#45;&gt;nSPM</title>
<path fill="none" stroke="black" d="M198,-216.241C198,-230.022 198,-249.6 198,-265.535"/>
<polygon fill="black" stroke="black" points="194.5,-265.868 198,-275.868 201.5,-265.868 194.5,-265.868"/>
<text text-anchor="middle" x="210.99" y="-220.541" font-family="Times,serif" font-size="8.00">der</text>
</g>
<!-- nann1 -->
<g id="node5" class="node"><title>nann1</title>
<polygon fill="none" stroke="gray" points="109.5,-120 42.5,-120 42.5,-84 115.5,-84 115.5,-114 109.5,-120"/>
<polyline fill="none" stroke="gray" points="109.5,-120 109.5,-114 "/>
<polyline fill="none" stroke="gray" points="115.5,-114 109.5,-114 "/>
<text text-anchor="start" x="53" y="-103.5" font-family="Times,serif" font-size="10.00">col:</text>
<text text-anchor="start" x="91" y="-103.5" font-family="Times,serif" font-size="10.00">1</text>
<text text-anchor="start" x="53" y="-91" font-family="Times,serif" font-size="10.00">HParam:</text>
<text text-anchor="start" x="91" y="-91" font-family="Times,serif" font-size="10.00">128</text>
</g>
<!-- nann1&#45;&gt;nSess_1 -->
<g id="edge2" class="edge"><title>nann1&#45;&gt;nSess_1</title>
<path fill="none" stroke="gray" stroke-dasharray="5,2" d="M103.376,-120.178C117.501,-130.32 135.501,-143.57 151,-156 161.306,-164.265 172.463,-173.964 181.32,-181.853"/>
</g>
<!-- nActivityOn_1 -->
<g id="node6" class="node"><title>nActivityOn_1</title>
<ellipse fill="#fffc87" stroke="#808080" cx="198" cy="-102" rx="64.2903" ry="18"/>
<text text-anchor="middle" x="198" y="-96.4" font-family="Times,serif" font-size="14.00">ActivityOn_1</text>
</g>
<!-- nActivityOn_1&#45;&gt;nSess_1 -->
<g id="edge7" class="edge"><title>nActivityOn_1&#45;&gt;nSess_1</title>
<path fill="none" stroke="black" d="M198,-120.241C198,-134.022 198,-153.6 198,-169.535"/>
<polygon fill="black" stroke="black" points="194.5,-169.868 198,-179.868 201.5,-169.868 194.5,-169.868"/>
<text text-anchor="middle" x="210.99" y="-124.541" font-family="Times,serif" font-size="8.00">der</text>
</g>
<!-- nann2 -->
<g id="node7" class="node"><title>nann2</title>
<polygon fill="none" stroke="gray" points="305.5,-47.5 82.5,-47.5 82.5,-0.5 311.5,-0.5 311.5,-41.5 305.5,-47.5"/>
<polyline fill="none" stroke="gray" points="305.5,-47.5 305.5,-41.5 "/>
<polyline fill="none" stroke="gray" points="311.5,-41.5 305.5,-41.5 "/>
<text text-anchor="start" x="93" y="-31.5" font-family="Times,serif" font-size="10.00">ons:</text>
<text text-anchor="start" x="116" y="-31.5" font-family="Times,serif" font-size="10.00">[40,80,120,160,200,240,280,320,360,400,440]</text>
<text text-anchor="start" x="93" y="-19" font-family="Times,serif" font-size="10.00">dur:</text>
<text text-anchor="start" x="116" y="-19" font-family="Times,serif" font-size="10.00">[20,20,20,20,20,20,20,20,20,20,20]</text>
<text text-anchor="start" x="93" y="-7" font-family="Times,serif" font-size="10.00">Sess:</text>
<text text-anchor="start" x="116" y="-7" font-family="Times,serif" font-size="10.00">1</text>
</g>
<!-- nann2&#45;&gt;nActivityOn_1 -->
<g id="edge3" class="edge"><title>nann2&#45;&gt;nActivityOn_1</title>
<path fill="none" stroke="gray" stroke-dasharray="5,2" d="M197.3,-47.8025C197.452,-59.3454 197.633,-73.1283 197.773,-83.7722"/>
</g>
<!-- nSess_2 -->
<g id="node8" class="node"><title>nSess_2</title>
<ellipse fill="#fffc87" stroke="#808080" cx="319" cy="-198" rx="37.7337" ry="18"/>
<text text-anchor="middle" x="319" y="-192.4" font-family="Times,serif" font-size="14.00">Sess_2</text>
</g>
<!-- nSess_2&#45;&gt;nSPM -->
<g id="edge8" class="edge"><title>nSess_2&#45;&gt;nSPM</title>
<path fill="none" stroke="black" d="M300.094,-213.688C279.493,-229.691 246.422,-255.383 223.527,-273.169"/>
<polygon fill="black" stroke="black" points="221.344,-270.433 215.594,-279.332 225.639,-275.961 221.344,-270.433"/>
<text text-anchor="middle" x="302.14" y="-225.347" font-family="Times,serif" font-size="8.00">der</text>
</g>
<!-- nann3 -->
<g id="node9" class="node"><title>nann3</title>
<polygon fill="none" stroke="gray" points="349.5,-120 282.5,-120 282.5,-84 355.5,-84 355.5,-114 349.5,-120"/>
<polyline fill="none" stroke="gray" points="349.5,-120 349.5,-114 "/>
<polyline fill="none" stroke="gray" points="355.5,-114 349.5,-114 "/>
<text text-anchor="start" x="293" y="-103.5" font-family="Times,serif" font-size="10.00">col:</text>
<text text-anchor="start" x="331" y="-103.5" font-family="Times,serif" font-size="10.00">2</text>
<text text-anchor="start" x="293" y="-91" font-family="Times,serif" font-size="10.00">HParam:</text>
<text text-anchor="start" x="331" y="-91" font-family="Times,serif" font-size="10.00">128</text>
</g>
<!-- nann3&#45;&gt;nSess_2 -->
<g id="edge4" class="edge"><title>nann3&#45;&gt;nSess_2</title>
<path fill="none" stroke="gray" stroke-dasharray="5,2" d="M319,-120.241C319,-137.202 319,-162.945 319,-179.868"/>
</g>
<!-- nActivityOn_2 -->
<g id="node10" class="node"><title>nActivityOn_2</title>
<ellipse fill="#fffc87" stroke="#808080" cx="442" cy="-102" rx="64.2903" ry="18"/>
<text text-anchor="middle" x="442" y="-96.4" font-family="Times,serif" font-size="14.00">ActivityOn_2</text>
</g>
<!-- nActivityOn_2&#45;&gt;nSess_2 -->
<g id="edge9" class="edge"><title>nActivityOn_2&#45;&gt;nSess_2</title>
<path fill="none" stroke="black" d="M420.856,-119.159C400.269,-134.892 368.882,-158.878 346.394,-176.065"/>
<polygon fill="black" stroke="black" points="344.072,-173.434 338.251,-182.287 348.322,-178.996 344.072,-173.434"/>
<text text-anchor="middle" x="422.784" y="-130.835" font-family="Times,serif" font-size="8.00">der</text>
</g>
<!-- nann4 -->
<g id="node11" class="node"><title>nann4</title>
<polygon fill="none" stroke="gray" points="552.5,-47.5 329.5,-47.5 329.5,-0.5 558.5,-0.5 558.5,-41.5 552.5,-47.5"/>
<polyline fill="none" stroke="gray" points="552.5,-47.5 552.5,-41.5 "/>
<polyline fill="none" stroke="gray" points="558.5,-41.5 552.5,-41.5 "/>
<text text-anchor="start" x="340" y="-31.5" font-family="Times,serif" font-size="10.00">ons:</text>
<text text-anchor="start" x="363" y="-31.5" font-family="Times,serif" font-size="10.00">[40,80,120,160,200,240,280,320,360,400,440]</text>
<text text-anchor="start" x="340" y="-19" font-family="Times,serif" font-size="10.00">dur:</text>
<text text-anchor="start" x="363" y="-19" font-family="Times,serif" font-size="10.00">[20,20,20,20,20,20,20,20,20,20,20]</text>
<text text-anchor="start" x="340" y="-7" font-family="Times,serif" font-size="10.00">Sess:</text>
<text text-anchor="start" x="363" y="-7" font-family="Times,serif" font-size="10.00">2</text>
</g>
<!-- nann4&#45;&gt;nActivityOn_2 -->
<g id="edge5" class="edge"><title>nann4&#45;&gt;nActivityOn_2</title>
<path fill="none" stroke="gray" stroke-dasharray="5,2" d="M443.4,-47.8025C443.096,-59.3454 442.733,-73.1283 442.453,-83.7722"/>
</g>
</g>
</svg>
