<?xml version="1.0" encoding="UTF-8" standalone="no"?>
<!DOCTYPE svg PUBLIC "-//W3C//DTD SVG 1.1//EN"
 "http://www.w3.org/Graphics/SVG/1.1/DTD/svg11.dtd">
<!-- Generated by graphviz version 2.30.0 (20130114.0426)
 -->
<!-- Title: PROV Pages: 1 -->
<svg width="1152pt" height="178pt"
 viewBox="0.00 0.00 1152.00 177.52" xmlns="http://www.w3.org/2000/svg" xmlns:xlink="http://www.w3.org/1999/xlink">
<g id="graph0" class="graph" transform="scale(0.944262 0.944262) rotate(0) translate(4 184)">
<title>PROV</title>
<polygon fill="white" stroke="white" points="-4,5 -4,-184 1217,-184 1217,5 -4,5"/>
<!-- nspm_spatial_preproc -->
<g id="node1" class="node"><title>nspm_spatial_preproc</title>
<polygon fill="#9fb1fc" stroke="#0000ff" points="198.635,-108 73.3647,-108 73.3647,-72 198.635,-72 198.635,-108"/>
<text text-anchor="middle" x="136" y="-84.4" font-family="Times,serif" font-size="14.00">spm.spatial.preproc</text>
</g>
<!-- ndata_1 -->
<g id="node8" class="node"><title>ndata_1</title>
<ellipse fill="#fffc87" stroke="#808080" cx="36" cy="-162" rx="36.5561" ry="18"/>
<text text-anchor="middle" x="36" y="-156.4" font-family="Times,serif" font-size="14.00">data_1</text>
</g>
<!-- nspm_spatial_preproc&#45;&gt;ndata_1 -->
<g id="edge2" class="edge"><title>nspm_spatial_preproc&#45;&gt;ndata_1</title>
<path fill="none" stroke="black" d="M111.537,-108.124C97.3266,-118.071 79.3539,-130.652 64.5051,-141.046"/>
<polygon fill="black" stroke="black" points="62.3606,-138.275 56.1754,-146.877 66.3748,-144.01 62.3606,-138.275"/>
<text text-anchor="middle" x="112.843" y="-119.867" font-family="Times,serif" font-size="8.00">use</text>
</g>
<!-- noutput_1 -->
<g id="node9" class="node"><title>noutput_1</title>
<ellipse fill="#fffc87" stroke="#808080" cx="136" cy="-162" rx="45.2471" ry="18"/>
<text text-anchor="middle" x="136" y="-156.4" font-family="Times,serif" font-size="14.00">output_1</text>
</g>
<!-- nspm_spatial_preproc&#45;&gt;noutput_1 -->
<g id="edge3" class="edge"><title>nspm_spatial_preproc&#45;&gt;noutput_1</title>
<path fill="none" stroke="black" d="M136,-108.303C136,-116.017 136,-125.288 136,-133.888"/>
<polygon fill="black" stroke="black" points="132.5,-133.896 136,-143.896 139.5,-133.896 132.5,-133.896"/>
<text text-anchor="middle" x="148.99" y="-112.603" font-family="Times,serif" font-size="8.00">use</text>
</g>
<!-- nspm_temporal_st -->
<g id="node2" class="node"><title>nspm_temporal_st</title>
<polygon fill="#9fb1fc" stroke="#0000ff" points="391.935,-108 286.065,-108 286.065,-72 391.935,-72 391.935,-108"/>
<text text-anchor="middle" x="339" y="-84.4" font-family="Times,serif" font-size="14.00">spm.temporal.st</text>
</g>
<!-- nscans_2 -->
<g id="node10" class="node"><title>nscans_2</title>
<ellipse fill="#fffc87" stroke="#808080" cx="241" cy="-162" rx="41.7214" ry="18"/>
<text text-anchor="middle" x="241" y="-156.4" font-family="Times,serif" font-size="14.00">scans_2</text>
</g>
<!-- nspm_temporal_st&#45;&gt;nscans_2 -->
<g id="edge5" class="edge"><title>nspm_temporal_st&#45;&gt;nscans_2</title>
<path fill="none" stroke="black" d="M315.027,-108.124C301.512,-117.777 284.525,-129.911 270.233,-140.119"/>
<polygon fill="black" stroke="black" points="267.841,-137.526 261.738,-146.187 271.91,-143.223 267.841,-137.526"/>
<text text-anchor="middle" x="316.474" y="-119.854" font-family="Times,serif" font-size="8.00">use</text>
</g>
<!-- nnslices_2 -->
<g id="node11" class="node"><title>nnslices_2</title>
<ellipse fill="#fffc87" stroke="#808080" cx="348" cy="-162" rx="46.9531" ry="18"/>
<text text-anchor="middle" x="348" y="-156.4" font-family="Times,serif" font-size="14.00">nslices_2</text>
</g>
<!-- nspm_temporal_st&#45;&gt;nnslices_2 -->
<g id="edge6" class="edge"><title>nspm_temporal_st&#45;&gt;nnslices_2</title>
<path fill="none" stroke="black" d="M341.225,-108.303C342.217,-116.017 343.408,-125.288 344.514,-133.888"/>
<polygon fill="black" stroke="black" points="341.054,-134.424 345.801,-143.896 347.997,-133.531 341.054,-134.424"/>
<text text-anchor="middle" x="355.065" y="-110.886" font-family="Times,serif" font-size="8.00">use</text>
</g>
<!-- nspm_spatial_realign_estwrite -->
<g id="node3" class="node"><title>nspm_spatial_realign_estwrite</title>
<polygon fill="#9fb1fc" stroke="#0000ff" points="579.57,-108 410.43,-108 410.43,-72 579.57,-72 579.57,-108"/>
<text text-anchor="middle" x="495" y="-84.4" font-family="Times,serif" font-size="14.00">spm.spatial.realign.estwrite</text>
</g>
<!-- ndata_3 -->
<g id="node12" class="node"><title>ndata_3</title>
<ellipse fill="#fffc87" stroke="#808080" cx="450" cy="-162" rx="36.5561" ry="18"/>
<text text-anchor="middle" x="450" y="-156.4" font-family="Times,serif" font-size="14.00">data_3</text>
</g>
<!-- nspm_spatial_realign_estwrite&#45;&gt;ndata_3 -->
<g id="edge8" class="edge"><title>nspm_spatial_realign_estwrite&#45;&gt;ndata_3</title>
<path fill="none" stroke="black" d="M483.876,-108.303C478.567,-116.563 472.11,-126.606 466.264,-135.701"/>
<polygon fill="black" stroke="black" points="463.149,-134.073 460.686,-144.378 469.038,-137.859 463.149,-134.073"/>
<text text-anchor="middle" x="490.748" y="-118.437" font-family="Times,serif" font-size="8.00">use</text>
</g>
<!-- neoptions_3 -->
<g id="node13" class="node"><title>neoptions_3</title>
<ellipse fill="#fffc87" stroke="#808080" cx="558" cy="-162" rx="53.3355" ry="18"/>
<text text-anchor="middle" x="558" y="-156.4" font-family="Times,serif" font-size="14.00">eoptions_3</text>
</g>
<!-- nspm_spatial_realign_estwrite&#45;&gt;neoptions_3 -->
<g id="edge9" class="edge"><title>nspm_spatial_realign_estwrite&#45;&gt;neoptions_3</title>
<path fill="none" stroke="black" d="M510.573,-108.303C518.316,-116.907 527.801,-127.446 536.249,-136.832"/>
<polygon fill="black" stroke="black" points="533.749,-139.286 543.04,-144.378 538.952,-134.603 533.749,-139.286"/>
<text text-anchor="middle" x="525.246" y="-101.988" font-family="Times,serif" font-size="8.00">use</text>
</g>
<!-- nspm_spatial_coreg_estimate -->
<g id="node4" class="node"><title>nspm_spatial_coreg_estimate</title>
<polygon fill="#9fb1fc" stroke="#0000ff" points="762.121,-108 597.879,-108 597.879,-72 762.121,-72 762.121,-108"/>
<text text-anchor="middle" x="680" y="-84.4" font-family="Times,serif" font-size="14.00">spm.spatial.coreg.estimate</text>
</g>
<!-- nref_4 -->
<g id="node14" class="node"><title>nref_4</title>
<ellipse fill="#fffc87" stroke="#808080" cx="661" cy="-162" rx="31.3229" ry="18"/>
<text text-anchor="middle" x="661" y="-156.4" font-family="Times,serif" font-size="14.00">ref_4</text>
</g>
<!-- nspm_spatial_coreg_estimate&#45;&gt;nref_4 -->
<g id="edge11" class="edge"><title>nspm_spatial_coreg_estimate&#45;&gt;nref_4</title>
<path fill="none" stroke="black" d="M675.303,-108.303C673.187,-116.102 670.638,-125.491 668.282,-134.171"/>
<polygon fill="black" stroke="black" points="664.884,-133.328 665.643,-143.896 671.64,-135.162 664.884,-133.328"/>
<text text-anchor="middle" x="685.876" y="-115.744" font-family="Times,serif" font-size="8.00">use</text>
</g>
<!-- nsource_4 -->
<g id="node15" class="node"><title>nsource_4</title>
<ellipse fill="#fffc87" stroke="#808080" cx="756" cy="-162" rx="45.7937" ry="18"/>
<text text-anchor="middle" x="756" y="-156.4" font-family="Times,serif" font-size="14.00">source_4</text>
</g>
<!-- nspm_spatial_coreg_estimate&#45;&gt;nsource_4 -->
<g id="edge12" class="edge"><title>nspm_spatial_coreg_estimate&#45;&gt;nsource_4</title>
<path fill="none" stroke="black" d="M698.787,-108.303C708.62,-117.36 720.782,-128.563 731.362,-138.307"/>
<polygon fill="black" stroke="black" points="729.003,-140.892 738.729,-145.093 733.745,-135.743 729.003,-140.892"/>
<text text-anchor="middle" x="713.104" y="-100.629" font-family="Times,serif" font-size="8.00">use</text>
</g>
<!-- nspm_spatial_normalise_write -->
<g id="node5" class="node"><title>nspm_spatial_normalise_write</title>
<polygon fill="#9fb1fc" stroke="#0000ff" points="950.356,-108 779.644,-108 779.644,-72 950.356,-72 950.356,-108"/>
<text text-anchor="middle" x="865" y="-84.4" font-family="Times,serif" font-size="14.00">spm.spatial.normalise.write</text>
</g>
<!-- nsubj_5 -->
<g id="node16" class="node"><title>nsubj_5</title>
<ellipse fill="#fffc87" stroke="#808080" cx="857" cy="-162" rx="36.5842" ry="18"/>
<text text-anchor="middle" x="857" y="-156.4" font-family="Times,serif" font-size="14.00">subj_5</text>
</g>
<!-- nspm_spatial_normalise_write&#45;&gt;nsubj_5 -->
<g id="edge14" class="edge"><title>nspm_spatial_normalise_write&#45;&gt;nsubj_5</title>
<path fill="none" stroke="black" d="M863.022,-108.303C862.141,-116.017 861.081,-125.288 860.099,-133.888"/>
<polygon fill="black" stroke="black" points="856.613,-133.563 858.955,-143.896 863.568,-134.358 856.613,-133.563"/>
<text text-anchor="middle" x="875.077" y="-114.03" font-family="Times,serif" font-size="8.00">use</text>
</g>
<!-- nroptions_5 -->
<g id="node17" class="node"><title>nroptions_5</title>
<ellipse fill="#fffc87" stroke="#808080" cx="964" cy="-162" rx="52.195" ry="18"/>
<text text-anchor="middle" x="964" y="-156.4" font-family="Times,serif" font-size="14.00">roptions_5</text>
</g>
<!-- nspm_spatial_normalise_write&#45;&gt;nroptions_5 -->
<g id="edge15" class="edge"><title>nspm_spatial_normalise_write&#45;&gt;nroptions_5</title>
<path fill="none" stroke="black" d="M889.218,-108.124C902.586,-117.576 919.317,-129.406 933.562,-139.478"/>
<polygon fill="black" stroke="black" points="931.873,-142.57 942.058,-145.486 935.914,-136.855 931.873,-142.57"/>
<text text-anchor="middle" x="902.842" y="-98.6471" font-family="Times,serif" font-size="8.00">use</text>
</g>
<!-- nspm_spatial_smooth -->
<g id="node6" class="node"><title>nspm_spatial_smooth</title>
<polygon fill="#9fb1fc" stroke="#0000ff" points="1133.11,-108 1008.89,-108 1008.89,-72 1133.11,-72 1133.11,-108"/>
<text text-anchor="middle" x="1071" y="-84.4" font-family="Times,serif" font-size="14.00">spm.spatial.smooth</text>
</g>
<!-- ndata_6 -->
<g id="node18" class="node"><title>ndata_6</title>
<ellipse fill="#fffc87" stroke="#808080" cx="1071" cy="-162" rx="36.5561" ry="18"/>
<text text-anchor="middle" x="1071" y="-156.4" font-family="Times,serif" font-size="14.00">data_6</text>
</g>
<!-- nspm_spatial_smooth&#45;&gt;ndata_6 -->
<g id="edge17" class="edge"><title>nspm_spatial_smooth&#45;&gt;ndata_6</title>
<path fill="none" stroke="black" d="M1071,-108.303C1071,-116.017 1071,-125.288 1071,-133.888"/>
<polygon fill="black" stroke="black" points="1067.5,-133.896 1071,-143.896 1074.5,-133.896 1067.5,-133.896"/>
<text text-anchor="middle" x="1083.99" y="-112.603" font-family="Times,serif" font-size="8.00">use</text>
</g>
<!-- nfwhm_6 -->
<g id="node19" class="node"><title>nfwhm_6</title>
<ellipse fill="#fffc87" stroke="#808080" cx="1169" cy="-162" rx="43.4475" ry="18"/>
<text text-anchor="middle" x="1169" y="-156.4" font-family="Times,serif" font-size="14.00">fwhm_6</text>
</g>
<!-- nspm_spatial_smooth&#45;&gt;nfwhm_6 -->
<g id="edge18" class="edge"><title>nspm_spatial_smooth&#45;&gt;nfwhm_6</title>
<path fill="none" stroke="black" d="M1094.97,-108.124C1108.49,-117.777 1125.47,-129.911 1139.77,-140.119"/>
<polygon fill="black" stroke="black" points="1138.09,-143.223 1148.26,-146.187 1142.16,-137.526 1138.09,-143.223"/>
<text text-anchor="middle" x="1108.63" y="-98.7125" font-family="Times,serif" font-size="8.00">use</text>
</g>
<!-- nmatlabbatch -->
<g id="node7" class="node"><title>nmatlabbatch</title>
<ellipse fill="#fffc87" stroke="#808080" cx="587" cy="-18" rx="58.4555" ry="18"/>
<text text-anchor="middle" x="587" y="-12.4" font-family="Times,serif" font-size="14.00">matlabbatch</text>
</g>
<!-- nmatlabbatch&#45;&gt;nspm_spatial_preproc -->
<g id="edge1" class="edge"><title>nmatlabbatch&#45;&gt;nspm_spatial_preproc</title>
<path fill="none" stroke="black" d="M536.141,-26.8938C456.095,-39.3179 300.4,-63.4834 208.604,-77.7311"/>
<polygon fill="black" stroke="black" points="207.902,-74.2981 198.557,-79.2905 208.975,-81.2153 207.902,-74.2981"/>
<text text-anchor="middle" x="530.722" y="-37.6808" font-family="Times,serif" font-size="8.00">use</text>
</g>
<!-- nmatlabbatch&#45;&gt;nspm_temporal_st -->
<g id="edge4" class="edge"><title>nmatlabbatch&#45;&gt;nspm_temporal_st</title>
<path fill="none" stroke="black" d="M545.49,-30.7164C506.052,-41.8482 446.239,-58.7309 401.122,-71.4656"/>
<polygon fill="black" stroke="black" points="400.115,-68.113 391.442,-74.1979 402.016,-74.8498 400.115,-68.113"/>
<text text-anchor="middle" x="541.801" y="-42.0557" font-family="Times,serif" font-size="8.00">use</text>
</g>
<!-- nmatlabbatch&#45;&gt;nspm_spatial_realign_estwrite -->
<g id="edge7" class="edge"><title>nmatlabbatch&#45;&gt;nspm_spatial_realign_estwrite</title>
<path fill="none" stroke="black" d="M566.124,-34.8841C554.094,-44.037 538.758,-55.7058 525.409,-65.8629"/>
<polygon fill="black" stroke="black" points="523.24,-63.1151 517.401,-71.9558 527.479,-68.686 523.24,-63.1151"/>
<text text-anchor="middle" x="568.021" y="-46.5636" font-family="Times,serif" font-size="8.00">use</text>
</g>
<!-- nmatlabbatch&#45;&gt;nspm_spatial_coreg_estimate -->
<g id="edge10" class="edge"><title>nmatlabbatch&#45;&gt;nspm_spatial_coreg_estimate</title>
<path fill="none" stroke="black" d="M608.103,-34.8841C620.263,-44.037 635.766,-55.7058 649.261,-65.8629"/>
<polygon fill="black" stroke="black" points="647.261,-68.7384 657.356,-71.9558 651.471,-63.1456 647.261,-68.7384"/>
<text text-anchor="middle" x="621.907" y="-25.8155" font-family="Times,serif" font-size="8.00">use</text>
</g>
<!-- nmatlabbatch&#45;&gt;nspm_spatial_normalise_write -->
<g id="edge13" class="edge"><title>nmatlabbatch&#45;&gt;nspm_spatial_normalise_write</title>
<path fill="none" stroke="black" d="M630.743,-30.0145C672.673,-40.5724 736.886,-56.741 787.485,-69.4818"/>
<polygon fill="black" stroke="black" points="786.861,-72.9338 797.413,-71.9816 788.57,-66.1457 786.861,-72.9338"/>
<text text-anchor="middle" x="641.188" y="-16.0487" font-family="Times,serif" font-size="8.00">use</text>
</g>
<!-- nmatlabbatch&#45;&gt;nspm_spatial_smooth -->
<g id="edge16" class="edge"><title>nmatlabbatch&#45;&gt;nspm_spatial_smooth</title>
<path fill="none" stroke="black" d="M638.776,-26.2248C710.662,-36.2905 844.763,-55.1927 959,-72 971.869,-73.8934 985.565,-75.9432 998.801,-77.9423"/>
<polygon fill="black" stroke="black" points="998.4,-81.4214 1008.81,-79.4576 999.448,-74.5002 998.4,-81.4214"/>
<text text-anchor="middle" x="648.007" y="-11.2017" font-family="Times,serif" font-size="8.00">use</text>
</g>
</g>
</svg>
