<?xml version="1.0" encoding="UTF-8" standalone="no"?>
<!DOCTYPE svg PUBLIC "-//W3C//DTD SVG 1.1//EN"
 "http://www.w3.org/Graphics/SVG/1.1/DTD/svg11.dtd">
<!-- Generated by graphviz version 2.30.0 (20130114.0426)
 -->
<!-- Title: PROV Pages: 1 -->
<svg width="957pt" height="44pt"
 viewBox="0.00 0.00 957.00 44.00" xmlns="http://www.w3.org/2000/svg" xmlns:xlink="http://www.w3.org/1999/xlink">
<g id="graph0" class="graph" transform="scale(1 1) rotate(0) translate(4 40)">
<title>PROV</title>
<polygon fill="white" stroke="white" points="-4,5 -4,-40 954,-40 954,5 -4,5"/>
<!-- nspm_spatial_preproc -->
<g id="node1" class="node"><title>nspm_spatial_preproc</title>
<polygon fill="#9fb1fc" stroke="#0000ff" points="124.635,-36 -0.635295,-36 -0.635295,-0 124.635,-0 124.635,-36"/>
<text text-anchor="middle" x="62" y="-12.4" font-family="Times,serif" font-size="14.00">spm.spatial.preproc</text>
</g>
<!-- nspm_temporal_st -->
<g id="node2" class="node"><title>nspm_temporal_st</title>
<polygon fill="#9fb1fc" stroke="#0000ff" points="248.935,-36 143.065,-36 143.065,-0 248.935,-0 248.935,-36"/>
<text text-anchor="middle" x="196" y="-12.4" font-family="Times,serif" font-size="14.00">spm.temporal.st</text>
</g>
<!-- nspm_spatial_realign_estwrite -->
<g id="node3" class="node"><title>nspm_spatial_realign_estwrite</title>
<polygon fill="#9fb1fc" stroke="#0000ff" points="436.57,-36 267.43,-36 267.43,-0 436.57,-0 436.57,-36"/>
<text text-anchor="middle" x="352" y="-12.4" font-family="Times,serif" font-size="14.00">spm.spatial.realign.estwrite</text>
</g>
<!-- nspm_spatial_coreg_estimate -->
<g id="node4" class="node"><title>nspm_spatial_coreg_estimate</title>
<polygon fill="#9fb1fc" stroke="#0000ff" points="619.121,-36 454.879,-36 454.879,-0 619.121,-0 619.121,-36"/>
<text text-anchor="middle" x="537" y="-12.4" font-family="Times,serif" font-size="14.00">spm.spatial.coreg.estimate</text>
</g>
<!-- nspm_spatial_normalise_write -->
<g id="node5" class="node"><title>nspm_spatial_normalise_write</title>
<polygon fill="#9fb1fc" stroke="#0000ff" points="807.356,-36 636.644,-36 636.644,-0 807.356,-0 807.356,-36"/>
<text text-anchor="middle" x="722" y="-12.4" font-family="Times,serif" font-size="14.00">spm.spatial.normalise.write</text>
</g>
<!-- nspm_spatial_smooth -->
<g id="node6" class="node"><title>nspm_spatial_smooth</title>
<polygon fill="#9fb1fc" stroke="#0000ff" points="949.11,-36 824.89,-36 824.89,-0 949.11,-0 949.11,-36"/>
<text text-anchor="middle" x="887" y="-12.4" font-family="Times,serif" font-size="14.00">spm.spatial.smooth</text>
</g>
</g>
</svg>
