<?xml version="1.0" encoding="UTF-8" standalone="no"?>
<!DOCTYPE svg PUBLIC "-//W3C//DTD SVG 1.1//EN"
 "http://www.w3.org/Graphics/SVG/1.1/DTD/svg11.dtd">
<!-- Generated by graphviz version 2.30.0 (20130114.0426)
 -->
<!-- Title: PROV Pages: 1 -->
<svg width="1152pt" height="213pt"
 viewBox="0.00 0.00 1152.00 213.33" xmlns="http://www.w3.org/2000/svg" xmlns:xlink="http://www.w3.org/1999/xlink">
<g id="graph0" class="graph" transform="scale(0.484848 0.484848) rotate(0) translate(4 436)">
<title>PROV</title>
<polygon fill="white" stroke="white" points="-4,5 -4,-436 2373,-436 2373,5 -4,5"/>
<!-- nEstimate -->
<g id="node1" class="node"><title>nEstimate</title>
<polygon fill="#9fb1fc" stroke="#0000ff" points="1101.49,-432 1036.51,-432 1036.51,-396 1101.49,-396 1101.49,-432"/>
<text text-anchor="middle" x="1069" y="-408.4" font-family="Times,serif" font-size="14.00">Estimate</text>
</g>
<!-- nxY -->
<g id="node2" class="node"><title>nxY</title>
<ellipse fill="#fffc87" stroke="#808080" cx="107" cy="-264" rx="27" ry="18"/>
<text text-anchor="middle" x="107" y="-258.4" font-family="Times,serif" font-size="14.00">xY</text>
</g>
<!-- nSPM -->
<g id="node28" class="node"><title>nSPM</title>
<ellipse fill="#fffc87" stroke="#808080" cx="1069" cy="-342" rx="30.2297" ry="18"/>
<text text-anchor="middle" x="1069" y="-336.4" font-family="Times,serif" font-size="14.00">SPM</text>
</g>
<!-- nxY&#45;&gt;nSPM -->
<g id="edge15" class="edge"><title>nxY&#45;&gt;nSPM</title>
<path fill="none" stroke="black" d="M131.232,-272.277C149.858,-277.556 176.325,-284.381 200,-288 516.496,-336.378 904.201,-340.983 1028.58,-341.132"/>
<polygon fill="black" stroke="black" points="1028.77,-344.632 1038.77,-341.134 1028.77,-337.632 1028.77,-344.632"/>
<text text-anchor="middle" x="141.953" y="-258.586" font-family="Times,serif" font-size="8.00">der</text>
</g>
<!-- nann0 -->
<g id="node3" class="node"><title>nann0</title>
<polygon fill="none" stroke="gray" points="94,-125.5 0,-125.5 0,-78.5 100,-78.5 100,-119.5 94,-125.5"/>
<polyline fill="none" stroke="gray" points="94,-125.5 94,-119.5 "/>
<polyline fill="none" stroke="gray" points="100,-119.5 94,-119.5 "/>
<text text-anchor="start" x="10" y="-109.5" font-family="Times,serif" font-size="10.00">RT:</text>
<text text-anchor="start" x="29" y="-109.5" font-family="Times,serif" font-size="10.00">2</text>
<text text-anchor="start" x="10" y="-97" font-family="Times,serif" font-size="10.00">P:</text>
<text text-anchor="start" x="29" y="-97" font-family="Times,serif" font-size="10.00">TBD</text>
<text text-anchor="start" x="10" y="-85" font-family="Times,serif" font-size="10.00">VY:</text>
<text text-anchor="start" x="29" y="-85" font-family="Times,serif" font-size="10.00">TBD&#45;STRUCT</text>
</g>
<!-- nann0&#45;&gt;nxY -->
<g id="edge1" class="edge"><title>nann0&#45;&gt;nxY</title>
<path fill="none" stroke="gray" stroke-dasharray="5,2" d="M58.0458,-125.585C69.6458,-158.146 90.8006,-217.528 101.079,-246.38"/>
</g>
<!-- nxBF -->
<g id="node4" class="node"><title>nxBF</title>
<ellipse fill="#fffc87" stroke="#808080" cx="237" cy="-264" rx="27.8548" ry="18"/>
<text text-anchor="middle" x="237" y="-258.4" font-family="Times,serif" font-size="14.00">xBF</text>
</g>
<!-- nxBF&#45;&gt;nSPM -->
<g id="edge16" class="edge"><title>nxBF&#45;&gt;nSPM</title>
<path fill="none" stroke="black" d="M262.425,-271.026C285.627,-276.299 320.932,-283.762 352,-288 608.131,-322.943 919.104,-336.036 1028.55,-339.762"/>
<polygon fill="black" stroke="black" points="1028.7,-343.269 1038.81,-340.104 1028.93,-336.273 1028.7,-343.269"/>
<text text-anchor="middle" x="272.591" y="-256.796" font-family="Times,serif" font-size="8.00">der</text>
</g>
<!-- nann1 -->
<g id="node5" class="node"><title>nann1</title>
<polygon fill="none" stroke="gray" points="196,-161.5 118,-161.5 118,-42.5 202,-42.5 202,-155.5 196,-161.5"/>
<polyline fill="none" stroke="gray" points="196,-161.5 196,-155.5 "/>
<polyline fill="none" stroke="gray" points="202,-155.5 196,-155.5 "/>
<text text-anchor="start" x="128" y="-145.5" font-family="Times,serif" font-size="10.00">UNITS:</text>
<text text-anchor="start" x="165" y="-145.5" font-family="Times,serif" font-size="10.00">secs</text>
<text text-anchor="start" x="128" y="-133" font-family="Times,serif" font-size="10.00">dt:</text>
<text text-anchor="start" x="165" y="-133" font-family="Times,serif" font-size="10.00">0.125</text>
<text text-anchor="start" x="128" y="-121" font-family="Times,serif" font-size="10.00">T:</text>
<text text-anchor="start" x="165" y="-121" font-family="Times,serif" font-size="10.00">16</text>
<text text-anchor="start" x="128" y="-109" font-family="Times,serif" font-size="10.00">T0:</text>
<text text-anchor="start" x="165" y="-109" font-family="Times,serif" font-size="10.00">1</text>
<text text-anchor="start" x="128" y="-97" font-family="Times,serif" font-size="10.00">name:</text>
<text text-anchor="start" x="165" y="-97" font-family="Times,serif" font-size="10.00">hrf</text>
<text text-anchor="start" x="128" y="-85" font-family="Times,serif" font-size="10.00">length:</text>
<text text-anchor="start" x="165" y="-85" font-family="Times,serif" font-size="10.00">32.125</text>
<text text-anchor="start" x="128" y="-73" font-family="Times,serif" font-size="10.00">order:</text>
<text text-anchor="start" x="165" y="-73" font-family="Times,serif" font-size="10.00">1</text>
<text text-anchor="start" x="128" y="-61" font-family="Times,serif" font-size="10.00">bf:</text>
<text text-anchor="start" x="165" y="-61" font-family="Times,serif" font-size="10.00">TBD</text>
<text text-anchor="start" x="128" y="-49" font-family="Times,serif" font-size="10.00">Volterra:</text>
<text text-anchor="start" x="165" y="-49" font-family="Times,serif" font-size="10.00">1</text>
</g>
<!-- nann1&#45;&gt;nxBF -->
<g id="edge2" class="edge"><title>nann1&#45;&gt;nxBF</title>
<path fill="none" stroke="gray" stroke-dasharray="5,2" d="M188.235,-161.67C202.828,-191.993 219.544,-226.728 229.128,-246.643"/>
</g>
<!-- nSess -->
<g id="node6" class="node"><title>nSess</title>
<ellipse fill="#fffc87" stroke="#808080" cx="389" cy="-264" rx="28.4209" ry="18"/>
<text text-anchor="middle" x="389" y="-258.4" font-family="Times,serif" font-size="14.00">Sess</text>
</g>
<!-- nSess&#45;&gt;nSPM -->
<g id="edge17" class="edge"><title>nSess&#45;&gt;nSPM</title>
<path fill="none" stroke="black" d="M415.497,-270.617C440.528,-275.756 479.174,-283.26 513,-288 705.36,-314.954 937.116,-332.177 1028.83,-338.394"/>
<polygon fill="black" stroke="black" points="1028.84,-341.903 1039.06,-339.081 1029.31,-334.919 1028.84,-341.903"/>
<text text-anchor="middle" x="425.436" y="-256.183" font-family="Times,serif" font-size="8.00">der</text>
</g>
<!-- nann2 -->
<g id="node7" class="node"><title>nann2</title>
<polygon fill="none" stroke="gray" points="378,-137.5 220,-137.5 220,-66.5 384,-66.5 384,-131.5 378,-137.5"/>
<polyline fill="none" stroke="gray" points="378,-137.5 378,-131.5 "/>
<polyline fill="none" stroke="gray" points="384,-131.5 378,-131.5 "/>
<text text-anchor="start" x="230" y="-121.5" font-family="Times,serif" font-size="10.00">U:</text>
<text text-anchor="start" x="251" y="-121.5" font-family="Times,serif" font-size="10.00">TBD&#45;STRUCT</text>
<text text-anchor="start" x="230" y="-109" font-family="Times,serif" font-size="10.00">C:</text>
<text text-anchor="start" x="251" y="-109" font-family="Times,serif" font-size="10.00">TBD&#45;STRUCT</text>
<text text-anchor="start" x="230" y="-97" font-family="Times,serif" font-size="10.00">row:</text>
<text text-anchor="start" x="251" y="-97" font-family="Times,serif" font-size="10.00">TBD</text>
<text text-anchor="start" x="230" y="-85" font-family="Times,serif" font-size="10.00">col:</text>
<text text-anchor="start" x="251" y="-85" font-family="Times,serif" font-size="10.00">[ 1 2 3 4 5 6 7 8 9 10 11 12 13]</text>
<text text-anchor="start" x="230" y="-73" font-family="Times,serif" font-size="10.00">Fc:</text>
<text text-anchor="start" x="251" y="-73" font-family="Times,serif" font-size="10.00">TBD&#45;STRUCT</text>
</g>
<!-- nann2&#45;&gt;nSess -->
<g id="edge3" class="edge"><title>nann2&#45;&gt;nSess</title>
<path fill="none" stroke="gray" stroke-dasharray="5,2" d="M320.878,-137.718C339.269,-171.54 366.415,-221.464 380.23,-246.871"/>
</g>
<!-- nxGX -->
<g id="node8" class="node"><title>nxGX</title>
<ellipse fill="#fffc87" stroke="#808080" cx="552" cy="-264" rx="29.6269" ry="18"/>
<text text-anchor="middle" x="552" y="-258.4" font-family="Times,serif" font-size="14.00">xGX</text>
</g>
<!-- nxGX&#45;&gt;nSPM -->
<g id="edge18" class="edge"><title>nxGX&#45;&gt;nSPM</title>
<path fill="none" stroke="black" d="M579.737,-270.495C605.025,-275.411 643.443,-282.647 677,-288 805.367,-308.476 958.212,-327.647 1029.16,-336.249"/>
<polygon fill="black" stroke="black" points="1029.08,-339.765 1039.42,-337.489 1029.92,-332.815 1029.08,-339.765"/>
<text text-anchor="middle" x="589.568" y="-255.966" font-family="Times,serif" font-size="8.00">der</text>
</g>
<!-- nann3 -->
<g id="node9" class="node"><title>nann3</title>
<polygon fill="none" stroke="gray" points="526,-143.5 402,-143.5 402,-60.5 532,-60.5 532,-137.5 526,-143.5"/>
<polyline fill="none" stroke="gray" points="526,-143.5 526,-137.5 "/>
<polyline fill="none" stroke="gray" points="532,-137.5 526,-137.5 "/>
<text text-anchor="start" x="412" y="-127.5" font-family="Times,serif" font-size="10.00">iGXcalc:</text>
<text text-anchor="start" x="452" y="-127.5" font-family="Times,serif" font-size="10.00">None</text>
<text text-anchor="start" x="412" y="-115" font-family="Times,serif" font-size="10.00">sGXcalc:</text>
<text text-anchor="start" x="452" y="-115" font-family="Times,serif" font-size="10.00">mean voxel value</text>
<text text-anchor="start" x="412" y="-103" font-family="Times,serif" font-size="10.00">sGMsca:</text>
<text text-anchor="start" x="452" y="-103" font-family="Times,serif" font-size="10.00">session specific</text>
<text text-anchor="start" x="412" y="-91" font-family="Times,serif" font-size="10.00">rg:</text>
<text text-anchor="start" x="452" y="-91" font-family="Times,serif" font-size="10.00">TBD</text>
<text text-anchor="start" x="412" y="-79" font-family="Times,serif" font-size="10.00">GM:</text>
<text text-anchor="start" x="452" y="-79" font-family="Times,serif" font-size="10.00">100</text>
<text text-anchor="start" x="412" y="-67" font-family="Times,serif" font-size="10.00">gSF:</text>
<text text-anchor="start" x="452" y="-67" font-family="Times,serif" font-size="10.00">TBD</text>
</g>
<!-- nann3&#45;&gt;nxGX -->
<g id="edge4" class="edge"><title>nann3&#45;&gt;nxGX</title>
<path fill="none" stroke="gray" stroke-dasharray="5,2" d="M488.669,-143.789C506.376,-177.12 530.492,-222.515 543.251,-246.531"/>
</g>
<!-- nxX -->
<g id="node10" class="node"><title>nxX</title>
<ellipse fill="#fffc87" stroke="#808080" cx="713" cy="-264" rx="27" ry="18"/>
<text text-anchor="middle" x="713" y="-258.4" font-family="Times,serif" font-size="14.00">xX</text>
</g>
<!-- nxX&#45;&gt;nSPM -->
<g id="edge19" class="edge"><title>nxX&#45;&gt;nSPM</title>
<path fill="none" stroke="black" d="M738.317,-270.405C799.939,-283.56 958.012,-317.306 1031.01,-332.889"/>
<polygon fill="black" stroke="black" points="1030.63,-336.387 1041.14,-335.052 1032.09,-329.541 1030.63,-336.387"/>
<text text-anchor="middle" x="748.364" y="-256.067" font-family="Times,serif" font-size="8.00">der</text>
</g>
<!-- nann4 -->
<g id="node11" class="node"><title>nann4</title>
<polygon fill="none" stroke="gray" points="662,-203.5 550,-203.5 550,-0.5 668,-0.5 668,-197.5 662,-203.5"/>
<polyline fill="none" stroke="gray" points="662,-203.5 662,-197.5 "/>
<polyline fill="none" stroke="gray" points="668,-197.5 662,-197.5 "/>
<text text-anchor="start" x="560" y="-187.5" font-family="Times,serif" font-size="10.00">K:</text>
<text text-anchor="start" x="597" y="-187.5" font-family="Times,serif" font-size="10.00">TBD&#45;STRUCT</text>
<text text-anchor="start" x="560" y="-175" font-family="Times,serif" font-size="10.00">X:</text>
<text text-anchor="start" x="597" y="-175" font-family="Times,serif" font-size="10.00">TBD</text>
<text text-anchor="start" x="560" y="-163" font-family="Times,serif" font-size="10.00">iH:</text>
<text text-anchor="start" x="560" y="-151" font-family="Times,serif" font-size="10.00">iC:</text>
<text text-anchor="start" x="597" y="-151" font-family="Times,serif" font-size="10.00">TBD</text>
<text text-anchor="start" x="560" y="-139" font-family="Times,serif" font-size="10.00">iB:</text>
<text text-anchor="start" x="597" y="-139" font-family="Times,serif" font-size="10.00">[ 37 38 39]</text>
<text text-anchor="start" x="560" y="-127" font-family="Times,serif" font-size="10.00">iG:</text>
<text text-anchor="start" x="560" y="-115" font-family="Times,serif" font-size="10.00">name:</text>
<text text-anchor="start" x="597" y="-115" font-family="Times,serif" font-size="10.00">TBD</text>
<text text-anchor="start" x="560" y="-103" font-family="Times,serif" font-size="10.00">W:</text>
<text text-anchor="start" x="597" y="-103" font-family="Times,serif" font-size="10.00">TBD</text>
<text text-anchor="start" x="560" y="-91" font-family="Times,serif" font-size="10.00">xKXs:</text>
<text text-anchor="start" x="597" y="-91" font-family="Times,serif" font-size="10.00">TBD&#45;STRUCT</text>
<text text-anchor="start" x="560" y="-79" font-family="Times,serif" font-size="10.00">pKX:</text>
<text text-anchor="start" x="597" y="-79" font-family="Times,serif" font-size="10.00">TBD</text>
<text text-anchor="start" x="560" y="-67" font-family="Times,serif" font-size="10.00">V:</text>
<text text-anchor="start" x="597" y="-67" font-family="Times,serif" font-size="10.00">TBD</text>
<text text-anchor="start" x="560" y="-55" font-family="Times,serif" font-size="10.00">trRV:</text>
<text text-anchor="start" x="597" y="-55" font-family="Times,serif" font-size="10.00">660</text>
<text text-anchor="start" x="560" y="-43" font-family="Times,serif" font-size="10.00">trRVRV:</text>
<text text-anchor="start" x="597" y="-43" font-family="Times,serif" font-size="10.00">660</text>
<text text-anchor="start" x="560" y="-31" font-family="Times,serif" font-size="10.00">erdf:</text>
<text text-anchor="start" x="597" y="-31" font-family="Times,serif" font-size="10.00">660</text>
<text text-anchor="start" x="560" y="-19" font-family="Times,serif" font-size="10.00">Bcov:</text>
<text text-anchor="start" x="597" y="-19" font-family="Times,serif" font-size="10.00">TBD</text>
<text text-anchor="start" x="560" y="-7" font-family="Times,serif" font-size="10.00">nKX:</text>
<text text-anchor="start" x="597" y="-7" font-family="Times,serif" font-size="10.00">TBD</text>
</g>
<!-- nann4&#45;&gt;nxX -->
<g id="edge5" class="edge"><title>nann4&#45;&gt;nxX</title>
<path fill="none" stroke="gray" stroke-dasharray="5,2" d="M668.291,-194.217C681.611,-214.709 694.28,-234.2 702.708,-247.166"/>
</g>
<!-- nxVi -->
<g id="node12" class="node"><title>nxVi</title>
<ellipse fill="#fffc87" stroke="#808080" cx="890" cy="-264" rx="27" ry="18"/>
<text text-anchor="middle" x="890" y="-258.4" font-family="Times,serif" font-size="14.00">xVi</text>
</g>
<!-- nxVi&#45;&gt;nSPM -->
<g id="edge20" class="edge"><title>nxVi&#45;&gt;nSPM</title>
<path fill="none" stroke="black" d="M912.309,-274.472C943.234,-287.602 999.381,-311.441 1035.39,-326.732"/>
<polygon fill="black" stroke="black" points="1034.41,-330.115 1044.98,-330.802 1037.14,-323.672 1034.41,-330.115"/>
<text text-anchor="middle" x="924.289" y="-262.246" font-family="Times,serif" font-size="8.00">der</text>
</g>
<!-- nann5 -->
<g id="node13" class="node"><title>nann5</title>
<polygon fill="none" stroke="gray" points="953.5,-149.5 686.5,-149.5 686.5,-54.5 959.5,-54.5 959.5,-143.5 953.5,-149.5"/>
<polyline fill="none" stroke="gray" points="953.5,-149.5 953.5,-143.5 "/>
<polyline fill="none" stroke="gray" points="959.5,-143.5 953.5,-143.5 "/>
<text text-anchor="start" x="697" y="-133.5" font-family="Times,serif" font-size="10.00">form:</text>
<text text-anchor="start" x="722" y="-133.5" font-family="Times,serif" font-size="10.00">AR(0.2)</text>
<text text-anchor="start" x="697" y="-121" font-family="Times,serif" font-size="10.00">Vi:</text>
<text text-anchor="start" x="722" y="-121" font-family="Times,serif" font-size="10.00">TBD</text>
<text text-anchor="start" x="697" y="-109" font-family="Times,serif" font-size="10.00">UFp:</text>
<text text-anchor="start" x="722" y="-109" font-family="Times,serif" font-size="10.00">0.001</text>
<text text-anchor="start" x="697" y="-97" font-family="Times,serif" font-size="10.00">h:</text>
<text text-anchor="start" x="722" y="-97" font-family="Times,serif" font-size="10.00">[ 0.030425; 1.0586; &#45;0.053636; 1.0637; 0.10035; 1.0506]</text>
<text text-anchor="start" x="697" y="-85" font-family="Times,serif" font-size="10.00">V:</text>
<text text-anchor="start" x="722" y="-85" font-family="Times,serif" font-size="10.00">TBD</text>
<text text-anchor="start" x="697" y="-73" font-family="Times,serif" font-size="10.00">Cy:</text>
<text text-anchor="start" x="722" y="-73" font-family="Times,serif" font-size="10.00">TBD</text>
<text text-anchor="start" x="697" y="-61" font-family="Times,serif" font-size="10.00">CY:</text>
<text text-anchor="start" x="722" y="-61" font-family="Times,serif" font-size="10.00">TBD</text>
</g>
<!-- nann5&#45;&gt;nxVi -->
<g id="edge6" class="edge"><title>nann5&#45;&gt;nxVi</title>
<path fill="none" stroke="gray" stroke-dasharray="5,2" d="M842.559,-149.709C856.155,-182.177 873.48,-223.549 882.98,-246.236"/>
</g>
<!-- nxM -->
<g id="node14" class="node"><title>nxM</title>
<ellipse fill="#fffc87" stroke="#808080" cx="1029" cy="-264" rx="27" ry="18"/>
<text text-anchor="middle" x="1029" y="-258.4" font-family="Times,serif" font-size="14.00">xM</text>
</g>
<!-- nxM&#45;&gt;nSPM -->
<g id="edge21" class="edge"><title>nxM&#45;&gt;nSPM</title>
<path fill="none" stroke="black" d="M1037.48,-281.118C1042.75,-291.126 1049.63,-304.206 1055.62,-315.587"/>
<polygon fill="black" stroke="black" points="1052.64,-317.425 1060.39,-324.644 1058.83,-314.164 1052.64,-317.425"/>
<text text-anchor="middle" x="1052.47" y="-278.504" font-family="Times,serif" font-size="8.00">der</text>
</g>
<!-- nann6 -->
<g id="node15" class="node"><title>nann6</title>
<polygon fill="none" stroke="gray" points="1074,-137.5 978,-137.5 978,-66.5 1080,-66.5 1080,-131.5 1074,-137.5"/>
<polyline fill="none" stroke="gray" points="1074,-137.5 1074,-131.5 "/>
<polyline fill="none" stroke="gray" points="1080,-131.5 1074,-131.5 "/>
<text text-anchor="start" x="988" y="-121.5" font-family="Times,serif" font-size="10.00">T:</text>
<text text-anchor="start" x="1009" y="-121.5" font-family="Times,serif" font-size="10.00">TBD</text>
<text text-anchor="start" x="988" y="-109" font-family="Times,serif" font-size="10.00">TH:</text>
<text text-anchor="start" x="1009" y="-109" font-family="Times,serif" font-size="10.00">TBD</text>
<text text-anchor="start" x="988" y="-97" font-family="Times,serif" font-size="10.00">I:</text>
<text text-anchor="start" x="1009" y="-97" font-family="Times,serif" font-size="10.00">0</text>
<text text-anchor="start" x="988" y="-85" font-family="Times,serif" font-size="10.00">VM:</text>
<text text-anchor="start" x="988" y="-73" font-family="Times,serif" font-size="10.00">xs:</text>
<text text-anchor="start" x="1009" y="-73" font-family="Times,serif" font-size="10.00">TBD&#45;STRUCT</text>
</g>
<!-- nann6&#45;&gt;nxM -->
<g id="edge7" class="edge"><title>nann6&#45;&gt;nxM</title>
<path fill="none" stroke="gray" stroke-dasharray="5,2" d="M1029,-137.718C1029,-170.989 1029,-219.84 1029,-245.608"/>
</g>
<!-- nxsDes -->
<g id="node16" class="node"><title>nxsDes</title>
<ellipse fill="#fffc87" stroke="#808080" cx="1109" cy="-264" rx="34.7832" ry="18"/>
<text text-anchor="middle" x="1109" y="-258.4" font-family="Times,serif" font-size="14.00">xsDes</text>
</g>
<!-- nxsDes&#45;&gt;nSPM -->
<g id="edge22" class="edge"><title>nxsDes&#45;&gt;nSPM</title>
<path fill="none" stroke="black" d="M1100.32,-281.491C1095.08,-291.45 1088.29,-304.348 1082.37,-315.589"/>
<polygon fill="black" stroke="black" points="1079.22,-314.062 1077.66,-324.541 1085.42,-317.322 1079.22,-314.062"/>
<text text-anchor="middle" x="1108.32" y="-290.978" font-family="Times,serif" font-size="8.00">der</text>
</g>
<!-- nann7 -->
<g id="node17" class="node"><title>nann7</title>
<polygon fill="none" stroke="gray" points="1274,-155.5 1098,-155.5 1098,-48.5 1280,-48.5 1280,-149.5 1274,-155.5"/>
<polyline fill="none" stroke="gray" points="1274,-155.5 1274,-149.5 "/>
<polyline fill="none" stroke="gray" points="1280,-149.5 1274,-149.5 "/>
<text text-anchor="start" x="1108" y="-139.5" font-family="Times,serif" font-size="10.00">Basis_functions:</text>
<text text-anchor="start" x="1200" y="-139.5" font-family="Times,serif" font-size="10.00">hrf</text>
<text text-anchor="start" x="1108" y="-127" font-family="Times,serif" font-size="10.00">Number_of_sessions:</text>
<text text-anchor="start" x="1200" y="-127" font-family="Times,serif" font-size="10.00">3</text>
<text text-anchor="start" x="1108" y="-115" font-family="Times,serif" font-size="10.00">Trials_per_session:</text>
<text text-anchor="start" x="1200" y="-115" font-family="Times,serif" font-size="10.00">13 10 13 </text>
<text text-anchor="start" x="1108" y="-103" font-family="Times,serif" font-size="10.00">Interscan_interval:</text>
<text text-anchor="start" x="1200" y="-103" font-family="Times,serif" font-size="10.00">2.00 {s}</text>
<text text-anchor="start" x="1108" y="-91" font-family="Times,serif" font-size="10.00">High_pass_Filter:</text>
<text text-anchor="start" x="1200" y="-91" font-family="Times,serif" font-size="10.00">Cutoff: 128 {s}</text>
<text text-anchor="start" x="1108" y="-79" font-family="Times,serif" font-size="10.00">Global_calculation:</text>
<text text-anchor="start" x="1200" y="-79" font-family="Times,serif" font-size="10.00">mean voxel value</text>
<text text-anchor="start" x="1108" y="-67" font-family="Times,serif" font-size="10.00">Grand_mean_scaling:</text>
<text text-anchor="start" x="1200" y="-67" font-family="Times,serif" font-size="10.00">session specific</text>
<text text-anchor="start" x="1108" y="-55" font-family="Times,serif" font-size="10.00">Global_normalisation:</text>
<text text-anchor="start" x="1200" y="-55" font-family="Times,serif" font-size="10.00">None</text>
</g>
<!-- nann7&#45;&gt;nxsDes -->
<g id="edge8" class="edge"><title>nann7&#45;&gt;nxsDes</title>
<path fill="none" stroke="gray" stroke-dasharray="5,2" d="M1162.58,-155.833C1146.84,-187.328 1127.9,-225.196 1117.28,-246.441"/>
</g>
<!-- nxVol -->
<g id="node18" class="node"><title>nxVol</title>
<ellipse fill="#fffc87" stroke="#808080" cx="1191" cy="-264" rx="29.2115" ry="18"/>
<text text-anchor="middle" x="1191" y="-258.4" font-family="Times,serif" font-size="14.00">xVol</text>
</g>
<!-- nxVol&#45;&gt;nSPM -->
<g id="edge23" class="edge"><title>nxVol&#45;&gt;nSPM</title>
<path fill="none" stroke="black" d="M1171.13,-277.38C1151.22,-289.782 1120.37,-309 1097.78,-323.069"/>
<polygon fill="black" stroke="black" points="1095.91,-320.114 1089.27,-328.372 1099.61,-326.055 1095.91,-320.114"/>
<text text-anchor="middle" x="1171.63" y="-289.171" font-family="Times,serif" font-size="8.00">der</text>
</g>
<!-- nann8 -->
<g id="node19" class="node"><title>nann8</title>
<polygon fill="none" stroke="gray" points="1523.5,-155.5 1298.5,-155.5 1298.5,-48.5 1529.5,-48.5 1529.5,-149.5 1523.5,-155.5"/>
<polyline fill="none" stroke="gray" points="1523.5,-155.5 1523.5,-149.5 "/>
<polyline fill="none" stroke="gray" points="1529.5,-149.5 1523.5,-149.5 "/>
<text text-anchor="start" x="1309" y="-139.5" font-family="Times,serif" font-size="10.00">XYZ:</text>
<text text-anchor="start" x="1345" y="-139.5" font-family="Times,serif" font-size="10.00">TBD</text>
<text text-anchor="start" x="1309" y="-127" font-family="Times,serif" font-size="10.00">M:</text>
<text text-anchor="start" x="1345" y="-127" font-family="Times,serif" font-size="10.00">[ &#45;2 0 0 80; 0 2 0 &#45;114; 0 0 2 &#45;52; 0 0 0 1]</text>
<text text-anchor="start" x="1309" y="-115" font-family="Times,serif" font-size="10.00">iM:</text>
<text text-anchor="start" x="1345" y="-115" font-family="Times,serif" font-size="10.00">[ &#45;0.5 0 0 40; 0 0.5 0 57; 0 0 0.5 26; 0 0 0 1]</text>
<text text-anchor="start" x="1309" y="-103" font-family="Times,serif" font-size="10.00">DIM:</text>
<text text-anchor="start" x="1345" y="-103" font-family="Times,serif" font-size="10.00">[ 79; 95; 68]</text>
<text text-anchor="start" x="1309" y="-91" font-family="Times,serif" font-size="10.00">FWHM:</text>
<text text-anchor="start" x="1345" y="-91" font-family="Times,serif" font-size="10.00">[ 9.1412 7.9961 6.1372]</text>
<text text-anchor="start" x="1309" y="-79" font-family="Times,serif" font-size="10.00">R:</text>
<text text-anchor="start" x="1345" y="-79" font-family="Times,serif" font-size="10.00">[ 3 42.8787 251.8165 415.0098]</text>
<text text-anchor="start" x="1309" y="-67" font-family="Times,serif" font-size="10.00">S:</text>
<text text-anchor="start" x="1345" y="-67" font-family="Times,serif" font-size="10.00">201088</text>
<text text-anchor="start" x="1309" y="-55" font-family="Times,serif" font-size="10.00">VRpv:</text>
<text text-anchor="start" x="1345" y="-55" font-family="Times,serif" font-size="10.00">TBD&#45;STRUCT</text>
</g>
<!-- nann8&#45;&gt;nxVol -->
<g id="edge9" class="edge"><title>nann8&#45;&gt;nxVol</title>
<path fill="none" stroke="gray" stroke-dasharray="5,2" d="M1352.37,-155.618C1332.58,-171.742 1310.27,-189.136 1289,-204 1263.51,-221.816 1255.64,-223.949 1229,-240 1223.19,-243.503 1216.88,-247.315 1211.11,-250.81"/>
</g>
<!-- nVbeta -->
<g id="node20" class="node"><title>nVbeta</title>
<ellipse fill="#fffc87" stroke="#808080" cx="1272" cy="-264" rx="34.189" ry="18"/>
<text text-anchor="middle" x="1272" y="-258.4" font-family="Times,serif" font-size="14.00">Vbeta</text>
</g>
<!-- nVbeta&#45;&gt;nSPM -->
<g id="edge24" class="edge"><title>nVbeta&#45;&gt;nSPM</title>
<path fill="none" stroke="black" d="M1249.59,-277.918C1243.07,-281.425 1235.85,-285.061 1229,-288 1187.7,-305.732 1138.35,-321.267 1105.49,-330.857"/>
<polygon fill="black" stroke="black" points="1104.48,-327.504 1095.85,-333.638 1106.42,-334.23 1104.48,-327.504"/>
<text text-anchor="middle" x="1249.09" y="-289.709" font-family="Times,serif" font-size="8.00">der</text>
</g>
<!-- nann9 -->
<g id="node21" class="node"><title>nann9</title>
<polygon fill="none" stroke="gray" points="1762,-155.5 1548,-155.5 1548,-48.5 1768,-48.5 1768,-149.5 1762,-155.5"/>
<polyline fill="none" stroke="gray" points="1762,-155.5 1762,-149.5 "/>
<polyline fill="none" stroke="gray" points="1768,-149.5 1762,-149.5 "/>
<text text-anchor="start" x="1558" y="-139.5" font-family="Times,serif" font-size="10.00">fname:</text>
<text text-anchor="start" x="1592" y="-139.5" font-family="Times,serif" font-size="10.00">beta_0001.img</text>
<text text-anchor="start" x="1558" y="-127" font-family="Times,serif" font-size="10.00">dim:</text>
<text text-anchor="start" x="1592" y="-127" font-family="Times,serif" font-size="10.00">[ 79 95 68]</text>
<text text-anchor="start" x="1558" y="-115" font-family="Times,serif" font-size="10.00">dt:</text>
<text text-anchor="start" x="1592" y="-115" font-family="Times,serif" font-size="10.00">[ 16 0]</text>
<text text-anchor="start" x="1558" y="-103" font-family="Times,serif" font-size="10.00">mat:</text>
<text text-anchor="start" x="1592" y="-103" font-family="Times,serif" font-size="10.00">[ &#45;2 0 0 80; 0 2 0 &#45;114; 0 0 2 &#45;52; 0 0 0 1]</text>
<text text-anchor="start" x="1558" y="-91" font-family="Times,serif" font-size="10.00">pinfo:</text>
<text text-anchor="start" x="1592" y="-91" font-family="Times,serif" font-size="10.00">[ 1; 0; 0]</text>
<text text-anchor="start" x="1558" y="-79" font-family="Times,serif" font-size="10.00">descrip:</text>
<text text-anchor="start" x="1592" y="-79" font-family="Times,serif" font-size="10.00">spm_spm:beta (0001) &#45; Sn(1) Stm2*bf(1)</text>
<text text-anchor="start" x="1558" y="-67" font-family="Times,serif" font-size="10.00">n:</text>
<text text-anchor="start" x="1592" y="-67" font-family="Times,serif" font-size="10.00">[ 1 1]</text>
<text text-anchor="start" x="1558" y="-55" font-family="Times,serif" font-size="10.00">private:</text>
<text text-anchor="start" x="1592" y="-55" font-family="Times,serif" font-size="10.00">TBD</text>
</g>
<!-- nann9&#45;&gt;nVbeta -->
<g id="edge10" class="edge"><title>nann9&#45;&gt;nVbeta</title>
<path fill="none" stroke="gray" stroke-dasharray="5,2" d="M1607.96,-155.572C1587.9,-173.668 1563.49,-192.303 1538,-204 1447.15,-245.687 1410.84,-208.442 1316,-240 1308.48,-242.504 1300.68,-246.178 1293.77,-249.859"/>
</g>
<!-- nVResMS -->
<g id="node22" class="node"><title>nVResMS</title>
<ellipse fill="#fffc87" stroke="#808080" cx="1371" cy="-264" rx="46.4064" ry="18"/>
<text text-anchor="middle" x="1371" y="-258.4" font-family="Times,serif" font-size="14.00">VResMS</text>
</g>
<!-- nVResMS&#45;&gt;nSPM -->
<g id="edge25" class="edge"><title>nVResMS&#45;&gt;nSPM</title>
<path fill="none" stroke="black" d="M1342,-278.053C1333.42,-281.602 1323.93,-285.227 1315,-288 1243.28,-310.261 1156.97,-326.522 1107.99,-334.804"/>
<polygon fill="black" stroke="black" points="1107.12,-331.401 1097.83,-336.498 1108.27,-338.306 1107.12,-331.401"/>
<text text-anchor="middle" x="1339.99" y="-289.718" font-family="Times,serif" font-size="8.00">der</text>
</g>
<!-- nann10 -->
<g id="node23" class="node"><title>nann10</title>
<polygon fill="none" stroke="gray" points="1998,-155.5 1786,-155.5 1786,-48.5 2004,-48.5 2004,-149.5 1998,-155.5"/>
<polyline fill="none" stroke="gray" points="1998,-155.5 1998,-149.5 "/>
<polyline fill="none" stroke="gray" points="2004,-149.5 1998,-149.5 "/>
<text text-anchor="start" x="1796" y="-139.5" font-family="Times,serif" font-size="10.00">fname:</text>
<text text-anchor="start" x="1830" y="-139.5" font-family="Times,serif" font-size="10.00">ResMS.img</text>
<text text-anchor="start" x="1796" y="-127" font-family="Times,serif" font-size="10.00">dim:</text>
<text text-anchor="start" x="1830" y="-127" font-family="Times,serif" font-size="10.00">[ 79 95 68]</text>
<text text-anchor="start" x="1796" y="-115" font-family="Times,serif" font-size="10.00">dt:</text>
<text text-anchor="start" x="1830" y="-115" font-family="Times,serif" font-size="10.00">[ 64 0]</text>
<text text-anchor="start" x="1796" y="-103" font-family="Times,serif" font-size="10.00">mat:</text>
<text text-anchor="start" x="1830" y="-103" font-family="Times,serif" font-size="10.00">[ &#45;2 0 0 80; 0 2 0 &#45;114; 0 0 2 &#45;52; 0 0 0 1]</text>
<text text-anchor="start" x="1796" y="-91" font-family="Times,serif" font-size="10.00">pinfo:</text>
<text text-anchor="start" x="1830" y="-91" font-family="Times,serif" font-size="10.00">[ 0.0015152; 0; 0]</text>
<text text-anchor="start" x="1796" y="-79" font-family="Times,serif" font-size="10.00">descrip:</text>
<text text-anchor="start" x="1830" y="-79" font-family="Times,serif" font-size="10.00">spm_spm:Residual sum&#45;of&#45;squares</text>
<text text-anchor="start" x="1796" y="-67" font-family="Times,serif" font-size="10.00">n:</text>
<text text-anchor="start" x="1830" y="-67" font-family="Times,serif" font-size="10.00">[ 1 1]</text>
<text text-anchor="start" x="1796" y="-55" font-family="Times,serif" font-size="10.00">private:</text>
<text text-anchor="start" x="1830" y="-55" font-family="Times,serif" font-size="10.00">TBD</text>
</g>
<!-- nann10&#45;&gt;nVResMS -->
<g id="edge11" class="edge"><title>nann10&#45;&gt;nVResMS</title>
<path fill="none" stroke="gray" stroke-dasharray="5,2" d="M1847.15,-155.583C1827.32,-174.027 1802.9,-192.895 1777,-204 1632.87,-265.799 1577.98,-201.333 1426,-240 1416.87,-242.322 1407.28,-245.9 1398.72,-249.547"/>
</g>
<!-- nVM -->
<g id="node24" class="node"><title>nVM</title>
<ellipse fill="#fffc87" stroke="#808080" cx="1462" cy="-264" rx="27" ry="18"/>
<text text-anchor="middle" x="1462" y="-258.4" font-family="Times,serif" font-size="14.00">VM</text>
</g>
<!-- nVM&#45;&gt;nSPM -->
<g id="edge26" class="edge"><title>nVM&#45;&gt;nSPM</title>
<path fill="none" stroke="black" d="M1444.84,-278.04C1439.12,-281.808 1432.53,-285.557 1426,-288 1316.54,-328.947 1177.07,-338.361 1109.43,-340.456"/>
<polygon fill="black" stroke="black" points="1109.1,-336.963 1099.2,-340.733 1109.29,-343.96 1109.1,-336.963"/>
<text text-anchor="middle" x="1445.61" y="-289.82" font-family="Times,serif" font-size="8.00">der</text>
</g>
<!-- nann11 -->
<g id="node25" class="node"><title>nann11</title>
<polygon fill="none" stroke="gray" points="2234,-155.5 2022,-155.5 2022,-48.5 2240,-48.5 2240,-149.5 2234,-155.5"/>
<polyline fill="none" stroke="gray" points="2234,-155.5 2234,-149.5 "/>
<polyline fill="none" stroke="gray" points="2240,-149.5 2234,-149.5 "/>
<text text-anchor="start" x="2032" y="-139.5" font-family="Times,serif" font-size="10.00">fname:</text>
<text text-anchor="start" x="2066" y="-139.5" font-family="Times,serif" font-size="10.00">mask.img</text>
<text text-anchor="start" x="2032" y="-127" font-family="Times,serif" font-size="10.00">dim:</text>
<text text-anchor="start" x="2066" y="-127" font-family="Times,serif" font-size="10.00">[ 79 95 68]</text>
<text text-anchor="start" x="2032" y="-115" font-family="Times,serif" font-size="10.00">dt:</text>
<text text-anchor="start" x="2066" y="-115" font-family="Times,serif" font-size="10.00">[ 2 0]</text>
<text text-anchor="start" x="2032" y="-103" font-family="Times,serif" font-size="10.00">mat:</text>
<text text-anchor="start" x="2066" y="-103" font-family="Times,serif" font-size="10.00">[ &#45;2 0 0 80; 0 2 0 &#45;114; 0 0 2 &#45;52; 0 0 0 1]</text>
<text text-anchor="start" x="2032" y="-91" font-family="Times,serif" font-size="10.00">pinfo:</text>
<text text-anchor="start" x="2066" y="-91" font-family="Times,serif" font-size="10.00">[ 1; 0; 0]</text>
<text text-anchor="start" x="2032" y="-79" font-family="Times,serif" font-size="10.00">descrip:</text>
<text text-anchor="start" x="2066" y="-79" font-family="Times,serif" font-size="10.00">spm_spm:resultant analysis mask</text>
<text text-anchor="start" x="2032" y="-67" font-family="Times,serif" font-size="10.00">n:</text>
<text text-anchor="start" x="2066" y="-67" font-family="Times,serif" font-size="10.00">[ 1 1]</text>
<text text-anchor="start" x="2032" y="-55" font-family="Times,serif" font-size="10.00">private:</text>
<text text-anchor="start" x="2066" y="-55" font-family="Times,serif" font-size="10.00">TBD</text>
</g>
<!-- nann11&#45;&gt;nVM -->
<g id="edge12" class="edge"><title>nann11&#45;&gt;nVM</title>
<path fill="none" stroke="gray" stroke-dasharray="5,2" d="M2083.62,-155.76C2063.76,-174.345 2039.2,-193.265 2013,-204 1800.68,-290.991 1715.86,-168.007 1498,-240 1491.38,-242.187 1484.77,-245.87 1479.05,-249.654"/>
</g>
<!-- nxCon -->
<g id="node26" class="node"><title>nxCon</title>
<ellipse fill="#fffc87" stroke="#808080" cx="1539" cy="-264" rx="31.9261" ry="18"/>
<text text-anchor="middle" x="1539" y="-258.4" font-family="Times,serif" font-size="14.00">xCon</text>
</g>
<!-- nxCon&#45;&gt;nSPM -->
<g id="edge27" class="edge"><title>nxCon&#45;&gt;nSPM</title>
<path fill="none" stroke="black" d="M1519.28,-278.101C1512.75,-281.872 1505.29,-285.608 1498,-288 1360.61,-333.086 1187,-340.327 1109.53,-341.151"/>
<polygon fill="black" stroke="black" points="1109.22,-337.653 1099.25,-341.228 1109.28,-344.653 1109.22,-337.653"/>
<text text-anchor="middle" x="1519.18" y="-289.9" font-family="Times,serif" font-size="8.00">der</text>
</g>
<!-- nann12 -->
<g id="node27" class="node"><title>nann12</title>
<polygon fill="none" stroke="gray" points="2362,-161.5 2258,-161.5 2258,-42.5 2368,-42.5 2368,-155.5 2362,-161.5"/>
<polyline fill="none" stroke="gray" points="2362,-161.5 2362,-155.5 "/>
<polyline fill="none" stroke="gray" points="2368,-155.5 2362,-155.5 "/>
<text text-anchor="start" x="2268" y="-145.5" font-family="Times,serif" font-size="10.00">name:</text>
<text text-anchor="start" x="2297" y="-145.5" font-family="Times,serif" font-size="10.00">iStm</text>
<text text-anchor="start" x="2268" y="-133" font-family="Times,serif" font-size="10.00">STAT:</text>
<text text-anchor="start" x="2297" y="-133" font-family="Times,serif" font-size="10.00">T</text>
<text text-anchor="start" x="2268" y="-121" font-family="Times,serif" font-size="10.00">c:</text>
<text text-anchor="start" x="2297" y="-121" font-family="Times,serif" font-size="10.00">TBD</text>
<text text-anchor="start" x="2268" y="-109" font-family="Times,serif" font-size="10.00">X0:</text>
<text text-anchor="start" x="2297" y="-109" font-family="Times,serif" font-size="10.00">TBD&#45;STRUCT</text>
<text text-anchor="start" x="2268" y="-97" font-family="Times,serif" font-size="10.00">iX0:</text>
<text text-anchor="start" x="2297" y="-97" font-family="Times,serif" font-size="10.00">c</text>
<text text-anchor="start" x="2268" y="-85" font-family="Times,serif" font-size="10.00">X1o:</text>
<text text-anchor="start" x="2297" y="-85" font-family="Times,serif" font-size="10.00">TBD&#45;STRUCT</text>
<text text-anchor="start" x="2268" y="-73" font-family="Times,serif" font-size="10.00">eidf:</text>
<text text-anchor="start" x="2297" y="-73" font-family="Times,serif" font-size="10.00">1</text>
<text text-anchor="start" x="2268" y="-61" font-family="Times,serif" font-size="10.00">Vcon:</text>
<text text-anchor="start" x="2297" y="-61" font-family="Times,serif" font-size="10.00">TBD&#45;STRUCT</text>
<text text-anchor="start" x="2268" y="-49" font-family="Times,serif" font-size="10.00">Vspm:</text>
<text text-anchor="start" x="2297" y="-49" font-family="Times,serif" font-size="10.00">TBD&#45;STRUCT</text>
</g>
<!-- nann12&#45;&gt;nxCon -->
<g id="edge13" class="edge"><title>nann12&#45;&gt;nxCon</title>
<path fill="none" stroke="gray" stroke-dasharray="5,2" d="M2288.62,-161.565C2278.8,-178.074 2265.75,-194.191 2249,-204 2120.34,-279.356 1721.97,-197.684 1579,-240 1571.78,-242.137 1564.47,-245.806 1558.11,-249.593"/>
</g>
<!-- nSPM&#45;&gt;nEstimate -->
<g id="edge28" class="edge"><title>nSPM&#45;&gt;nEstimate</title>
<path fill="none" stroke="black" d="M1069,-360.303C1069,-368.017 1069,-377.288 1069,-385.888"/>
<polygon fill="black" stroke="black" points="1065.5,-385.896 1069,-395.896 1072.5,-385.896 1065.5,-385.896"/>
<text text-anchor="middle" x="1081.99" y="-364.603" font-family="Times,serif" font-size="8.00">use</text>
</g>
<!-- nann13 -->
<g id="node29" class="node"><title>nann13</title>
<polygon fill="none" stroke="gray" points="1737.5,-287.5 1588.5,-287.5 1588.5,-240.5 1743.5,-240.5 1743.5,-281.5 1737.5,-287.5"/>
<polyline fill="none" stroke="gray" points="1737.5,-287.5 1737.5,-281.5 "/>
<polyline fill="none" stroke="gray" points="1743.5,-281.5 1737.5,-281.5 "/>
<text text-anchor="start" x="1599" y="-271.5" font-family="Times,serif" font-size="10.00">nscan:</text>
<text text-anchor="start" x="1632" y="-271.5" font-family="Times,serif" font-size="10.00">[ 240 240 240]</text>
<text text-anchor="start" x="1599" y="-259" font-family="Times,serif" font-size="10.00">SPMid:</text>
<text text-anchor="start" x="1632" y="-259" font-family="Times,serif" font-size="10.00">SPM8: spm_spm (v4515)</text>
<text text-anchor="start" x="1599" y="-247" font-family="Times,serif" font-size="10.00">swd:</text>
<text text-anchor="start" x="1632" y="-247" font-family="Times,serif" font-size="10.00">results_iLS</text>
</g>
<!-- nann13&#45;&gt;nSPM -->
<g id="edge14" class="edge"><title>nann13&#45;&gt;nSPM</title>
<path fill="none" stroke="gray" stroke-dasharray="5,2" d="M1588.35,-286.167C1585.2,-286.823 1582.07,-287.438 1579,-288 1398.62,-321.011 1178.3,-335.214 1099.12,-339.502"/>
</g>
</g>
</svg>
